<?xml version="1.0" encoding="utf-8" standalone="no"?>
<!DOCTYPE svg PUBLIC "-//W3C//DTD SVG 1.1//EN"
  "http://www.w3.org/Graphics/SVG/1.1/DTD/svg11.dtd">
<!-- Created with matplotlib (https://matplotlib.org/) -->
<svg height="288pt" version="1.1" viewBox="0 0 432 288" width="432pt" xmlns="http://www.w3.org/2000/svg" xmlns:xlink="http://www.w3.org/1999/xlink">
 <metadata>
  <rdf:RDF xmlns:cc="http://creativecommons.org/ns#" xmlns:dc="http://purl.org/dc/elements/1.1/" xmlns:rdf="http://www.w3.org/1999/02/22-rdf-syntax-ns#">
   <cc:Work>
    <dc:type rdf:resource="http://purl.org/dc/dcmitype/StillImage"/>
    <dc:date>2020-11-23T19:41:47.990740</dc:date>
    <dc:format>image/svg+xml</dc:format>
    <dc:creator>
     <cc:Agent>
      <dc:title>Matplotlib v3.3.0, https://matplotlib.org/</dc:title>
     </cc:Agent>
    </dc:creator>
   </cc:Work>
  </rdf:RDF>
 </metadata>
 <defs>
  <style type="text/css">*{stroke-linecap:butt;stroke-linejoin:round;}</style>
 </defs>
 <g id="figure_1">
  <g id="patch_1">
   <path d="M 0 288 
L 432 288 
L 432 0 
L 0 0 
z
" style="fill:none;"/>
  </g>
  <g id="axes_1">
   <g id="patch_2">
    <path d="M 54 252 
L 388.8 252 
L 388.8 34.56 
L 54 34.56 
z
" style="fill:#ffffff;"/>
   </g>
   <g id="matplotlib.axis_1">
    <g id="xtick_1">
     <g id="line2d_1">
      <defs>
       <path d="M 0 0 
L 0 3.5 
" id="m079eec41ab" style="stroke:#000000;stroke-width:0.8;"/>
      </defs>
      <g>
       <use style="stroke:#000000;stroke-width:0.8;" x="69.218182" xlink:href="#m079eec41ab" y="252"/>
      </g>
     </g>
     <g id="text_1">
      <!-- 0 -->
      <g transform="translate(66.036932 266.598437)scale(0.1 -0.1)">
       <defs>
        <path d="M 31.78125 66.40625 
Q 24.171875 66.40625 20.328125 58.90625 
Q 16.5 51.421875 16.5 36.375 
Q 16.5 21.390625 20.328125 13.890625 
Q 24.171875 6.390625 31.78125 6.390625 
Q 39.453125 6.390625 43.28125 13.890625 
Q 47.125 21.390625 47.125 36.375 
Q 47.125 51.421875 43.28125 58.90625 
Q 39.453125 66.40625 31.78125 66.40625 
z
M 31.78125 74.21875 
Q 44.046875 74.21875 50.515625 64.515625 
Q 56.984375 54.828125 56.984375 36.375 
Q 56.984375 17.96875 50.515625 8.265625 
Q 44.046875 -1.421875 31.78125 -1.421875 
Q 19.53125 -1.421875 13.0625 8.265625 
Q 6.59375 17.96875 6.59375 36.375 
Q 6.59375 54.828125 13.0625 64.515625 
Q 19.53125 74.21875 31.78125 74.21875 
z
" id="DejaVuSans-48"/>
       </defs>
       <use xlink:href="#DejaVuSans-48"/>
      </g>
     </g>
    </g>
    <g id="xtick_2">
     <g id="line2d_2">
      <g>
       <use style="stroke:#000000;stroke-width:0.8;" x="130.705785" xlink:href="#m079eec41ab" y="252"/>
      </g>
     </g>
     <g id="text_2">
      <!-- 100 -->
      <g transform="translate(121.162035 266.598437)scale(0.1 -0.1)">
       <defs>
        <path d="M 12.40625 8.296875 
L 28.515625 8.296875 
L 28.515625 63.921875 
L 10.984375 60.40625 
L 10.984375 69.390625 
L 28.421875 72.90625 
L 38.28125 72.90625 
L 38.28125 8.296875 
L 54.390625 8.296875 
L 54.390625 0 
L 12.40625 0 
z
" id="DejaVuSans-49"/>
       </defs>
       <use xlink:href="#DejaVuSans-49"/>
       <use x="63.623047" xlink:href="#DejaVuSans-48"/>
       <use x="127.246094" xlink:href="#DejaVuSans-48"/>
      </g>
     </g>
    </g>
    <g id="xtick_3">
     <g id="line2d_3">
      <g>
       <use style="stroke:#000000;stroke-width:0.8;" x="192.193388" xlink:href="#m079eec41ab" y="252"/>
      </g>
     </g>
     <g id="text_3">
      <!-- 200 -->
      <g transform="translate(182.649638 266.598437)scale(0.1 -0.1)">
       <defs>
        <path d="M 19.1875 8.296875 
L 53.609375 8.296875 
L 53.609375 0 
L 7.328125 0 
L 7.328125 8.296875 
Q 12.9375 14.109375 22.625 23.890625 
Q 32.328125 33.6875 34.8125 36.53125 
Q 39.546875 41.84375 41.421875 45.53125 
Q 43.3125 49.21875 43.3125 52.78125 
Q 43.3125 58.59375 39.234375 62.25 
Q 35.15625 65.921875 28.609375 65.921875 
Q 23.96875 65.921875 18.8125 64.3125 
Q 13.671875 62.703125 7.8125 59.421875 
L 7.8125 69.390625 
Q 13.765625 71.78125 18.9375 73 
Q 24.125 74.21875 28.421875 74.21875 
Q 39.75 74.21875 46.484375 68.546875 
Q 53.21875 62.890625 53.21875 53.421875 
Q 53.21875 48.921875 51.53125 44.890625 
Q 49.859375 40.875 45.40625 35.40625 
Q 44.1875 33.984375 37.640625 27.21875 
Q 31.109375 20.453125 19.1875 8.296875 
z
" id="DejaVuSans-50"/>
       </defs>
       <use xlink:href="#DejaVuSans-50"/>
       <use x="63.623047" xlink:href="#DejaVuSans-48"/>
       <use x="127.246094" xlink:href="#DejaVuSans-48"/>
      </g>
     </g>
    </g>
    <g id="xtick_4">
     <g id="line2d_4">
      <g>
       <use style="stroke:#000000;stroke-width:0.8;" x="253.680992" xlink:href="#m079eec41ab" y="252"/>
      </g>
     </g>
     <g id="text_4">
      <!-- 300 -->
      <g transform="translate(244.137242 266.598437)scale(0.1 -0.1)">
       <defs>
        <path d="M 40.578125 39.3125 
Q 47.65625 37.796875 51.625 33 
Q 55.609375 28.21875 55.609375 21.1875 
Q 55.609375 10.40625 48.1875 4.484375 
Q 40.765625 -1.421875 27.09375 -1.421875 
Q 22.515625 -1.421875 17.65625 -0.515625 
Q 12.796875 0.390625 7.625 2.203125 
L 7.625 11.71875 
Q 11.71875 9.328125 16.59375 8.109375 
Q 21.484375 6.890625 26.8125 6.890625 
Q 36.078125 6.890625 40.9375 10.546875 
Q 45.796875 14.203125 45.796875 21.1875 
Q 45.796875 27.640625 41.28125 31.265625 
Q 36.765625 34.90625 28.71875 34.90625 
L 20.21875 34.90625 
L 20.21875 43.015625 
L 29.109375 43.015625 
Q 36.375 43.015625 40.234375 45.921875 
Q 44.09375 48.828125 44.09375 54.296875 
Q 44.09375 59.90625 40.109375 62.90625 
Q 36.140625 65.921875 28.71875 65.921875 
Q 24.65625 65.921875 20.015625 65.03125 
Q 15.375 64.15625 9.8125 62.3125 
L 9.8125 71.09375 
Q 15.4375 72.65625 20.34375 73.4375 
Q 25.25 74.21875 29.59375 74.21875 
Q 40.828125 74.21875 47.359375 69.109375 
Q 53.90625 64.015625 53.90625 55.328125 
Q 53.90625 49.265625 50.4375 45.09375 
Q 46.96875 40.921875 40.578125 39.3125 
z
" id="DejaVuSans-51"/>
       </defs>
       <use xlink:href="#DejaVuSans-51"/>
       <use x="63.623047" xlink:href="#DejaVuSans-48"/>
       <use x="127.246094" xlink:href="#DejaVuSans-48"/>
      </g>
     </g>
    </g>
    <g id="xtick_5">
     <g id="line2d_5">
      <g>
       <use style="stroke:#000000;stroke-width:0.8;" x="315.168595" xlink:href="#m079eec41ab" y="252"/>
      </g>
     </g>
     <g id="text_5">
      <!-- 400 -->
      <g transform="translate(305.624845 266.598437)scale(0.1 -0.1)">
       <defs>
        <path d="M 37.796875 64.3125 
L 12.890625 25.390625 
L 37.796875 25.390625 
z
M 35.203125 72.90625 
L 47.609375 72.90625 
L 47.609375 25.390625 
L 58.015625 25.390625 
L 58.015625 17.1875 
L 47.609375 17.1875 
L 47.609375 0 
L 37.796875 0 
L 37.796875 17.1875 
L 4.890625 17.1875 
L 4.890625 26.703125 
z
" id="DejaVuSans-52"/>
       </defs>
       <use xlink:href="#DejaVuSans-52"/>
       <use x="63.623047" xlink:href="#DejaVuSans-48"/>
       <use x="127.246094" xlink:href="#DejaVuSans-48"/>
      </g>
     </g>
    </g>
    <g id="xtick_6">
     <g id="line2d_6">
      <g>
       <use style="stroke:#000000;stroke-width:0.8;" x="376.656198" xlink:href="#m079eec41ab" y="252"/>
      </g>
     </g>
     <g id="text_6">
      <!-- 500 -->
      <g transform="translate(367.112448 266.598437)scale(0.1 -0.1)">
       <defs>
        <path d="M 10.796875 72.90625 
L 49.515625 72.90625 
L 49.515625 64.59375 
L 19.828125 64.59375 
L 19.828125 46.734375 
Q 21.96875 47.46875 24.109375 47.828125 
Q 26.265625 48.1875 28.421875 48.1875 
Q 40.625 48.1875 47.75 41.5 
Q 54.890625 34.8125 54.890625 23.390625 
Q 54.890625 11.625 47.5625 5.09375 
Q 40.234375 -1.421875 26.90625 -1.421875 
Q 22.3125 -1.421875 17.546875 -0.640625 
Q 12.796875 0.140625 7.71875 1.703125 
L 7.71875 11.625 
Q 12.109375 9.234375 16.796875 8.0625 
Q 21.484375 6.890625 26.703125 6.890625 
Q 35.15625 6.890625 40.078125 11.328125 
Q 45.015625 15.765625 45.015625 23.390625 
Q 45.015625 31 40.078125 35.4375 
Q 35.15625 39.890625 26.703125 39.890625 
Q 22.75 39.890625 18.8125 39.015625 
Q 14.890625 38.140625 10.796875 36.28125 
z
" id="DejaVuSans-53"/>
       </defs>
       <use xlink:href="#DejaVuSans-53"/>
       <use x="63.623047" xlink:href="#DejaVuSans-48"/>
       <use x="127.246094" xlink:href="#DejaVuSans-48"/>
      </g>
     </g>
    </g>
   </g>
   <g id="matplotlib.axis_2">
    <g id="ytick_1">
     <g id="line2d_7">
      <defs>
       <path d="M 0 0 
L -3.5 0 
" id="ma831589bd1" style="stroke:#000000;stroke-width:0.8;"/>
      </defs>
      <g>
       <use style="stroke:#000000;stroke-width:0.8;" x="54" xlink:href="#ma831589bd1" y="242.116364"/>
      </g>
     </g>
     <g id="text_7">
      <!-- 0 -->
      <g transform="translate(40.6375 245.915582)scale(0.1 -0.1)">
       <use xlink:href="#DejaVuSans-48"/>
      </g>
     </g>
    </g>
    <g id="ytick_2">
     <g id="line2d_8">
      <g>
       <use style="stroke:#000000;stroke-width:0.8;" x="54" xlink:href="#ma831589bd1" y="202.581818"/>
      </g>
     </g>
     <g id="text_8">
      <!-- 20 -->
      <g transform="translate(34.275 206.381037)scale(0.1 -0.1)">
       <use xlink:href="#DejaVuSans-50"/>
       <use x="63.623047" xlink:href="#DejaVuSans-48"/>
      </g>
     </g>
    </g>
    <g id="ytick_3">
     <g id="line2d_9">
      <g>
       <use style="stroke:#000000;stroke-width:0.8;" x="54" xlink:href="#ma831589bd1" y="163.047273"/>
      </g>
     </g>
     <g id="text_9">
      <!-- 40 -->
      <g transform="translate(34.275 166.846491)scale(0.1 -0.1)">
       <use xlink:href="#DejaVuSans-52"/>
       <use x="63.623047" xlink:href="#DejaVuSans-48"/>
      </g>
     </g>
    </g>
    <g id="ytick_4">
     <g id="line2d_10">
      <g>
       <use style="stroke:#000000;stroke-width:0.8;" x="54" xlink:href="#ma831589bd1" y="123.512727"/>
      </g>
     </g>
     <g id="text_10">
      <!-- 60 -->
      <g transform="translate(34.275 127.311946)scale(0.1 -0.1)">
       <defs>
        <path d="M 33.015625 40.375 
Q 26.375 40.375 22.484375 35.828125 
Q 18.609375 31.296875 18.609375 23.390625 
Q 18.609375 15.53125 22.484375 10.953125 
Q 26.375 6.390625 33.015625 6.390625 
Q 39.65625 6.390625 43.53125 10.953125 
Q 47.40625 15.53125 47.40625 23.390625 
Q 47.40625 31.296875 43.53125 35.828125 
Q 39.65625 40.375 33.015625 40.375 
z
M 52.59375 71.296875 
L 52.59375 62.3125 
Q 48.875 64.0625 45.09375 64.984375 
Q 41.3125 65.921875 37.59375 65.921875 
Q 27.828125 65.921875 22.671875 59.328125 
Q 17.53125 52.734375 16.796875 39.40625 
Q 19.671875 43.65625 24.015625 45.921875 
Q 28.375 48.1875 33.59375 48.1875 
Q 44.578125 48.1875 50.953125 41.515625 
Q 57.328125 34.859375 57.328125 23.390625 
Q 57.328125 12.15625 50.6875 5.359375 
Q 44.046875 -1.421875 33.015625 -1.421875 
Q 20.359375 -1.421875 13.671875 8.265625 
Q 6.984375 17.96875 6.984375 36.375 
Q 6.984375 53.65625 15.1875 63.9375 
Q 23.390625 74.21875 37.203125 74.21875 
Q 40.921875 74.21875 44.703125 73.484375 
Q 48.484375 72.75 52.59375 71.296875 
z
" id="DejaVuSans-54"/>
       </defs>
       <use xlink:href="#DejaVuSans-54"/>
       <use x="63.623047" xlink:href="#DejaVuSans-48"/>
      </g>
     </g>
    </g>
    <g id="ytick_5">
     <g id="line2d_11">
      <g>
       <use style="stroke:#000000;stroke-width:0.8;" x="54" xlink:href="#ma831589bd1" y="83.978182"/>
      </g>
     </g>
     <g id="text_11">
      <!-- 80 -->
      <g transform="translate(34.275 87.777401)scale(0.1 -0.1)">
       <defs>
        <path d="M 31.78125 34.625 
Q 24.75 34.625 20.71875 30.859375 
Q 16.703125 27.09375 16.703125 20.515625 
Q 16.703125 13.921875 20.71875 10.15625 
Q 24.75 6.390625 31.78125 6.390625 
Q 38.8125 6.390625 42.859375 10.171875 
Q 46.921875 13.96875 46.921875 20.515625 
Q 46.921875 27.09375 42.890625 30.859375 
Q 38.875 34.625 31.78125 34.625 
z
M 21.921875 38.8125 
Q 15.578125 40.375 12.03125 44.71875 
Q 8.5 49.078125 8.5 55.328125 
Q 8.5 64.0625 14.71875 69.140625 
Q 20.953125 74.21875 31.78125 74.21875 
Q 42.671875 74.21875 48.875 69.140625 
Q 55.078125 64.0625 55.078125 55.328125 
Q 55.078125 49.078125 51.53125 44.71875 
Q 48 40.375 41.703125 38.8125 
Q 48.828125 37.15625 52.796875 32.3125 
Q 56.78125 27.484375 56.78125 20.515625 
Q 56.78125 9.90625 50.3125 4.234375 
Q 43.84375 -1.421875 31.78125 -1.421875 
Q 19.734375 -1.421875 13.25 4.234375 
Q 6.78125 9.90625 6.78125 20.515625 
Q 6.78125 27.484375 10.78125 32.3125 
Q 14.796875 37.15625 21.921875 38.8125 
z
M 18.3125 54.390625 
Q 18.3125 48.734375 21.84375 45.5625 
Q 25.390625 42.390625 31.78125 42.390625 
Q 38.140625 42.390625 41.71875 45.5625 
Q 45.3125 48.734375 45.3125 54.390625 
Q 45.3125 60.0625 41.71875 63.234375 
Q 38.140625 66.40625 31.78125 66.40625 
Q 25.390625 66.40625 21.84375 63.234375 
Q 18.3125 60.0625 18.3125 54.390625 
z
" id="DejaVuSans-56"/>
       </defs>
       <use xlink:href="#DejaVuSans-56"/>
       <use x="63.623047" xlink:href="#DejaVuSans-48"/>
      </g>
     </g>
    </g>
    <g id="ytick_6">
     <g id="line2d_12">
      <g>
       <use style="stroke:#000000;stroke-width:0.8;" x="54" xlink:href="#ma831589bd1" y="44.443636"/>
      </g>
     </g>
     <g id="text_12">
      <!-- 100 -->
      <g transform="translate(27.9125 48.242855)scale(0.1 -0.1)">
       <use xlink:href="#DejaVuSans-49"/>
       <use x="63.623047" xlink:href="#DejaVuSans-48"/>
       <use x="127.246094" xlink:href="#DejaVuSans-48"/>
      </g>
     </g>
    </g>
   </g>
   <g id="line2d_13">
    <path clip-path="url(#p8e8665c0b6)" d="M 69.218182 240.930327 
L 69.833058 240.534982 
L 71.677686 238.755927 
L 72.292562 238.360582 
L 73.522314 237.174545 
L 74.13719 236.7792 
L 75.366942 235.593164 
L 75.981818 235.197818 
L 77.21157 234.011782 
L 77.826446 233.616436 
L 78.441322 233.023418 
L 79.056198 232.628073 
L 80.28595 231.442036 
L 80.900826 231.046691 
L 82.130579 229.860655 
L 82.745455 229.465309 
L 83.360331 228.872291 
L 83.975207 228.476945 
L 85.204959 227.290909 
L 85.819835 226.895564 
L 86.434711 226.302545 
L 87.049587 225.9072 
L 88.279339 224.721164 
L 88.894215 224.325818 
L 89.509091 223.7328 
L 90.123967 223.337455 
L 91.353719 222.151418 
L 91.968595 221.756073 
L 92.583471 221.163055 
L 93.198347 220.767709 
L 93.813223 220.174691 
L 94.428099 219.779345 
L 95.657851 218.593309 
L 96.272727 218.197964 
L 96.887603 217.604945 
L 97.502479 217.2096 
L 98.732231 216.023564 
L 99.347107 215.628218 
L 99.961983 215.0352 
L 100.57686 214.639855 
L 101.806612 213.453818 
L 102.421488 213.058473 
L 103.036364 212.465455 
L 103.65124 212.070109 
L 104.266116 211.477091 
L 104.880992 211.081745 
L 106.110744 209.895709 
L 106.72562 209.500364 
L 107.340496 208.907345 
L 107.955372 208.512 
L 108.570248 207.918982 
L 109.185124 207.523636 
L 110.414876 206.3376 
L 111.029752 205.942255 
L 111.644628 205.349236 
L 112.259504 204.953891 
L 112.87438 204.360873 
L 113.489256 203.965527 
L 114.719008 202.779491 
L 115.333884 202.384145 
L 115.94876 201.791127 
L 116.563636 201.395782 
L 117.793388 200.209745 
L 118.408264 199.8144 
L 119.02314 199.221382 
L 119.638017 198.826036 
L 120.252893 198.233018 
L 127.016529 193.884218 
L 127.631405 193.2912 
L 133.780165 189.337745 
L 134.395041 188.744727 
L 136.854545 187.163345 
L 137.469421 186.570327 
L 139.31405 185.384291 
L 139.928926 184.791273 
L 141.773554 183.605236 
L 142.38843 183.012218 
L 144.233058 181.826182 
L 144.847934 181.233164 
L 146.692562 180.047127 
L 147.307438 179.454109 
L 149.152066 178.268073 
L 149.766942 177.675055 
L 151.61157 176.489018 
L 152.226446 175.896 
L 155.300826 173.919273 
L 155.915702 173.326255 
L 157.145455 172.535564 
L 157.760331 171.942545 
L 160.219835 170.361164 
L 160.834711 169.768145 
L 162.679339 168.582109 
L 163.294215 167.989091 
L 164.523967 167.1984 
L 165.138843 166.605382 
L 166.983471 165.419345 
L 167.598347 164.826327 
L 169.442975 163.640291 
L 170.057851 163.047273 
L 171.287603 162.256582 
L 171.902479 161.663564 
L 173.747107 160.477527 
L 174.361983 159.884509 
L 175.591736 159.093818 
L 176.206612 158.5008 
L 178.05124 157.314764 
L 178.666116 156.721745 
L 179.895868 155.931055 
L 180.510744 155.338036 
L 182.355372 154.152 
L 182.970248 153.558982 
L 184.2 152.768291 
L 184.814876 152.175273 
L 186.044628 151.384582 
L 186.659504 150.791564 
L 188.504132 149.605527 
L 189.119008 149.012509 
L 190.34876 148.221818 
L 190.963636 147.6288 
L 192.808264 146.442764 
L 193.42314 145.849745 
L 194.652893 145.059055 
L 195.267769 144.466036 
L 197.112397 143.28 
L 197.727273 142.686982 
L 198.957025 141.896291 
L 199.571901 141.303273 
L 200.801653 140.512582 
L 201.416529 139.919564 
L 203.261157 138.733527 
L 203.876033 138.140509 
L 205.105785 137.349818 
L 205.720661 136.7568 
L 206.950413 135.966109 
L 207.565289 135.373091 
L 209.409917 134.187055 
L 210.024793 133.594036 
L 211.254545 132.803345 
L 211.869421 132.210327 
L 213.099174 131.419636 
L 213.71405 130.826618 
L 214.943802 130.035927 
L 215.558678 129.442909 
L 217.403306 128.256873 
L 218.018182 127.663855 
L 219.247934 126.873164 
L 219.86281 126.280145 
L 221.092562 125.489455 
L 221.707438 124.896436 
L 222.93719 124.105745 
L 223.552066 123.512727 
L 224.781818 122.722036 
L 225.396694 122.129018 
L 226.626446 121.338327 
L 227.241322 120.745309 
L 228.471074 119.954618 
L 229.08595 119.3616 
L 230.315702 118.570909 
L 230.930579 117.977891 
L 232.160331 117.1872 
L 232.775207 116.594182 
L 234.004959 115.803491 
L 234.619835 115.210473 
L 235.849587 114.419782 
L 236.464463 113.826764 
L 237.694215 113.036073 
L 238.309091 112.443055 
L 239.538843 111.652364 
L 240.153719 111.059345 
L 241.383471 110.268655 
L 241.998347 109.675636 
L 243.228099 108.884945 
L 243.842975 108.291927 
L 245.072727 107.501236 
L 245.687603 106.908218 
L 246.302479 106.512873 
L 246.917355 105.919855 
L 248.147107 105.129164 
L 248.761983 104.536145 
L 249.991736 103.745455 
L 250.606612 103.152436 
L 251.836364 102.361745 
L 252.45124 101.768727 
L 253.680992 100.978036 
L 254.295868 100.385018 
L 255.52562 99.594327 
L 256.140496 99.001309 
L 256.755372 98.605964 
L 257.370248 98.012945 
L 258.6 97.222255 
L 259.214876 96.629236 
L 259.829752 96.233891 
L 260.444628 95.640873 
L 261.059504 95.245527 
L 261.67438 94.652509 
L 262.289256 94.257164 
L 262.904132 93.664145 
L 265.978512 91.687418 
L 266.593388 91.0944 
L 268.438017 89.908364 
L 269.052893 89.315345 
L 270.897521 88.129309 
L 271.512397 87.536291 
L 272.742149 86.7456 
L 273.357025 86.152582 
L 277.046281 83.780509 
L 277.661157 83.187491 
L 278.890909 82.3968 
L 279.505785 81.803782 
L 280.735537 81.013091 
L 281.350413 80.420073 
L 281.965289 80.024727 
L 282.580165 79.431709 
L 284.424793 78.245673 
L 285.039669 77.652655 
L 286.269421 76.861964 
L 286.884298 76.268945 
L 287.499174 76.071273 
L 290.573554 73.106182 
L 291.18843 72.908509 
L 291.803306 74.885236 
L 292.418182 75.280582 
L 293.033058 75.8736 
L 293.647934 76.268945 
L 294.877686 77.454982 
L 296.107438 76.664291 
L 296.722314 76.071273 
L 297.33719 75.675927 
L 297.952066 78.048 
L 298.566942 78.443345 
L 299.181818 79.036364 
L 299.796694 79.431709 
L 301.026446 80.617745 
L 301.641322 81.013091 
L 302.256198 80.420073 
L 302.871074 80.024727 
L 303.48595 79.431709 
L 304.100826 79.036364 
L 304.715702 79.234036 
L 305.330579 81.408436 
L 305.945455 82.001455 
L 306.560331 82.199127 
L 307.175207 82.199127 
L 307.790083 81.606109 
L 308.404959 81.210764 
L 309.019835 80.617745 
L 309.634711 82.989818 
L 310.249587 83.582836 
L 311.479339 84.373527 
L 312.094215 84.175855 
L 312.709091 83.780509 
L 313.323967 83.187491 
L 313.938843 82.792145 
L 314.553719 82.989818 
L 315.168595 84.175855 
L 316.398347 85.757236 
L 317.628099 86.943273 
L 318.242975 87.338618 
L 318.857851 87.931636 
L 320.087603 88.722327 
L 320.702479 88.129309 
L 321.932231 87.338618 
L 322.547107 86.7456 
L 323.161983 86.7456 
L 323.77686 87.338618 
L 325.006612 89.513018 
L 325.621488 90.106036 
L 326.236364 90.501382 
L 326.85124 91.0944 
L 327.466116 91.489745 
L 328.080992 92.082764 
L 328.695868 92.478109 
L 329.310744 93.466473 
L 329.92562 93.861818 
L 330.540496 94.454836 
L 331.155372 94.454836 
L 333 92.675782 
L 333.614876 93.071127 
L 334.229752 93.861818 
L 334.844628 94.850182 
L 336.07438 96.036218 
L 336.689256 96.233891 
L 337.304132 95.640873 
L 337.919008 95.245527 
L 338.533884 94.652509 
L 339.14876 95.245527 
L 340.993388 97.6176 
L 342.838017 98.803636 
L 343.452893 98.605964 
L 344.067769 98.012945 
L 344.682645 97.6176 
L 345.297521 97.419927 
L 345.912397 98.210618 
L 346.527273 99.198982 
L 347.757025 100.385018 
L 348.371901 100.780364 
L 348.986777 101.373382 
L 349.601653 100.978036 
L 350.216529 100.978036 
L 350.831405 101.373382 
L 351.446281 101.9664 
L 352.061157 102.361745 
L 352.676033 101.9664 
L 353.290909 101.373382 
L 354.520661 100.582691 
L 355.135537 100.385018 
L 355.750413 100.978036 
L 356.980165 102.559418 
L 358.209917 103.745455 
L 359.439669 103.745455 
L 360.054545 103.547782 
L 360.669421 102.954764 
L 361.284298 102.559418 
L 361.899174 101.9664 
L 363.743802 100.780364 
L 364.358678 100.187345 
L 364.973554 242.116364 
L 373.581818 242.116364 
L 373.581818 242.116364 
" style="fill:none;stroke:#1f77b4;stroke-linecap:square;stroke-width:1.5;"/>
   </g>
   <g id="line2d_14">
    <path clip-path="url(#p8e8665c0b6)" d="M 69.218182 44.443636 
L 71.06281 44.443636 
L 71.677686 56.699345 
L 72.907438 56.699345 
L 73.522314 44.443636 
L 75.366942 44.443636 
L 75.981818 56.699345 
L 76.596694 56.699345 
L 77.21157 44.443636 
L 79.671074 44.443636 
L 80.28595 56.699345 
L 82.130579 56.699345 
L 82.745455 44.443636 
L 84.590083 44.443636 
L 85.204959 56.699345 
L 85.819835 56.699345 
L 86.434711 44.443636 
L 90.123967 44.443636 
L 90.738843 56.699345 
L 91.353719 44.443636 
L 91.968595 56.699345 
L 92.583471 44.443636 
L 93.813223 44.443636 
L 94.428099 56.699345 
L 95.042975 44.443636 
L 98.732231 44.443636 
L 99.347107 56.699345 
L 99.961983 56.699345 
L 100.57686 44.443636 
L 101.806612 44.443636 
L 102.421488 56.699345 
L 103.036364 56.699345 
L 103.65124 44.443636 
L 104.266116 44.443636 
L 104.880992 56.699345 
L 105.495868 44.443636 
L 107.340496 44.443636 
L 107.955372 56.699345 
L 108.570248 56.699345 
L 109.185124 44.443636 
L 110.414876 44.443636 
L 111.029752 56.699345 
L 111.644628 56.699345 
L 112.259504 44.443636 
L 113.489256 44.443636 
L 114.104132 56.699345 
L 114.719008 56.699345 
L 115.333884 44.443636 
L 119.02314 44.443636 
L 119.638017 56.699345 
L 120.252893 56.699345 
L 120.867769 44.443636 
L 121.482645 56.699345 
L 122.097521 44.443636 
L 122.712397 56.699345 
L 123.327273 56.699345 
L 123.942149 44.443636 
L 125.171901 44.443636 
L 125.786777 56.699345 
L 127.016529 56.699345 
L 127.631405 44.443636 
L 129.476033 44.443636 
L 130.090909 56.699345 
L 131.320661 56.699345 
L 131.935537 44.443636 
L 132.550413 56.699345 
L 133.780165 56.699345 
L 134.395041 44.443636 
L 135.624793 44.443636 
L 136.239669 56.699345 
L 136.854545 56.699345 
L 137.469421 44.443636 
L 140.543802 44.443636 
L 141.158678 56.699345 
L 141.773554 44.443636 
L 144.847934 44.443636 
L 145.46281 56.699345 
L 146.077686 44.443636 
L 146.692562 56.699345 
L 147.307438 44.443636 
L 147.922314 44.443636 
L 148.53719 56.699345 
L 149.152066 44.443636 
L 149.766942 56.699345 
L 150.996694 56.699345 
L 151.61157 44.443636 
L 152.226446 56.699345 
L 152.841322 44.443636 
L 153.456198 44.443636 
L 154.071074 57.687709 
L 154.68595 56.699345 
L 155.300826 44.443636 
L 155.915702 44.443636 
L 156.530579 56.699345 
L 157.145455 44.443636 
L 158.990083 44.443636 
L 159.604959 56.699345 
L 160.219835 44.443636 
L 161.449587 44.443636 
L 162.064463 56.699345 
L 162.679339 44.443636 
L 163.294215 44.443636 
L 163.909091 56.699345 
L 164.523967 44.443636 
L 165.138843 44.443636 
L 165.753719 56.699345 
L 166.368595 44.443636 
L 166.983471 44.443636 
L 167.598347 56.699345 
L 168.213223 44.443636 
L 168.828099 44.443636 
L 169.442975 56.699345 
L 170.057851 44.443636 
L 173.747107 44.443636 
L 174.361983 56.699345 
L 174.97686 44.443636 
L 175.591736 56.699345 
L 176.206612 44.443636 
L 176.821488 44.443636 
L 177.436364 56.699345 
L 178.05124 44.443636 
L 178.666116 44.443636 
L 179.280992 56.699345 
L 179.895868 56.699345 
L 180.510744 44.443636 
L 183.585124 44.443636 
L 184.2 56.699345 
L 184.814876 44.443636 
L 185.429752 44.443636 
L 186.044628 56.699345 
L 186.659504 44.443636 
L 187.27438 56.699345 
L 187.889256 44.443636 
L 188.504132 44.443636 
L 189.119008 56.699345 
L 189.733884 56.699345 
L 190.34876 44.443636 
L 190.963636 56.699345 
L 191.578512 44.443636 
L 192.193388 44.443636 
L 192.808264 56.699345 
L 193.42314 56.699345 
L 194.038017 44.443636 
L 194.652893 56.699345 
L 195.267769 56.699345 
L 195.882645 44.443636 
L 198.957025 44.443636 
L 199.571901 56.699345 
L 200.186777 44.443636 
L 201.416529 44.443636 
L 202.031405 56.699345 
L 202.646281 44.443636 
L 203.261157 56.699345 
L 203.876033 44.443636 
L 204.490909 56.699345 
L 205.105785 56.699345 
L 205.720661 44.443636 
L 206.335537 56.699345 
L 206.950413 56.699345 
L 207.565289 44.443636 
L 208.795041 44.443636 
L 209.409917 56.699345 
L 210.024793 56.699345 
L 210.639669 44.443636 
L 211.254545 56.699345 
L 211.869421 56.699345 
L 212.484298 44.443636 
L 213.099174 56.699345 
L 213.71405 44.443636 
L 215.558678 44.443636 
L 216.173554 56.699345 
L 216.78843 44.443636 
L 218.633058 44.443636 
L 219.247934 69.152727 
L 219.86281 44.443636 
L 220.477686 56.699345 
L 221.092562 44.443636 
L 221.707438 56.699345 
L 222.322314 44.443636 
L 224.166942 44.443636 
L 224.781818 56.699345 
L 225.396694 44.443636 
L 231.545455 44.443636 
L 232.160331 56.699345 
L 232.775207 56.699345 
L 233.390083 44.443636 
L 234.004959 56.699345 
L 234.619835 44.443636 
L 235.849587 44.443636 
L 236.464463 56.699345 
L 237.079339 56.699345 
L 237.694215 44.443636 
L 238.309091 56.699345 
L 238.923967 44.443636 
L 243.228099 44.443636 
L 243.842975 56.699345 
L 244.457851 44.443636 
L 245.072727 56.699345 
L 245.687603 44.443636 
L 247.532231 44.443636 
L 248.147107 56.699345 
L 248.761983 56.699345 
L 249.37686 44.443636 
L 251.221488 44.443636 
L 251.836364 57.687709 
L 252.45124 56.699345 
L 253.066116 56.699345 
L 253.680992 44.443636 
L 254.910744 44.443636 
L 255.52562 56.699345 
L 256.140496 56.699345 
L 256.755372 44.443636 
L 258.6 44.443636 
L 259.214876 56.699345 
L 259.829752 44.443636 
L 261.67438 44.443636 
L 262.289256 56.699345 
L 262.904132 44.443636 
L 263.519008 56.699345 
L 264.133884 44.443636 
L 274.586777 44.443636 
L 275.201653 56.699345 
L 275.816529 44.443636 
L 276.431405 56.699345 
L 277.046281 56.699345 
L 277.661157 44.443636 
L 278.276033 44.443636 
L 278.890909 69.152727 
L 279.505785 44.443636 
L 284.424793 44.443636 
L 285.039669 69.152727 
L 286.269421 44.443636 
L 286.884298 56.699345 
L 287.499174 44.443636 
L 291.18843 44.443636 
L 291.803306 139.919564 
L 292.418182 56.699345 
L 293.033058 44.443636 
L 294.26281 44.443636 
L 294.877686 56.699345 
L 295.492562 44.443636 
L 296.107438 44.443636 
L 296.722314 56.699345 
L 297.33719 44.443636 
L 297.952066 66.978327 
L 298.566942 56.699345 
L 299.181818 44.443636 
L 299.796694 56.699345 
L 300.41157 56.699345 
L 301.026446 44.443636 
L 301.641322 56.699345 
L 302.256198 56.699345 
L 302.871074 44.443636 
L 303.48595 56.699345 
L 304.715702 56.699345 
L 305.330579 44.443636 
L 305.945455 56.699345 
L 306.560331 56.699345 
L 307.175207 44.443636 
L 309.019835 44.443636 
L 309.634711 74.885236 
L 310.249587 56.699345 
L 310.864463 56.699345 
L 311.479339 44.443636 
L 312.094215 56.699345 
L 312.709091 56.699345 
L 313.323967 44.443636 
L 314.553719 44.443636 
L 315.168595 56.106327 
L 315.783471 44.443636 
L 316.398347 44.443636 
L 317.013223 56.699345 
L 317.628099 44.443636 
L 318.242975 56.699345 
L 318.857851 56.699345 
L 319.472727 44.443636 
L 320.087603 44.443636 
L 320.702479 56.699345 
L 321.317355 44.443636 
L 322.547107 44.443636 
L 323.77686 67.769018 
L 324.391736 44.443636 
L 325.621488 44.443636 
L 326.85124 69.152727 
L 327.466116 56.699345 
L 328.695868 56.699345 
L 329.310744 69.152727 
L 329.92562 44.443636 
L 333 44.443636 
L 333.614876 56.699345 
L 334.229752 56.699345 
L 334.844628 44.443636 
L 336.07438 69.152727 
L 336.689256 56.699345 
L 337.304132 56.699345 
L 337.919008 44.443636 
L 339.763636 44.443636 
L 340.378512 56.106327 
L 340.993388 44.443636 
L 341.608264 44.443636 
L 342.22314 56.699345 
L 342.838017 44.443636 
L 345.297521 44.443636 
L 345.912397 67.769018 
L 346.527273 56.699345 
L 347.142149 69.152727 
L 347.757025 44.443636 
L 348.371901 56.699345 
L 348.986777 56.699345 
L 349.601653 44.443636 
L 350.831405 44.443636 
L 351.446281 56.699345 
L 352.061157 44.443636 
L 352.676033 44.443636 
L 353.290909 56.699345 
L 353.905785 44.443636 
L 354.520661 56.699345 
L 355.135537 44.443636 
L 355.750413 44.443636 
L 356.365289 56.699345 
L 356.980165 56.699345 
L 357.595041 44.443636 
L 358.209917 56.699345 
L 358.824793 44.443636 
L 359.439669 56.699345 
L 360.054545 44.443636 
L 361.284298 44.443636 
L 361.899174 56.699345 
L 362.51405 44.443636 
L 364.358678 44.443636 
L 364.973554 165.221673 
L 365.58843 44.443636 
L 367.433058 44.443636 
L 368.047934 242.116364 
L 373.581818 242.116364 
L 373.581818 242.116364 
" style="fill:none;stroke:#ff7f0e;stroke-linecap:square;stroke-width:1.5;"/>
   </g>
   <g id="patch_3">
    <path d="M 54 252 
L 54 34.56 
" style="fill:none;stroke:#000000;stroke-linecap:square;stroke-linejoin:miter;stroke-width:0.8;"/>
   </g>
   <g id="patch_4">
    <path d="M 388.8 252 
L 388.8 34.56 
" style="fill:none;stroke:#000000;stroke-linecap:square;stroke-linejoin:miter;stroke-width:0.8;"/>
   </g>
   <g id="patch_5">
    <path d="M 54 252 
L 388.8 252 
" style="fill:none;stroke:#000000;stroke-linecap:square;stroke-linejoin:miter;stroke-width:0.8;"/>
   </g>
   <g id="patch_6">
    <path d="M 54 34.56 
L 388.8 34.56 
" style="fill:none;stroke:#000000;stroke-linecap:square;stroke-linejoin:miter;stroke-width:0.8;"/>
   </g>
   <g id="legend_1">
    <g id="patch_7">
     <path d="M 61 159.458125 
L 116.575 159.458125 
Q 118.575 159.458125 118.575 157.458125 
L 118.575 129.101875 
Q 118.575 127.101875 116.575 127.101875 
L 61 127.101875 
Q 59 127.101875 59 129.101875 
L 59 157.458125 
Q 59 159.458125 61 159.458125 
z
" style="fill:#ffffff;opacity:0.8;stroke:#cccccc;stroke-linejoin:miter;"/>
    </g>
    <g id="line2d_15">
     <path d="M 63 135.200312 
L 83 135.200312 
" style="fill:none;stroke:#1f77b4;stroke-linecap:square;stroke-width:1.5;"/>
    </g>
    <g id="line2d_16"/>
    <g id="text_13">
     <!-- MEM -->
     <g transform="translate(91 138.700312)scale(0.1 -0.1)">
      <defs>
       <path d="M 9.8125 72.90625 
L 24.515625 72.90625 
L 43.109375 23.296875 
L 61.8125 72.90625 
L 76.515625 72.90625 
L 76.515625 0 
L 66.890625 0 
L 66.890625 64.015625 
L 48.09375 14.015625 
L 38.1875 14.015625 
L 19.390625 64.015625 
L 19.390625 0 
L 9.8125 0 
z
" id="DejaVuSans-77"/>
       <path d="M 9.8125 72.90625 
L 55.90625 72.90625 
L 55.90625 64.59375 
L 19.671875 64.59375 
L 19.671875 43.015625 
L 54.390625 43.015625 
L 54.390625 34.71875 
L 19.671875 34.71875 
L 19.671875 8.296875 
L 56.78125 8.296875 
L 56.78125 0 
L 9.8125 0 
z
" id="DejaVuSans-69"/>
      </defs>
      <use xlink:href="#DejaVuSans-77"/>
      <use x="86.279297" xlink:href="#DejaVuSans-69"/>
      <use x="149.462891" xlink:href="#DejaVuSans-77"/>
     </g>
    </g>
    <g id="line2d_17">
     <path d="M 63 149.878437 
L 83 149.878437 
" style="fill:none;stroke:#ff7f0e;stroke-linecap:square;stroke-width:1.5;"/>
    </g>
    <g id="line2d_18"/>
    <g id="text_14">
     <!-- CPU -->
     <g transform="translate(91 153.378437)scale(0.1 -0.1)">
      <defs>
       <path d="M 64.40625 67.28125 
L 64.40625 56.890625 
Q 59.421875 61.53125 53.78125 63.8125 
Q 48.140625 66.109375 41.796875 66.109375 
Q 29.296875 66.109375 22.65625 58.46875 
Q 16.015625 50.828125 16.015625 36.375 
Q 16.015625 21.96875 22.65625 14.328125 
Q 29.296875 6.6875 41.796875 6.6875 
Q 48.140625 6.6875 53.78125 8.984375 
Q 59.421875 11.28125 64.40625 15.921875 
L 64.40625 5.609375 
Q 59.234375 2.09375 53.4375 0.328125 
Q 47.65625 -1.421875 41.21875 -1.421875 
Q 24.65625 -1.421875 15.125 8.703125 
Q 5.609375 18.84375 5.609375 36.375 
Q 5.609375 53.953125 15.125 64.078125 
Q 24.65625 74.21875 41.21875 74.21875 
Q 47.75 74.21875 53.53125 72.484375 
Q 59.328125 70.75 64.40625 67.28125 
z
" id="DejaVuSans-67"/>
       <path d="M 19.671875 64.796875 
L 19.671875 37.40625 
L 32.078125 37.40625 
Q 38.96875 37.40625 42.71875 40.96875 
Q 46.484375 44.53125 46.484375 51.125 
Q 46.484375 57.671875 42.71875 61.234375 
Q 38.96875 64.796875 32.078125 64.796875 
z
M 9.8125 72.90625 
L 32.078125 72.90625 
Q 44.34375 72.90625 50.609375 67.359375 
Q 56.890625 61.8125 56.890625 51.125 
Q 56.890625 40.328125 50.609375 34.8125 
Q 44.34375 29.296875 32.078125 29.296875 
L 19.671875 29.296875 
L 19.671875 0 
L 9.8125 0 
z
" id="DejaVuSans-80"/>
       <path d="M 8.6875 72.90625 
L 18.609375 72.90625 
L 18.609375 28.609375 
Q 18.609375 16.890625 22.84375 11.734375 
Q 27.09375 6.59375 36.625 6.59375 
Q 46.09375 6.59375 50.34375 11.734375 
Q 54.59375 16.890625 54.59375 28.609375 
L 54.59375 72.90625 
L 64.5 72.90625 
L 64.5 27.390625 
Q 64.5 13.140625 57.4375 5.859375 
Q 50.390625 -1.421875 36.625 -1.421875 
Q 22.796875 -1.421875 15.734375 5.859375 
Q 8.6875 13.140625 8.6875 27.390625 
z
" id="DejaVuSans-85"/>
      </defs>
      <use xlink:href="#DejaVuSans-67"/>
      <use x="69.824219" xlink:href="#DejaVuSans-80"/>
      <use x="130.126953" xlink:href="#DejaVuSans-85"/>
     </g>
    </g>
   </g>
  </g>
 </g>
 <defs>
  <clipPath id="p8e8665c0b6">
   <rect height="217.44" width="334.8" x="54" y="34.56"/>
  </clipPath>
 </defs>
</svg>
