<?xml version="1.0" encoding="utf-8" standalone="no"?>
<!DOCTYPE svg PUBLIC "-//W3C//DTD SVG 1.1//EN"
  "http://www.w3.org/Graphics/SVG/1.1/DTD/svg11.dtd">
<!-- Created with matplotlib (https://matplotlib.org/) -->
<svg height="288pt" version="1.1" viewBox="0 0 432 288" width="432pt" xmlns="http://www.w3.org/2000/svg" xmlns:xlink="http://www.w3.org/1999/xlink">
 <metadata>
  <rdf:RDF xmlns:cc="http://creativecommons.org/ns#" xmlns:dc="http://purl.org/dc/elements/1.1/" xmlns:rdf="http://www.w3.org/1999/02/22-rdf-syntax-ns#">
   <cc:Work>
    <dc:type rdf:resource="http://purl.org/dc/dcmitype/StillImage"/>
    <dc:date>2020-11-23T23:38:54.614311</dc:date>
    <dc:format>image/svg+xml</dc:format>
    <dc:creator>
     <cc:Agent>
      <dc:title>Matplotlib v3.3.0, https://matplotlib.org/</dc:title>
     </cc:Agent>
    </dc:creator>
   </cc:Work>
  </rdf:RDF>
 </metadata>
 <defs>
  <style type="text/css">*{stroke-linecap:butt;stroke-linejoin:round;}</style>
 </defs>
 <g id="figure_1">
  <g id="patch_1">
   <path d="M 0 288 
L 432 288 
L 432 0 
L 0 0 
z
" style="fill:none;"/>
  </g>
  <g id="axes_1">
   <g id="patch_2">
    <path d="M 54 252 
L 388.8 252 
L 388.8 34.56 
L 54 34.56 
z
" style="fill:#ffffff;"/>
   </g>
   <g id="matplotlib.axis_1">
    <g id="xtick_1">
     <g id="line2d_1">
      <defs>
       <path d="M 0 0 
L 0 3.5 
" id="m8cdc7ecf70" style="stroke:#000000;stroke-width:0.8;"/>
      </defs>
      <g>
       <use style="stroke:#000000;stroke-width:0.8;" x="69.218182" xlink:href="#m8cdc7ecf70" y="252"/>
      </g>
     </g>
     <g id="text_1">
      <!-- 0 -->
      <g transform="translate(66.036932 266.598437)scale(0.1 -0.1)">
       <defs>
        <path d="M 31.78125 66.40625 
Q 24.171875 66.40625 20.328125 58.90625 
Q 16.5 51.421875 16.5 36.375 
Q 16.5 21.390625 20.328125 13.890625 
Q 24.171875 6.390625 31.78125 6.390625 
Q 39.453125 6.390625 43.28125 13.890625 
Q 47.125 21.390625 47.125 36.375 
Q 47.125 51.421875 43.28125 58.90625 
Q 39.453125 66.40625 31.78125 66.40625 
z
M 31.78125 74.21875 
Q 44.046875 74.21875 50.515625 64.515625 
Q 56.984375 54.828125 56.984375 36.375 
Q 56.984375 17.96875 50.515625 8.265625 
Q 44.046875 -1.421875 31.78125 -1.421875 
Q 19.53125 -1.421875 13.0625 8.265625 
Q 6.59375 17.96875 6.59375 36.375 
Q 6.59375 54.828125 13.0625 64.515625 
Q 19.53125 74.21875 31.78125 74.21875 
z
" id="DejaVuSans-48"/>
       </defs>
       <use xlink:href="#DejaVuSans-48"/>
      </g>
     </g>
    </g>
    <g id="xtick_2">
     <g id="line2d_2">
      <g>
       <use style="stroke:#000000;stroke-width:0.8;" x="131.844444" xlink:href="#m8cdc7ecf70" y="252"/>
      </g>
     </g>
     <g id="text_2">
      <!-- 100 -->
      <g transform="translate(122.300694 266.598437)scale(0.1 -0.1)">
       <defs>
        <path d="M 12.40625 8.296875 
L 28.515625 8.296875 
L 28.515625 63.921875 
L 10.984375 60.40625 
L 10.984375 69.390625 
L 28.421875 72.90625 
L 38.28125 72.90625 
L 38.28125 8.296875 
L 54.390625 8.296875 
L 54.390625 0 
L 12.40625 0 
z
" id="DejaVuSans-49"/>
       </defs>
       <use xlink:href="#DejaVuSans-49"/>
       <use x="63.623047" xlink:href="#DejaVuSans-48"/>
       <use x="127.246094" xlink:href="#DejaVuSans-48"/>
      </g>
     </g>
    </g>
    <g id="xtick_3">
     <g id="line2d_3">
      <g>
       <use style="stroke:#000000;stroke-width:0.8;" x="194.470707" xlink:href="#m8cdc7ecf70" y="252"/>
      </g>
     </g>
     <g id="text_3">
      <!-- 200 -->
      <g transform="translate(184.926957 266.598437)scale(0.1 -0.1)">
       <defs>
        <path d="M 19.1875 8.296875 
L 53.609375 8.296875 
L 53.609375 0 
L 7.328125 0 
L 7.328125 8.296875 
Q 12.9375 14.109375 22.625 23.890625 
Q 32.328125 33.6875 34.8125 36.53125 
Q 39.546875 41.84375 41.421875 45.53125 
Q 43.3125 49.21875 43.3125 52.78125 
Q 43.3125 58.59375 39.234375 62.25 
Q 35.15625 65.921875 28.609375 65.921875 
Q 23.96875 65.921875 18.8125 64.3125 
Q 13.671875 62.703125 7.8125 59.421875 
L 7.8125 69.390625 
Q 13.765625 71.78125 18.9375 73 
Q 24.125 74.21875 28.421875 74.21875 
Q 39.75 74.21875 46.484375 68.546875 
Q 53.21875 62.890625 53.21875 53.421875 
Q 53.21875 48.921875 51.53125 44.890625 
Q 49.859375 40.875 45.40625 35.40625 
Q 44.1875 33.984375 37.640625 27.21875 
Q 31.109375 20.453125 19.1875 8.296875 
z
" id="DejaVuSans-50"/>
       </defs>
       <use xlink:href="#DejaVuSans-50"/>
       <use x="63.623047" xlink:href="#DejaVuSans-48"/>
       <use x="127.246094" xlink:href="#DejaVuSans-48"/>
      </g>
     </g>
    </g>
    <g id="xtick_4">
     <g id="line2d_4">
      <g>
       <use style="stroke:#000000;stroke-width:0.8;" x="257.09697" xlink:href="#m8cdc7ecf70" y="252"/>
      </g>
     </g>
     <g id="text_4">
      <!-- 300 -->
      <g transform="translate(247.55322 266.598437)scale(0.1 -0.1)">
       <defs>
        <path d="M 40.578125 39.3125 
Q 47.65625 37.796875 51.625 33 
Q 55.609375 28.21875 55.609375 21.1875 
Q 55.609375 10.40625 48.1875 4.484375 
Q 40.765625 -1.421875 27.09375 -1.421875 
Q 22.515625 -1.421875 17.65625 -0.515625 
Q 12.796875 0.390625 7.625 2.203125 
L 7.625 11.71875 
Q 11.71875 9.328125 16.59375 8.109375 
Q 21.484375 6.890625 26.8125 6.890625 
Q 36.078125 6.890625 40.9375 10.546875 
Q 45.796875 14.203125 45.796875 21.1875 
Q 45.796875 27.640625 41.28125 31.265625 
Q 36.765625 34.90625 28.71875 34.90625 
L 20.21875 34.90625 
L 20.21875 43.015625 
L 29.109375 43.015625 
Q 36.375 43.015625 40.234375 45.921875 
Q 44.09375 48.828125 44.09375 54.296875 
Q 44.09375 59.90625 40.109375 62.90625 
Q 36.140625 65.921875 28.71875 65.921875 
Q 24.65625 65.921875 20.015625 65.03125 
Q 15.375 64.15625 9.8125 62.3125 
L 9.8125 71.09375 
Q 15.4375 72.65625 20.34375 73.4375 
Q 25.25 74.21875 29.59375 74.21875 
Q 40.828125 74.21875 47.359375 69.109375 
Q 53.90625 64.015625 53.90625 55.328125 
Q 53.90625 49.265625 50.4375 45.09375 
Q 46.96875 40.921875 40.578125 39.3125 
z
" id="DejaVuSans-51"/>
       </defs>
       <use xlink:href="#DejaVuSans-51"/>
       <use x="63.623047" xlink:href="#DejaVuSans-48"/>
       <use x="127.246094" xlink:href="#DejaVuSans-48"/>
      </g>
     </g>
    </g>
    <g id="xtick_5">
     <g id="line2d_5">
      <g>
       <use style="stroke:#000000;stroke-width:0.8;" x="319.723232" xlink:href="#m8cdc7ecf70" y="252"/>
      </g>
     </g>
     <g id="text_5">
      <!-- 400 -->
      <g transform="translate(310.179482 266.598437)scale(0.1 -0.1)">
       <defs>
        <path d="M 37.796875 64.3125 
L 12.890625 25.390625 
L 37.796875 25.390625 
z
M 35.203125 72.90625 
L 47.609375 72.90625 
L 47.609375 25.390625 
L 58.015625 25.390625 
L 58.015625 17.1875 
L 47.609375 17.1875 
L 47.609375 0 
L 37.796875 0 
L 37.796875 17.1875 
L 4.890625 17.1875 
L 4.890625 26.703125 
z
" id="DejaVuSans-52"/>
       </defs>
       <use xlink:href="#DejaVuSans-52"/>
       <use x="63.623047" xlink:href="#DejaVuSans-48"/>
       <use x="127.246094" xlink:href="#DejaVuSans-48"/>
      </g>
     </g>
    </g>
    <g id="xtick_6">
     <g id="line2d_6">
      <g>
       <use style="stroke:#000000;stroke-width:0.8;" x="382.349495" xlink:href="#m8cdc7ecf70" y="252"/>
      </g>
     </g>
     <g id="text_6">
      <!-- 500 -->
      <g transform="translate(372.805745 266.598437)scale(0.1 -0.1)">
       <defs>
        <path d="M 10.796875 72.90625 
L 49.515625 72.90625 
L 49.515625 64.59375 
L 19.828125 64.59375 
L 19.828125 46.734375 
Q 21.96875 47.46875 24.109375 47.828125 
Q 26.265625 48.1875 28.421875 48.1875 
Q 40.625 48.1875 47.75 41.5 
Q 54.890625 34.8125 54.890625 23.390625 
Q 54.890625 11.625 47.5625 5.09375 
Q 40.234375 -1.421875 26.90625 -1.421875 
Q 22.3125 -1.421875 17.546875 -0.640625 
Q 12.796875 0.140625 7.71875 1.703125 
L 7.71875 11.625 
Q 12.109375 9.234375 16.796875 8.0625 
Q 21.484375 6.890625 26.703125 6.890625 
Q 35.15625 6.890625 40.078125 11.328125 
Q 45.015625 15.765625 45.015625 23.390625 
Q 45.015625 31 40.078125 35.4375 
Q 35.15625 39.890625 26.703125 39.890625 
Q 22.75 39.890625 18.8125 39.015625 
Q 14.890625 38.140625 10.796875 36.28125 
z
" id="DejaVuSans-53"/>
       </defs>
       <use xlink:href="#DejaVuSans-53"/>
       <use x="63.623047" xlink:href="#DejaVuSans-48"/>
       <use x="127.246094" xlink:href="#DejaVuSans-48"/>
      </g>
     </g>
    </g>
   </g>
   <g id="matplotlib.axis_2">
    <g id="ytick_1">
     <g id="line2d_7">
      <defs>
       <path d="M 0 0 
L -3.5 0 
" id="m74144f841b" style="stroke:#000000;stroke-width:0.8;"/>
      </defs>
      <g>
       <use style="stroke:#000000;stroke-width:0.8;" x="54" xlink:href="#m74144f841b" y="242.116364"/>
      </g>
     </g>
     <g id="text_7">
      <!-- 0 -->
      <g transform="translate(40.6375 245.915582)scale(0.1 -0.1)">
       <use xlink:href="#DejaVuSans-48"/>
      </g>
     </g>
    </g>
    <g id="ytick_2">
     <g id="line2d_8">
      <g>
       <use style="stroke:#000000;stroke-width:0.8;" x="54" xlink:href="#m74144f841b" y="202.581818"/>
      </g>
     </g>
     <g id="text_8">
      <!-- 20 -->
      <g transform="translate(34.275 206.381037)scale(0.1 -0.1)">
       <use xlink:href="#DejaVuSans-50"/>
       <use x="63.623047" xlink:href="#DejaVuSans-48"/>
      </g>
     </g>
    </g>
    <g id="ytick_3">
     <g id="line2d_9">
      <g>
       <use style="stroke:#000000;stroke-width:0.8;" x="54" xlink:href="#m74144f841b" y="163.047273"/>
      </g>
     </g>
     <g id="text_9">
      <!-- 40 -->
      <g transform="translate(34.275 166.846491)scale(0.1 -0.1)">
       <use xlink:href="#DejaVuSans-52"/>
       <use x="63.623047" xlink:href="#DejaVuSans-48"/>
      </g>
     </g>
    </g>
    <g id="ytick_4">
     <g id="line2d_10">
      <g>
       <use style="stroke:#000000;stroke-width:0.8;" x="54" xlink:href="#m74144f841b" y="123.512727"/>
      </g>
     </g>
     <g id="text_10">
      <!-- 60 -->
      <g transform="translate(34.275 127.311946)scale(0.1 -0.1)">
       <defs>
        <path d="M 33.015625 40.375 
Q 26.375 40.375 22.484375 35.828125 
Q 18.609375 31.296875 18.609375 23.390625 
Q 18.609375 15.53125 22.484375 10.953125 
Q 26.375 6.390625 33.015625 6.390625 
Q 39.65625 6.390625 43.53125 10.953125 
Q 47.40625 15.53125 47.40625 23.390625 
Q 47.40625 31.296875 43.53125 35.828125 
Q 39.65625 40.375 33.015625 40.375 
z
M 52.59375 71.296875 
L 52.59375 62.3125 
Q 48.875 64.0625 45.09375 64.984375 
Q 41.3125 65.921875 37.59375 65.921875 
Q 27.828125 65.921875 22.671875 59.328125 
Q 17.53125 52.734375 16.796875 39.40625 
Q 19.671875 43.65625 24.015625 45.921875 
Q 28.375 48.1875 33.59375 48.1875 
Q 44.578125 48.1875 50.953125 41.515625 
Q 57.328125 34.859375 57.328125 23.390625 
Q 57.328125 12.15625 50.6875 5.359375 
Q 44.046875 -1.421875 33.015625 -1.421875 
Q 20.359375 -1.421875 13.671875 8.265625 
Q 6.984375 17.96875 6.984375 36.375 
Q 6.984375 53.65625 15.1875 63.9375 
Q 23.390625 74.21875 37.203125 74.21875 
Q 40.921875 74.21875 44.703125 73.484375 
Q 48.484375 72.75 52.59375 71.296875 
z
" id="DejaVuSans-54"/>
       </defs>
       <use xlink:href="#DejaVuSans-54"/>
       <use x="63.623047" xlink:href="#DejaVuSans-48"/>
      </g>
     </g>
    </g>
    <g id="ytick_5">
     <g id="line2d_11">
      <g>
       <use style="stroke:#000000;stroke-width:0.8;" x="54" xlink:href="#m74144f841b" y="83.978182"/>
      </g>
     </g>
     <g id="text_11">
      <!-- 80 -->
      <g transform="translate(34.275 87.777401)scale(0.1 -0.1)">
       <defs>
        <path d="M 31.78125 34.625 
Q 24.75 34.625 20.71875 30.859375 
Q 16.703125 27.09375 16.703125 20.515625 
Q 16.703125 13.921875 20.71875 10.15625 
Q 24.75 6.390625 31.78125 6.390625 
Q 38.8125 6.390625 42.859375 10.171875 
Q 46.921875 13.96875 46.921875 20.515625 
Q 46.921875 27.09375 42.890625 30.859375 
Q 38.875 34.625 31.78125 34.625 
z
M 21.921875 38.8125 
Q 15.578125 40.375 12.03125 44.71875 
Q 8.5 49.078125 8.5 55.328125 
Q 8.5 64.0625 14.71875 69.140625 
Q 20.953125 74.21875 31.78125 74.21875 
Q 42.671875 74.21875 48.875 69.140625 
Q 55.078125 64.0625 55.078125 55.328125 
Q 55.078125 49.078125 51.53125 44.71875 
Q 48 40.375 41.703125 38.8125 
Q 48.828125 37.15625 52.796875 32.3125 
Q 56.78125 27.484375 56.78125 20.515625 
Q 56.78125 9.90625 50.3125 4.234375 
Q 43.84375 -1.421875 31.78125 -1.421875 
Q 19.734375 -1.421875 13.25 4.234375 
Q 6.78125 9.90625 6.78125 20.515625 
Q 6.78125 27.484375 10.78125 32.3125 
Q 14.796875 37.15625 21.921875 38.8125 
z
M 18.3125 54.390625 
Q 18.3125 48.734375 21.84375 45.5625 
Q 25.390625 42.390625 31.78125 42.390625 
Q 38.140625 42.390625 41.71875 45.5625 
Q 45.3125 48.734375 45.3125 54.390625 
Q 45.3125 60.0625 41.71875 63.234375 
Q 38.140625 66.40625 31.78125 66.40625 
Q 25.390625 66.40625 21.84375 63.234375 
Q 18.3125 60.0625 18.3125 54.390625 
z
" id="DejaVuSans-56"/>
       </defs>
       <use xlink:href="#DejaVuSans-56"/>
       <use x="63.623047" xlink:href="#DejaVuSans-48"/>
      </g>
     </g>
    </g>
    <g id="ytick_6">
     <g id="line2d_12">
      <g>
       <use style="stroke:#000000;stroke-width:0.8;" x="54" xlink:href="#m74144f841b" y="44.443636"/>
      </g>
     </g>
     <g id="text_12">
      <!-- 100 -->
      <g transform="translate(27.9125 48.242855)scale(0.1 -0.1)">
       <use xlink:href="#DejaVuSans-49"/>
       <use x="63.623047" xlink:href="#DejaVuSans-48"/>
       <use x="127.246094" xlink:href="#DejaVuSans-48"/>
      </g>
     </g>
    </g>
   </g>
   <g id="line2d_13">
    <path clip-path="url(#pcaa69fa90f)" d="M 69.218182 240.930327 
L 69.844444 240.534982 
L 71.723232 238.755927 
L 72.349495 238.360582 
L 73.60202 237.174545 
L 74.228283 236.7792 
L 75.480808 235.593164 
L 76.107071 235.197818 
L 77.359596 234.011782 
L 77.985859 233.616436 
L 78.612121 233.023418 
L 79.238384 232.628073 
L 80.490909 231.442036 
L 81.117172 231.046691 
L 82.369697 229.860655 
L 82.99596 229.465309 
L 83.622222 228.872291 
L 84.248485 228.476945 
L 85.50101 227.290909 
L 86.127273 226.895564 
L 86.753535 226.302545 
L 87.379798 225.9072 
L 88.632323 224.721164 
L 89.258586 224.325818 
L 89.884848 223.7328 
L 90.511111 223.337455 
L 91.763636 222.151418 
L 92.389899 221.756073 
L 93.016162 221.163055 
L 93.642424 220.767709 
L 94.268687 220.174691 
L 94.894949 219.779345 
L 96.147475 218.593309 
L 96.773737 218.197964 
L 97.4 217.604945 
L 98.026263 217.2096 
L 99.278788 216.023564 
L 99.905051 215.628218 
L 100.531313 215.0352 
L 101.157576 214.639855 
L 102.410101 213.453818 
L 103.036364 213.058473 
L 103.662626 212.465455 
L 104.288889 212.070109 
L 104.915152 211.477091 
L 105.541414 211.081745 
L 106.793939 209.895709 
L 107.420202 209.500364 
L 108.046465 208.907345 
L 108.672727 208.512 
L 109.29899 207.918982 
L 109.925253 207.523636 
L 111.177778 206.3376 
L 111.80404 205.942255 
L 112.430303 205.349236 
L 113.056566 204.953891 
L 113.682828 204.360873 
L 114.309091 203.965527 
L 115.561616 202.779491 
L 116.187879 202.384145 
L 116.814141 201.791127 
L 117.440404 201.395782 
L 118.692929 200.209745 
L 119.319192 199.8144 
L 119.945455 199.221382 
L 120.571717 198.826036 
L 121.19798 198.233018 
L 128.086869 193.884218 
L 128.713131 193.2912 
L 134.975758 189.337745 
L 135.60202 188.744727 
L 138.107071 187.163345 
L 138.733333 186.570327 
L 140.612121 185.384291 
L 141.238384 184.791273 
L 143.117172 183.605236 
L 143.743434 183.012218 
L 145.622222 181.826182 
L 146.248485 181.233164 
L 148.127273 180.047127 
L 148.753535 179.454109 
L 150.632323 178.268073 
L 151.258586 177.675055 
L 153.137374 176.489018 
L 153.763636 175.896 
L 156.894949 173.919273 
L 157.521212 173.326255 
L 158.773737 172.535564 
L 159.4 171.942545 
L 161.905051 170.361164 
L 162.531313 169.768145 
L 164.410101 168.582109 
L 165.036364 167.989091 
L 166.288889 167.1984 
L 166.915152 166.605382 
L 168.793939 165.419345 
L 169.420202 164.826327 
L 171.29899 163.640291 
L 171.925253 163.047273 
L 173.177778 162.256582 
L 173.80404 161.663564 
L 175.682828 160.477527 
L 176.309091 159.884509 
L 177.561616 159.093818 
L 178.187879 158.5008 
L 180.066667 157.314764 
L 180.692929 156.721745 
L 181.945455 155.931055 
L 182.571717 155.338036 
L 184.450505 154.152 
L 185.076768 153.558982 
L 186.329293 152.768291 
L 186.955556 152.175273 
L 188.208081 151.384582 
L 188.834343 150.791564 
L 190.713131 149.605527 
L 191.339394 149.012509 
L 192.591919 148.221818 
L 193.218182 147.6288 
L 195.09697 146.442764 
L 195.723232 145.849745 
L 196.975758 145.059055 
L 197.60202 144.466036 
L 199.480808 143.28 
L 200.107071 142.686982 
L 201.359596 141.896291 
L 201.985859 141.303273 
L 203.238384 140.512582 
L 203.864646 139.919564 
L 205.743434 138.733527 
L 206.369697 138.140509 
L 207.622222 137.349818 
L 208.248485 136.7568 
L 209.50101 135.966109 
L 210.127273 135.373091 
L 212.006061 134.187055 
L 212.632323 133.594036 
L 213.884848 132.803345 
L 214.511111 132.210327 
L 215.763636 131.419636 
L 216.389899 130.826618 
L 217.642424 130.035927 
L 218.268687 129.442909 
L 220.147475 128.256873 
L 220.773737 127.663855 
L 222.026263 126.873164 
L 222.652525 126.280145 
L 223.905051 125.489455 
L 224.531313 124.896436 
L 225.783838 124.105745 
L 226.410101 123.512727 
L 227.662626 122.722036 
L 228.288889 122.129018 
L 229.541414 121.338327 
L 230.167677 120.745309 
L 231.420202 119.954618 
L 232.046465 119.3616 
L 233.29899 118.570909 
L 233.925253 117.977891 
L 235.177778 117.1872 
L 235.80404 116.594182 
L 237.056566 115.803491 
L 237.682828 115.210473 
L 238.935354 114.419782 
L 239.561616 113.826764 
L 240.814141 113.036073 
L 241.440404 112.443055 
L 242.692929 111.652364 
L 243.319192 111.059345 
L 244.571717 110.268655 
L 245.19798 109.675636 
L 246.450505 108.884945 
L 247.076768 108.291927 
L 248.329293 107.501236 
L 248.955556 106.908218 
L 249.581818 106.512873 
L 250.208081 105.919855 
L 251.460606 105.129164 
L 252.086869 104.536145 
L 253.339394 103.745455 
L 253.965657 103.152436 
L 255.218182 102.361745 
L 255.844444 101.768727 
L 257.09697 100.978036 
L 257.723232 100.385018 
L 258.975758 99.594327 
L 259.60202 99.001309 
L 260.228283 98.605964 
L 260.854545 98.012945 
L 262.107071 97.222255 
L 262.733333 96.629236 
L 263.359596 96.233891 
L 263.985859 95.640873 
L 264.612121 95.245527 
L 265.238384 94.652509 
L 265.864646 94.257164 
L 266.490909 93.664145 
L 269.622222 91.687418 
L 270.248485 91.0944 
L 272.127273 89.908364 
L 272.753535 89.315345 
L 274.632323 88.129309 
L 275.258586 87.536291 
L 276.511111 86.7456 
L 277.137374 86.152582 
L 280.894949 83.780509 
L 281.521212 83.187491 
L 282.773737 82.3968 
L 283.4 81.803782 
L 284.652525 81.013091 
L 285.278788 80.420073 
L 285.905051 80.024727 
L 286.531313 79.431709 
L 288.410101 78.245673 
L 289.036364 77.652655 
L 290.288889 76.861964 
L 290.915152 76.268945 
L 291.541414 76.071273 
L 294.672727 73.106182 
L 295.29899 72.908509 
L 295.925253 74.885236 
L 296.551515 75.280582 
L 297.177778 75.8736 
L 297.80404 76.268945 
L 299.056566 77.454982 
L 300.309091 76.664291 
L 300.935354 76.071273 
L 301.561616 75.675927 
L 302.187879 78.048 
L 302.814141 78.443345 
L 303.440404 79.036364 
L 304.066667 79.431709 
L 305.319192 80.617745 
L 305.945455 81.013091 
L 306.571717 80.420073 
L 307.19798 80.024727 
L 307.824242 79.431709 
L 308.450505 79.036364 
L 309.076768 79.234036 
L 309.70303 81.408436 
L 310.329293 82.001455 
L 310.955556 82.199127 
L 311.581818 82.199127 
L 312.208081 81.606109 
L 312.834343 81.210764 
L 313.460606 80.617745 
L 314.086869 82.989818 
L 314.713131 83.582836 
L 315.965657 84.373527 
L 316.591919 84.175855 
L 317.218182 83.780509 
L 317.844444 83.187491 
L 318.470707 82.792145 
L 319.09697 82.989818 
L 319.723232 84.175855 
L 320.975758 85.757236 
L 322.228283 86.943273 
L 322.854545 87.338618 
L 323.480808 87.931636 
L 324.733333 88.722327 
L 325.359596 88.129309 
L 326.612121 87.338618 
L 327.238384 86.7456 
L 327.864646 86.7456 
L 328.490909 87.338618 
L 329.743434 89.513018 
L 330.369697 90.106036 
L 330.99596 90.501382 
L 331.622222 91.0944 
L 332.248485 91.489745 
L 332.874747 92.082764 
L 333.50101 92.478109 
L 334.127273 93.466473 
L 334.753535 93.861818 
L 335.379798 94.454836 
L 336.006061 94.454836 
L 337.884848 92.675782 
L 338.511111 93.071127 
L 339.137374 93.861818 
L 339.763636 94.850182 
L 341.016162 96.036218 
L 341.642424 96.233891 
L 342.268687 95.640873 
L 342.894949 95.245527 
L 343.521212 94.652509 
L 344.147475 95.245527 
L 346.026263 97.6176 
L 347.905051 98.803636 
L 348.531313 98.605964 
L 349.157576 98.012945 
L 349.783838 97.6176 
L 350.410101 97.419927 
L 351.036364 98.210618 
L 351.662626 99.198982 
L 352.915152 100.385018 
L 353.541414 100.780364 
L 354.167677 101.373382 
L 354.793939 100.978036 
L 355.420202 100.978036 
L 356.046465 101.373382 
L 356.672727 101.9664 
L 357.29899 102.361745 
L 357.925253 101.9664 
L 358.551515 101.373382 
L 359.80404 100.582691 
L 360.430303 100.385018 
L 361.056566 100.978036 
L 362.309091 102.559418 
L 363.561616 103.745455 
L 364.814141 103.745455 
L 365.440404 103.547782 
L 366.066667 102.954764 
L 366.692929 102.559418 
L 367.319192 101.9664 
L 369.19798 100.780364 
L 369.824242 100.187345 
L 370.450505 242.116364 
L 373.581818 242.116364 
L 373.581818 242.116364 
" style="fill:none;stroke:#1f77b4;stroke-linecap:square;stroke-width:1.5;"/>
   </g>
   <g id="line2d_14">
    <path clip-path="url(#pcaa69fa90f)" d="M 69.218182 44.443636 
L 71.09697 44.443636 
L 71.723232 56.699345 
L 72.975758 56.699345 
L 73.60202 44.443636 
L 75.480808 44.443636 
L 76.107071 56.699345 
L 76.733333 56.699345 
L 77.359596 44.443636 
L 79.864646 44.443636 
L 80.490909 56.699345 
L 82.369697 56.699345 
L 82.99596 44.443636 
L 84.874747 44.443636 
L 85.50101 56.699345 
L 86.127273 56.699345 
L 86.753535 44.443636 
L 90.511111 44.443636 
L 91.137374 56.699345 
L 91.763636 44.443636 
L 92.389899 56.699345 
L 93.016162 44.443636 
L 94.268687 44.443636 
L 94.894949 56.699345 
L 95.521212 44.443636 
L 99.278788 44.443636 
L 99.905051 56.699345 
L 100.531313 56.699345 
L 101.157576 44.443636 
L 102.410101 44.443636 
L 103.036364 56.699345 
L 103.662626 56.699345 
L 104.288889 44.443636 
L 104.915152 44.443636 
L 105.541414 56.699345 
L 106.167677 44.443636 
L 108.046465 44.443636 
L 108.672727 56.699345 
L 109.29899 56.699345 
L 109.925253 44.443636 
L 111.177778 44.443636 
L 111.80404 56.699345 
L 112.430303 56.699345 
L 113.056566 44.443636 
L 114.309091 44.443636 
L 114.935354 56.699345 
L 115.561616 56.699345 
L 116.187879 44.443636 
L 119.945455 44.443636 
L 120.571717 56.699345 
L 121.19798 56.699345 
L 121.824242 44.443636 
L 122.450505 56.699345 
L 123.076768 44.443636 
L 123.70303 56.699345 
L 124.329293 56.699345 
L 124.955556 44.443636 
L 126.208081 44.443636 
L 126.834343 56.699345 
L 128.086869 56.699345 
L 128.713131 44.443636 
L 130.591919 44.443636 
L 131.218182 56.699345 
L 132.470707 56.699345 
L 133.09697 44.443636 
L 133.723232 56.699345 
L 134.975758 56.699345 
L 135.60202 44.443636 
L 136.854545 44.443636 
L 137.480808 56.699345 
L 138.107071 56.699345 
L 138.733333 44.443636 
L 141.864646 44.443636 
L 142.490909 56.699345 
L 143.117172 44.443636 
L 146.248485 44.443636 
L 146.874747 56.699345 
L 147.50101 44.443636 
L 148.127273 56.699345 
L 148.753535 44.443636 
L 149.379798 44.443636 
L 150.006061 56.699345 
L 150.632323 44.443636 
L 151.258586 56.699345 
L 152.511111 56.699345 
L 153.137374 44.443636 
L 153.763636 56.699345 
L 154.389899 44.443636 
L 155.016162 44.443636 
L 155.642424 57.687709 
L 156.268687 56.699345 
L 156.894949 44.443636 
L 157.521212 44.443636 
L 158.147475 56.699345 
L 158.773737 44.443636 
L 160.652525 44.443636 
L 161.278788 56.699345 
L 161.905051 44.443636 
L 163.157576 44.443636 
L 163.783838 56.699345 
L 164.410101 44.443636 
L 165.036364 44.443636 
L 165.662626 56.699345 
L 166.288889 44.443636 
L 166.915152 44.443636 
L 167.541414 56.699345 
L 168.167677 44.443636 
L 168.793939 44.443636 
L 169.420202 56.699345 
L 170.046465 44.443636 
L 170.672727 44.443636 
L 171.29899 56.699345 
L 171.925253 44.443636 
L 175.682828 44.443636 
L 176.309091 56.699345 
L 176.935354 44.443636 
L 177.561616 56.699345 
L 178.187879 44.443636 
L 178.814141 44.443636 
L 179.440404 56.699345 
L 180.066667 44.443636 
L 180.692929 44.443636 
L 181.319192 56.699345 
L 181.945455 56.699345 
L 182.571717 44.443636 
L 185.70303 44.443636 
L 186.329293 56.699345 
L 186.955556 44.443636 
L 187.581818 44.443636 
L 188.208081 56.699345 
L 188.834343 44.443636 
L 189.460606 56.699345 
L 190.086869 44.443636 
L 190.713131 44.443636 
L 191.339394 56.699345 
L 191.965657 56.699345 
L 192.591919 44.443636 
L 193.218182 56.699345 
L 193.844444 44.443636 
L 194.470707 44.443636 
L 195.09697 56.699345 
L 195.723232 56.699345 
L 196.349495 44.443636 
L 196.975758 56.699345 
L 197.60202 56.699345 
L 198.228283 44.443636 
L 201.359596 44.443636 
L 201.985859 56.699345 
L 202.612121 44.443636 
L 203.864646 44.443636 
L 204.490909 56.699345 
L 205.117172 44.443636 
L 205.743434 56.699345 
L 206.369697 44.443636 
L 206.99596 56.699345 
L 207.622222 56.699345 
L 208.248485 44.443636 
L 208.874747 56.699345 
L 209.50101 56.699345 
L 210.127273 44.443636 
L 211.379798 44.443636 
L 212.006061 56.699345 
L 212.632323 56.699345 
L 213.258586 44.443636 
L 213.884848 56.699345 
L 214.511111 56.699345 
L 215.137374 44.443636 
L 215.763636 56.699345 
L 216.389899 44.443636 
L 218.268687 44.443636 
L 218.894949 56.699345 
L 219.521212 44.443636 
L 221.4 44.443636 
L 222.026263 69.152727 
L 222.652525 44.443636 
L 223.278788 56.699345 
L 223.905051 44.443636 
L 224.531313 56.699345 
L 225.157576 44.443636 
L 227.036364 44.443636 
L 227.662626 56.699345 
L 228.288889 44.443636 
L 234.551515 44.443636 
L 235.177778 56.699345 
L 235.80404 56.699345 
L 236.430303 44.443636 
L 237.056566 56.699345 
L 237.682828 44.443636 
L 238.935354 44.443636 
L 239.561616 56.699345 
L 240.187879 56.699345 
L 240.814141 44.443636 
L 241.440404 56.699345 
L 242.066667 44.443636 
L 246.450505 44.443636 
L 247.076768 56.699345 
L 247.70303 44.443636 
L 248.329293 56.699345 
L 248.955556 44.443636 
L 250.834343 44.443636 
L 251.460606 56.699345 
L 252.086869 56.699345 
L 252.713131 44.443636 
L 254.591919 44.443636 
L 255.218182 57.687709 
L 255.844444 56.699345 
L 256.470707 56.699345 
L 257.09697 44.443636 
L 258.349495 44.443636 
L 258.975758 56.699345 
L 259.60202 56.699345 
L 260.228283 44.443636 
L 262.107071 44.443636 
L 262.733333 56.699345 
L 263.359596 44.443636 
L 265.238384 44.443636 
L 265.864646 56.699345 
L 266.490909 44.443636 
L 267.117172 56.699345 
L 267.743434 44.443636 
L 278.389899 44.443636 
L 279.016162 56.699345 
L 279.642424 44.443636 
L 280.268687 56.699345 
L 280.894949 56.699345 
L 281.521212 44.443636 
L 282.147475 44.443636 
L 282.773737 69.152727 
L 283.4 44.443636 
L 288.410101 44.443636 
L 289.036364 69.152727 
L 290.288889 44.443636 
L 290.915152 56.699345 
L 291.541414 44.443636 
L 295.29899 44.443636 
L 295.925253 139.919564 
L 296.551515 56.699345 
L 297.177778 44.443636 
L 298.430303 44.443636 
L 299.056566 56.699345 
L 299.682828 44.443636 
L 300.309091 44.443636 
L 300.935354 56.699345 
L 301.561616 44.443636 
L 302.187879 66.978327 
L 302.814141 56.699345 
L 303.440404 44.443636 
L 304.066667 56.699345 
L 304.692929 56.699345 
L 305.319192 44.443636 
L 305.945455 56.699345 
L 306.571717 56.699345 
L 307.19798 44.443636 
L 307.824242 56.699345 
L 309.076768 56.699345 
L 309.70303 44.443636 
L 310.329293 56.699345 
L 310.955556 56.699345 
L 311.581818 44.443636 
L 313.460606 44.443636 
L 314.086869 74.885236 
L 314.713131 56.699345 
L 315.339394 56.699345 
L 315.965657 44.443636 
L 316.591919 56.699345 
L 317.218182 56.699345 
L 317.844444 44.443636 
L 319.09697 44.443636 
L 319.723232 56.106327 
L 320.349495 44.443636 
L 320.975758 44.443636 
L 321.60202 56.699345 
L 322.228283 44.443636 
L 322.854545 56.699345 
L 323.480808 56.699345 
L 324.107071 44.443636 
L 324.733333 44.443636 
L 325.359596 56.699345 
L 325.985859 44.443636 
L 327.238384 44.443636 
L 328.490909 67.769018 
L 329.117172 44.443636 
L 330.369697 44.443636 
L 331.622222 69.152727 
L 332.248485 56.699345 
L 333.50101 56.699345 
L 334.127273 69.152727 
L 334.753535 44.443636 
L 337.884848 44.443636 
L 338.511111 56.699345 
L 339.137374 56.699345 
L 339.763636 44.443636 
L 341.016162 69.152727 
L 341.642424 56.699345 
L 342.268687 56.699345 
L 342.894949 44.443636 
L 344.773737 44.443636 
L 345.4 56.106327 
L 346.026263 44.443636 
L 346.652525 44.443636 
L 347.278788 56.699345 
L 347.905051 44.443636 
L 350.410101 44.443636 
L 351.036364 67.769018 
L 351.662626 56.699345 
L 352.288889 69.152727 
L 352.915152 44.443636 
L 353.541414 56.699345 
L 354.167677 56.699345 
L 354.793939 44.443636 
L 356.046465 44.443636 
L 356.672727 56.699345 
L 357.29899 44.443636 
L 357.925253 44.443636 
L 358.551515 56.699345 
L 359.177778 44.443636 
L 359.80404 56.699345 
L 360.430303 44.443636 
L 361.056566 44.443636 
L 361.682828 56.699345 
L 362.309091 56.699345 
L 362.935354 44.443636 
L 363.561616 56.699345 
L 364.187879 44.443636 
L 364.814141 56.699345 
L 365.440404 44.443636 
L 366.692929 44.443636 
L 367.319192 56.699345 
L 367.945455 44.443636 
L 369.824242 44.443636 
L 370.450505 165.221673 
L 371.076768 44.443636 
L 372.955556 44.443636 
L 372.955556 44.443636 
" style="fill:none;stroke:#ff7f0e;stroke-linecap:square;stroke-width:1.5;"/>
   </g>
   <g id="patch_3">
    <path d="M 54 252 
L 54 34.56 
" style="fill:none;stroke:#000000;stroke-linecap:square;stroke-linejoin:miter;stroke-width:0.8;"/>
   </g>
   <g id="patch_4">
    <path d="M 388.8 252 
L 388.8 34.56 
" style="fill:none;stroke:#000000;stroke-linecap:square;stroke-linejoin:miter;stroke-width:0.8;"/>
   </g>
   <g id="patch_5">
    <path d="M 54 252 
L 388.8 252 
" style="fill:none;stroke:#000000;stroke-linecap:square;stroke-linejoin:miter;stroke-width:0.8;"/>
   </g>
   <g id="patch_6">
    <path d="M 54 34.56 
L 388.8 34.56 
" style="fill:none;stroke:#000000;stroke-linecap:square;stroke-linejoin:miter;stroke-width:0.8;"/>
   </g>
   <g id="legend_1">
    <g id="patch_7">
     <path d="M 61 159.458125 
L 116.575 159.458125 
Q 118.575 159.458125 118.575 157.458125 
L 118.575 129.101875 
Q 118.575 127.101875 116.575 127.101875 
L 61 127.101875 
Q 59 127.101875 59 129.101875 
L 59 157.458125 
Q 59 159.458125 61 159.458125 
z
" style="fill:#ffffff;opacity:0.8;stroke:#cccccc;stroke-linejoin:miter;"/>
    </g>
    <g id="line2d_15">
     <path d="M 63 135.200312 
L 83 135.200312 
" style="fill:none;stroke:#1f77b4;stroke-linecap:square;stroke-width:1.5;"/>
    </g>
    <g id="line2d_16"/>
    <g id="text_13">
     <!-- MEM -->
     <g transform="translate(91 138.700312)scale(0.1 -0.1)">
      <defs>
       <path d="M 9.8125 72.90625 
L 24.515625 72.90625 
L 43.109375 23.296875 
L 61.8125 72.90625 
L 76.515625 72.90625 
L 76.515625 0 
L 66.890625 0 
L 66.890625 64.015625 
L 48.09375 14.015625 
L 38.1875 14.015625 
L 19.390625 64.015625 
L 19.390625 0 
L 9.8125 0 
z
" id="DejaVuSans-77"/>
       <path d="M 9.8125 72.90625 
L 55.90625 72.90625 
L 55.90625 64.59375 
L 19.671875 64.59375 
L 19.671875 43.015625 
L 54.390625 43.015625 
L 54.390625 34.71875 
L 19.671875 34.71875 
L 19.671875 8.296875 
L 56.78125 8.296875 
L 56.78125 0 
L 9.8125 0 
z
" id="DejaVuSans-69"/>
      </defs>
      <use xlink:href="#DejaVuSans-77"/>
      <use x="86.279297" xlink:href="#DejaVuSans-69"/>
      <use x="149.462891" xlink:href="#DejaVuSans-77"/>
     </g>
    </g>
    <g id="line2d_17">
     <path d="M 63 149.878437 
L 83 149.878437 
" style="fill:none;stroke:#ff7f0e;stroke-linecap:square;stroke-width:1.5;"/>
    </g>
    <g id="line2d_18"/>
    <g id="text_14">
     <!-- CPU -->
     <g transform="translate(91 153.378437)scale(0.1 -0.1)">
      <defs>
       <path d="M 64.40625 67.28125 
L 64.40625 56.890625 
Q 59.421875 61.53125 53.78125 63.8125 
Q 48.140625 66.109375 41.796875 66.109375 
Q 29.296875 66.109375 22.65625 58.46875 
Q 16.015625 50.828125 16.015625 36.375 
Q 16.015625 21.96875 22.65625 14.328125 
Q 29.296875 6.6875 41.796875 6.6875 
Q 48.140625 6.6875 53.78125 8.984375 
Q 59.421875 11.28125 64.40625 15.921875 
L 64.40625 5.609375 
Q 59.234375 2.09375 53.4375 0.328125 
Q 47.65625 -1.421875 41.21875 -1.421875 
Q 24.65625 -1.421875 15.125 8.703125 
Q 5.609375 18.84375 5.609375 36.375 
Q 5.609375 53.953125 15.125 64.078125 
Q 24.65625 74.21875 41.21875 74.21875 
Q 47.75 74.21875 53.53125 72.484375 
Q 59.328125 70.75 64.40625 67.28125 
z
" id="DejaVuSans-67"/>
       <path d="M 19.671875 64.796875 
L 19.671875 37.40625 
L 32.078125 37.40625 
Q 38.96875 37.40625 42.71875 40.96875 
Q 46.484375 44.53125 46.484375 51.125 
Q 46.484375 57.671875 42.71875 61.234375 
Q 38.96875 64.796875 32.078125 64.796875 
z
M 9.8125 72.90625 
L 32.078125 72.90625 
Q 44.34375 72.90625 50.609375 67.359375 
Q 56.890625 61.8125 56.890625 51.125 
Q 56.890625 40.328125 50.609375 34.8125 
Q 44.34375 29.296875 32.078125 29.296875 
L 19.671875 29.296875 
L 19.671875 0 
L 9.8125 0 
z
" id="DejaVuSans-80"/>
       <path d="M 8.6875 72.90625 
L 18.609375 72.90625 
L 18.609375 28.609375 
Q 18.609375 16.890625 22.84375 11.734375 
Q 27.09375 6.59375 36.625 6.59375 
Q 46.09375 6.59375 50.34375 11.734375 
Q 54.59375 16.890625 54.59375 28.609375 
L 54.59375 72.90625 
L 64.5 72.90625 
L 64.5 27.390625 
Q 64.5 13.140625 57.4375 5.859375 
Q 50.390625 -1.421875 36.625 -1.421875 
Q 22.796875 -1.421875 15.734375 5.859375 
Q 8.6875 13.140625 8.6875 27.390625 
z
" id="DejaVuSans-85"/>
      </defs>
      <use xlink:href="#DejaVuSans-67"/>
      <use x="69.824219" xlink:href="#DejaVuSans-80"/>
      <use x="130.126953" xlink:href="#DejaVuSans-85"/>
     </g>
    </g>
   </g>
  </g>
 </g>
 <defs>
  <clipPath id="pcaa69fa90f">
   <rect height="217.44" width="334.8" x="54" y="34.56"/>
  </clipPath>
 </defs>
</svg>
