<?xml version="1.0" encoding="utf-8" standalone="no"?>
<!DOCTYPE svg PUBLIC "-//W3C//DTD SVG 1.1//EN"
  "http://www.w3.org/Graphics/SVG/1.1/DTD/svg11.dtd">
<!-- Created with matplotlib (https://matplotlib.org/) -->
<svg height="288pt" version="1.1" viewBox="0 0 432 288" width="432pt" xmlns="http://www.w3.org/2000/svg" xmlns:xlink="http://www.w3.org/1999/xlink">
 <metadata>
  <rdf:RDF xmlns:cc="http://creativecommons.org/ns#" xmlns:dc="http://purl.org/dc/elements/1.1/" xmlns:rdf="http://www.w3.org/1999/02/22-rdf-syntax-ns#">
   <cc:Work>
    <dc:type rdf:resource="http://purl.org/dc/dcmitype/StillImage"/>
    <dc:date>2020-11-23T19:49:19.289390</dc:date>
    <dc:format>image/svg+xml</dc:format>
    <dc:creator>
     <cc:Agent>
      <dc:title>Matplotlib v3.3.0, https://matplotlib.org/</dc:title>
     </cc:Agent>
    </dc:creator>
   </cc:Work>
  </rdf:RDF>
 </metadata>
 <defs>
  <style type="text/css">*{stroke-linecap:butt;stroke-linejoin:round;}</style>
 </defs>
 <g id="figure_1">
  <g id="patch_1">
   <path d="M 0 288 
L 432 288 
L 432 0 
L 0 0 
z
" style="fill:none;"/>
  </g>
  <g id="axes_1">
   <g id="patch_2">
    <path d="M 54 252 
L 388.8 252 
L 388.8 34.56 
L 54 34.56 
z
" style="fill:#ffffff;"/>
   </g>
   <g id="matplotlib.axis_1">
    <g id="xtick_1">
     <g id="line2d_1">
      <defs>
       <path d="M 0 0 
L 0 3.5 
" id="m916283f37b" style="stroke:#000000;stroke-width:0.8;"/>
      </defs>
      <g>
       <use style="stroke:#000000;stroke-width:0.8;" x="69.218182" xlink:href="#m916283f37b" y="252"/>
      </g>
     </g>
     <g id="text_1">
      <!-- 0 -->
      <g transform="translate(66.036932 266.598437)scale(0.1 -0.1)">
       <defs>
        <path d="M 31.78125 66.40625 
Q 24.171875 66.40625 20.328125 58.90625 
Q 16.5 51.421875 16.5 36.375 
Q 16.5 21.390625 20.328125 13.890625 
Q 24.171875 6.390625 31.78125 6.390625 
Q 39.453125 6.390625 43.28125 13.890625 
Q 47.125 21.390625 47.125 36.375 
Q 47.125 51.421875 43.28125 58.90625 
Q 39.453125 66.40625 31.78125 66.40625 
z
M 31.78125 74.21875 
Q 44.046875 74.21875 50.515625 64.515625 
Q 56.984375 54.828125 56.984375 36.375 
Q 56.984375 17.96875 50.515625 8.265625 
Q 44.046875 -1.421875 31.78125 -1.421875 
Q 19.53125 -1.421875 13.0625 8.265625 
Q 6.59375 17.96875 6.59375 36.375 
Q 6.59375 54.828125 13.0625 64.515625 
Q 19.53125 74.21875 31.78125 74.21875 
z
" id="DejaVuSans-48"/>
       </defs>
       <use xlink:href="#DejaVuSans-48"/>
      </g>
     </g>
    </g>
    <g id="xtick_2">
     <g id="line2d_2">
      <g>
       <use style="stroke:#000000;stroke-width:0.8;" x="131.973571" xlink:href="#m916283f37b" y="252"/>
      </g>
     </g>
     <g id="text_2">
      <!-- 100 -->
      <g transform="translate(122.429821 266.598437)scale(0.1 -0.1)">
       <defs>
        <path d="M 12.40625 8.296875 
L 28.515625 8.296875 
L 28.515625 63.921875 
L 10.984375 60.40625 
L 10.984375 69.390625 
L 28.421875 72.90625 
L 38.28125 72.90625 
L 38.28125 8.296875 
L 54.390625 8.296875 
L 54.390625 0 
L 12.40625 0 
z
" id="DejaVuSans-49"/>
       </defs>
       <use xlink:href="#DejaVuSans-49"/>
       <use x="63.623047" xlink:href="#DejaVuSans-48"/>
       <use x="127.246094" xlink:href="#DejaVuSans-48"/>
      </g>
     </g>
    </g>
    <g id="xtick_3">
     <g id="line2d_3">
      <g>
       <use style="stroke:#000000;stroke-width:0.8;" x="194.72896" xlink:href="#m916283f37b" y="252"/>
      </g>
     </g>
     <g id="text_3">
      <!-- 200 -->
      <g transform="translate(185.18521 266.598437)scale(0.1 -0.1)">
       <defs>
        <path d="M 19.1875 8.296875 
L 53.609375 8.296875 
L 53.609375 0 
L 7.328125 0 
L 7.328125 8.296875 
Q 12.9375 14.109375 22.625 23.890625 
Q 32.328125 33.6875 34.8125 36.53125 
Q 39.546875 41.84375 41.421875 45.53125 
Q 43.3125 49.21875 43.3125 52.78125 
Q 43.3125 58.59375 39.234375 62.25 
Q 35.15625 65.921875 28.609375 65.921875 
Q 23.96875 65.921875 18.8125 64.3125 
Q 13.671875 62.703125 7.8125 59.421875 
L 7.8125 69.390625 
Q 13.765625 71.78125 18.9375 73 
Q 24.125 74.21875 28.421875 74.21875 
Q 39.75 74.21875 46.484375 68.546875 
Q 53.21875 62.890625 53.21875 53.421875 
Q 53.21875 48.921875 51.53125 44.890625 
Q 49.859375 40.875 45.40625 35.40625 
Q 44.1875 33.984375 37.640625 27.21875 
Q 31.109375 20.453125 19.1875 8.296875 
z
" id="DejaVuSans-50"/>
       </defs>
       <use xlink:href="#DejaVuSans-50"/>
       <use x="63.623047" xlink:href="#DejaVuSans-48"/>
       <use x="127.246094" xlink:href="#DejaVuSans-48"/>
      </g>
     </g>
    </g>
    <g id="xtick_4">
     <g id="line2d_4">
      <g>
       <use style="stroke:#000000;stroke-width:0.8;" x="257.484349" xlink:href="#m916283f37b" y="252"/>
      </g>
     </g>
     <g id="text_4">
      <!-- 300 -->
      <g transform="translate(247.940599 266.598437)scale(0.1 -0.1)">
       <defs>
        <path d="M 40.578125 39.3125 
Q 47.65625 37.796875 51.625 33 
Q 55.609375 28.21875 55.609375 21.1875 
Q 55.609375 10.40625 48.1875 4.484375 
Q 40.765625 -1.421875 27.09375 -1.421875 
Q 22.515625 -1.421875 17.65625 -0.515625 
Q 12.796875 0.390625 7.625 2.203125 
L 7.625 11.71875 
Q 11.71875 9.328125 16.59375 8.109375 
Q 21.484375 6.890625 26.8125 6.890625 
Q 36.078125 6.890625 40.9375 10.546875 
Q 45.796875 14.203125 45.796875 21.1875 
Q 45.796875 27.640625 41.28125 31.265625 
Q 36.765625 34.90625 28.71875 34.90625 
L 20.21875 34.90625 
L 20.21875 43.015625 
L 29.109375 43.015625 
Q 36.375 43.015625 40.234375 45.921875 
Q 44.09375 48.828125 44.09375 54.296875 
Q 44.09375 59.90625 40.109375 62.90625 
Q 36.140625 65.921875 28.71875 65.921875 
Q 24.65625 65.921875 20.015625 65.03125 
Q 15.375 64.15625 9.8125 62.3125 
L 9.8125 71.09375 
Q 15.4375 72.65625 20.34375 73.4375 
Q 25.25 74.21875 29.59375 74.21875 
Q 40.828125 74.21875 47.359375 69.109375 
Q 53.90625 64.015625 53.90625 55.328125 
Q 53.90625 49.265625 50.4375 45.09375 
Q 46.96875 40.921875 40.578125 39.3125 
z
" id="DejaVuSans-51"/>
       </defs>
       <use xlink:href="#DejaVuSans-51"/>
       <use x="63.623047" xlink:href="#DejaVuSans-48"/>
       <use x="127.246094" xlink:href="#DejaVuSans-48"/>
      </g>
     </g>
    </g>
    <g id="xtick_5">
     <g id="line2d_5">
      <g>
       <use style="stroke:#000000;stroke-width:0.8;" x="320.239738" xlink:href="#m916283f37b" y="252"/>
      </g>
     </g>
     <g id="text_5">
      <!-- 400 -->
      <g transform="translate(310.695988 266.598437)scale(0.1 -0.1)">
       <defs>
        <path d="M 37.796875 64.3125 
L 12.890625 25.390625 
L 37.796875 25.390625 
z
M 35.203125 72.90625 
L 47.609375 72.90625 
L 47.609375 25.390625 
L 58.015625 25.390625 
L 58.015625 17.1875 
L 47.609375 17.1875 
L 47.609375 0 
L 37.796875 0 
L 37.796875 17.1875 
L 4.890625 17.1875 
L 4.890625 26.703125 
z
" id="DejaVuSans-52"/>
       </defs>
       <use xlink:href="#DejaVuSans-52"/>
       <use x="63.623047" xlink:href="#DejaVuSans-48"/>
       <use x="127.246094" xlink:href="#DejaVuSans-48"/>
      </g>
     </g>
    </g>
    <g id="xtick_6">
     <g id="line2d_6">
      <g>
       <use style="stroke:#000000;stroke-width:0.8;" x="382.995127" xlink:href="#m916283f37b" y="252"/>
      </g>
     </g>
     <g id="text_6">
      <!-- 500 -->
      <g transform="translate(373.451377 266.598437)scale(0.1 -0.1)">
       <defs>
        <path d="M 10.796875 72.90625 
L 49.515625 72.90625 
L 49.515625 64.59375 
L 19.828125 64.59375 
L 19.828125 46.734375 
Q 21.96875 47.46875 24.109375 47.828125 
Q 26.265625 48.1875 28.421875 48.1875 
Q 40.625 48.1875 47.75 41.5 
Q 54.890625 34.8125 54.890625 23.390625 
Q 54.890625 11.625 47.5625 5.09375 
Q 40.234375 -1.421875 26.90625 -1.421875 
Q 22.3125 -1.421875 17.546875 -0.640625 
Q 12.796875 0.140625 7.71875 1.703125 
L 7.71875 11.625 
Q 12.109375 9.234375 16.796875 8.0625 
Q 21.484375 6.890625 26.703125 6.890625 
Q 35.15625 6.890625 40.078125 11.328125 
Q 45.015625 15.765625 45.015625 23.390625 
Q 45.015625 31 40.078125 35.4375 
Q 35.15625 39.890625 26.703125 39.890625 
Q 22.75 39.890625 18.8125 39.015625 
Q 14.890625 38.140625 10.796875 36.28125 
z
" id="DejaVuSans-53"/>
       </defs>
       <use xlink:href="#DejaVuSans-53"/>
       <use x="63.623047" xlink:href="#DejaVuSans-48"/>
       <use x="127.246094" xlink:href="#DejaVuSans-48"/>
      </g>
     </g>
    </g>
   </g>
   <g id="matplotlib.axis_2">
    <g id="ytick_1">
     <g id="line2d_7">
      <defs>
       <path d="M 0 0 
L -3.5 0 
" id="mdd08e7fed5" style="stroke:#000000;stroke-width:0.8;"/>
      </defs>
      <g>
       <use style="stroke:#000000;stroke-width:0.8;" x="54" xlink:href="#mdd08e7fed5" y="242.116364"/>
      </g>
     </g>
     <g id="text_7">
      <!-- 0.00 -->
      <g transform="translate(24.734375 245.915582)scale(0.1 -0.1)">
       <defs>
        <path d="M 10.6875 12.40625 
L 21 12.40625 
L 21 0 
L 10.6875 0 
z
" id="DejaVuSans-46"/>
       </defs>
       <use xlink:href="#DejaVuSans-48"/>
       <use x="63.623047" xlink:href="#DejaVuSans-46"/>
       <use x="95.410156" xlink:href="#DejaVuSans-48"/>
       <use x="159.033203" xlink:href="#DejaVuSans-48"/>
      </g>
     </g>
    </g>
    <g id="ytick_2">
     <g id="line2d_8">
      <g>
       <use style="stroke:#000000;stroke-width:0.8;" x="54" xlink:href="#mdd08e7fed5" y="213.71511"/>
      </g>
     </g>
     <g id="text_8">
      <!-- 0.25 -->
      <g transform="translate(24.734375 217.514328)scale(0.1 -0.1)">
       <use xlink:href="#DejaVuSans-48"/>
       <use x="63.623047" xlink:href="#DejaVuSans-46"/>
       <use x="95.410156" xlink:href="#DejaVuSans-50"/>
       <use x="159.033203" xlink:href="#DejaVuSans-53"/>
      </g>
     </g>
    </g>
    <g id="ytick_3">
     <g id="line2d_9">
      <g>
       <use style="stroke:#000000;stroke-width:0.8;" x="54" xlink:href="#mdd08e7fed5" y="185.313856"/>
      </g>
     </g>
     <g id="text_9">
      <!-- 0.50 -->
      <g transform="translate(24.734375 189.113075)scale(0.1 -0.1)">
       <use xlink:href="#DejaVuSans-48"/>
       <use x="63.623047" xlink:href="#DejaVuSans-46"/>
       <use x="95.410156" xlink:href="#DejaVuSans-53"/>
       <use x="159.033203" xlink:href="#DejaVuSans-48"/>
      </g>
     </g>
    </g>
    <g id="ytick_4">
     <g id="line2d_10">
      <g>
       <use style="stroke:#000000;stroke-width:0.8;" x="54" xlink:href="#mdd08e7fed5" y="156.912602"/>
      </g>
     </g>
     <g id="text_10">
      <!-- 0.75 -->
      <g transform="translate(24.734375 160.711821)scale(0.1 -0.1)">
       <defs>
        <path d="M 8.203125 72.90625 
L 55.078125 72.90625 
L 55.078125 68.703125 
L 28.609375 0 
L 18.3125 0 
L 43.21875 64.59375 
L 8.203125 64.59375 
z
" id="DejaVuSans-55"/>
       </defs>
       <use xlink:href="#DejaVuSans-48"/>
       <use x="63.623047" xlink:href="#DejaVuSans-46"/>
       <use x="95.410156" xlink:href="#DejaVuSans-55"/>
       <use x="159.033203" xlink:href="#DejaVuSans-53"/>
      </g>
     </g>
    </g>
    <g id="ytick_5">
     <g id="line2d_11">
      <g>
       <use style="stroke:#000000;stroke-width:0.8;" x="54" xlink:href="#mdd08e7fed5" y="128.511348"/>
      </g>
     </g>
     <g id="text_11">
      <!-- 1.00 -->
      <g transform="translate(24.734375 132.310567)scale(0.1 -0.1)">
       <use xlink:href="#DejaVuSans-49"/>
       <use x="63.623047" xlink:href="#DejaVuSans-46"/>
       <use x="95.410156" xlink:href="#DejaVuSans-48"/>
       <use x="159.033203" xlink:href="#DejaVuSans-48"/>
      </g>
     </g>
    </g>
    <g id="ytick_6">
     <g id="line2d_12">
      <g>
       <use style="stroke:#000000;stroke-width:0.8;" x="54" xlink:href="#mdd08e7fed5" y="100.110094"/>
      </g>
     </g>
     <g id="text_12">
      <!-- 1.25 -->
      <g transform="translate(24.734375 103.909313)scale(0.1 -0.1)">
       <use xlink:href="#DejaVuSans-49"/>
       <use x="63.623047" xlink:href="#DejaVuSans-46"/>
       <use x="95.410156" xlink:href="#DejaVuSans-50"/>
       <use x="159.033203" xlink:href="#DejaVuSans-53"/>
      </g>
     </g>
    </g>
    <g id="ytick_7">
     <g id="line2d_13">
      <g>
       <use style="stroke:#000000;stroke-width:0.8;" x="54" xlink:href="#mdd08e7fed5" y="71.70884"/>
      </g>
     </g>
     <g id="text_13">
      <!-- 1.50 -->
      <g transform="translate(24.734375 75.508059)scale(0.1 -0.1)">
       <use xlink:href="#DejaVuSans-49"/>
       <use x="63.623047" xlink:href="#DejaVuSans-46"/>
       <use x="95.410156" xlink:href="#DejaVuSans-53"/>
       <use x="159.033203" xlink:href="#DejaVuSans-48"/>
      </g>
     </g>
    </g>
    <g id="ytick_8">
     <g id="line2d_14">
      <g>
       <use style="stroke:#000000;stroke-width:0.8;" x="54" xlink:href="#mdd08e7fed5" y="43.307586"/>
      </g>
     </g>
     <g id="text_14">
      <!-- 1.75 -->
      <g transform="translate(24.734375 47.106805)scale(0.1 -0.1)">
       <use xlink:href="#DejaVuSans-49"/>
       <use x="63.623047" xlink:href="#DejaVuSans-46"/>
       <use x="95.410156" xlink:href="#DejaVuSans-55"/>
       <use x="159.033203" xlink:href="#DejaVuSans-53"/>
      </g>
     </g>
    </g>
    <g id="text_15">
     <!-- 1e7 -->
     <g transform="translate(54 31.56)scale(0.1 -0.1)">
      <defs>
       <path d="M 56.203125 29.59375 
L 56.203125 25.203125 
L 14.890625 25.203125 
Q 15.484375 15.921875 20.484375 11.0625 
Q 25.484375 6.203125 34.421875 6.203125 
Q 39.59375 6.203125 44.453125 7.46875 
Q 49.3125 8.734375 54.109375 11.28125 
L 54.109375 2.78125 
Q 49.265625 0.734375 44.1875 -0.34375 
Q 39.109375 -1.421875 33.890625 -1.421875 
Q 20.796875 -1.421875 13.15625 6.1875 
Q 5.515625 13.8125 5.515625 26.8125 
Q 5.515625 40.234375 12.765625 48.109375 
Q 20.015625 56 32.328125 56 
Q 43.359375 56 49.78125 48.890625 
Q 56.203125 41.796875 56.203125 29.59375 
z
M 47.21875 32.234375 
Q 47.125 39.59375 43.09375 43.984375 
Q 39.0625 48.390625 32.421875 48.390625 
Q 24.90625 48.390625 20.390625 44.140625 
Q 15.875 39.890625 15.1875 32.171875 
z
" id="DejaVuSans-101"/>
      </defs>
      <use xlink:href="#DejaVuSans-49"/>
      <use x="63.623047" xlink:href="#DejaVuSans-101"/>
      <use x="125.146484" xlink:href="#DejaVuSans-55"/>
     </g>
    </g>
   </g>
   <g id="line2d_15">
    <path clip-path="url(#p0f6e6ecf09)" d="M 69.218182 240.989493 
L 78.63149 233.629524 
L 94.320337 221.617838 
L 121.932709 200.722604 
L 122.560262 200.310218 
L 123.81537 199.711883 
L 128.208247 197.006629 
L 133.228679 193.864996 
L 135.738894 192.36691 
L 147.662418 184.521075 
L 187.198313 158.222831 
L 230.499531 128.899923 
L 231.127085 131.127671 
L 234.892409 128.614729 
L 235.519963 130.783448 
L 236.147516 130.783448 
L 236.77507 129.647398 
L 238.030178 129.647398 
L 238.657732 128.511348 
L 239.91284 128.511348 
L 240.540394 127.375298 
L 241.167948 127.375298 
L 241.795501 126.239248 
L 243.050609 126.239248 
L 243.678163 125.103197 
L 244.933271 125.103197 
L 245.560825 123.967147 
L 246.815933 123.967147 
L 247.443486 122.831097 
L 248.07104 122.831097 
L 248.698594 121.695047 
L 249.953702 121.695047 
L 250.581256 120.558997 
L 251.836364 120.558997 
L 252.463918 119.422947 
L 253.719025 119.422947 
L 254.346579 118.286897 
L 254.974133 118.286897 
L 255.601687 117.150846 
L 256.856795 117.150846 
L 257.484349 116.014796 
L 258.739456 116.014796 
L 259.36701 114.878746 
L 260.622118 114.878746 
L 261.249672 113.742696 
L 261.877226 113.742696 
L 262.50478 112.606646 
L 263.759888 112.606646 
L 264.387441 111.470596 
L 265.642549 111.470596 
L 266.270103 110.334545 
L 266.897657 110.334545 
L 267.525211 109.198495 
L 268.780319 109.198495 
L 269.407873 108.062445 
L 270.66298 108.062445 
L 271.290534 106.926395 
L 272.545642 106.926395 
L 273.173196 105.790345 
L 274.428304 105.790345 
L 275.055858 104.654295 
L 276.310965 104.654295 
L 276.938519 103.518245 
L 277.566073 103.518245 
L 278.193627 102.382194 
L 280.076289 102.382194 
L 280.703843 101.246144 
L 281.95895 101.246144 
L 282.586504 100.110094 
L 283.214058 100.110094 
L 283.841612 98.974044 
L 285.09672 98.974044 
L 285.724274 97.837994 
L 286.979381 97.837994 
L 287.606935 96.701944 
L 288.862043 96.701944 
L 289.489597 95.565893 
L 290.117151 95.565893 
L 290.744705 94.429843 
L 291.999813 94.429843 
L 292.627366 93.293793 
L 293.882474 93.293793 
L 294.510028 92.157743 
L 295.137582 92.157743 
L 295.765136 91.021693 
L 297.020244 91.021693 
L 297.647798 89.885643 
L 298.902905 89.885643 
L 299.530459 88.749592 
L 300.785567 88.749592 
L 301.413121 87.613542 
L 302.668229 87.613542 
L 303.295783 86.477492 
L 304.55089 86.477492 
L 305.178444 85.341442 
L 306.433552 85.341442 
L 307.061106 84.205392 
L 307.68866 84.205392 
L 308.316214 83.069342 
L 309.571321 83.069342 
L 310.198875 81.933292 
L 311.453983 81.933292 
L 312.081537 80.797241 
L 312.709091 80.797241 
L 313.336645 79.661191 
L 314.591753 79.661191 
L 315.219306 78.525141 
L 316.474414 78.525141 
L 317.101968 77.389091 
L 318.357076 77.389091 
L 318.98463 76.253041 
L 320.239738 76.253041 
L 320.867291 75.116991 
L 322.749953 75.116991 
L 323.377507 73.98094 
L 324.632615 73.98094 
L 325.260169 72.84489 
L 326.515276 72.84489 
L 327.14283 71.70884 
L 327.770384 71.70884 
L 328.397938 70.57279 
L 330.2806 70.57279 
L 330.908154 69.43674 
L 332.163261 69.43674 
L 332.790815 68.30069 
L 334.045923 68.30069 
L 334.673477 67.164639 
L 335.928585 67.164639 
L 336.556139 66.028589 
L 337.183693 66.028589 
L 337.811246 64.892539 
L 339.066354 64.892539 
L 339.693908 63.756489 
L 340.321462 63.756489 
L 340.949016 62.620439 
L 342.204124 62.620439 
L 342.831678 61.484389 
L 344.086785 61.484389 
L 344.714339 60.348339 
L 345.969447 60.348339 
L 346.597001 59.212288 
L 347.852109 59.212288 
L 348.479663 58.076238 
L 349.73477 58.076238 
L 350.362324 56.940188 
L 351.617432 56.940188 
L 352.244986 55.804138 
L 353.500094 55.804138 
L 354.127648 54.668088 
L 355.382755 54.668088 
L 356.010309 53.532038 
L 357.265417 53.532038 
L 357.892971 52.395987 
L 359.148079 52.395987 
L 359.775633 51.259937 
L 361.03074 51.259937 
L 361.658294 50.123887 
L 362.913402 50.123887 
L 363.540956 48.987837 
L 364.796064 48.987837 
L 365.423618 47.851787 
L 366.678725 47.851787 
L 367.306279 46.715737 
L 368.561387 46.715737 
L 369.188941 45.579687 
L 369.816495 45.579687 
L 370.444049 44.443636 
L 370.444049 44.443636 
" style="fill:none;stroke:#1f77b4;stroke-linecap:square;stroke-width:1.5;"/>
   </g>
   <g id="line2d_16">
    <path clip-path="url(#p0f6e6ecf09)" d="M 69.218182 241.033662 
L 76.121275 235.617157 
L 82.396813 230.773494 
L 83.651921 230.755862 
L 84.279475 229.619812 
L 84.907029 229.619812 
L 85.534583 228.483762 
L 86.789691 228.483762 
L 87.417245 227.347712 
L 88.044799 227.347712 
L 88.672352 226.211661 
L 89.92746 226.211661 
L 90.555014 225.075611 
L 91.182568 225.075611 
L 91.810122 223.939561 
L 93.06523 223.939561 
L 93.692784 222.803511 
L 94.320337 222.803511 
L 94.947891 221.667461 
L 96.202999 221.667461 
L 96.830553 220.531411 
L 97.458107 220.531411 
L 98.085661 219.395361 
L 99.340769 219.395361 
L 99.968322 218.25931 
L 100.595876 218.25931 
L 101.22343 217.12326 
L 102.478538 217.12326 
L 103.106092 215.98721 
L 103.733646 215.98721 
L 104.3612 214.85116 
L 105.616307 214.85116 
L 106.243861 213.71511 
L 106.871415 213.71511 
L 107.498969 212.57906 
L 108.754077 212.57906 
L 109.381631 211.443009 
L 110.009185 211.443009 
L 110.636739 210.306959 
L 111.891846 210.306959 
L 112.5194 209.170909 
L 113.146954 209.170909 
L 113.774508 208.034859 
L 115.029616 208.034859 
L 115.65717 206.898809 
L 116.284724 206.898809 
L 116.912277 205.762759 
L 118.167385 205.762759 
L 118.794939 204.626708 
L 119.422493 204.626708 
L 120.050047 203.490658 
L 121.305155 203.490658 
L 121.932709 202.354608 
L 123.187816 202.354608 
L 123.81537 201.218558 
L 125.070478 201.218558 
L 125.698032 200.082508 
L 126.95314 200.082508 
L 127.580694 198.946458 
L 129.463355 198.946458 
L 130.090909 197.810408 
L 131.346017 197.810408 
L 131.973571 196.674357 
L 133.228679 196.674357 
L 133.856232 195.538307 
L 135.11134 195.538307 
L 135.738894 194.402257 
L 136.994002 194.402257 
L 137.621556 193.266207 
L 138.876664 193.266207 
L 139.504217 192.130157 
L 140.759325 192.130157 
L 141.386879 190.994107 
L 142.014433 190.994107 
L 142.641987 189.858056 
L 143.897095 189.858056 
L 144.524649 188.722006 
L 145.779756 188.722006 
L 146.40731 187.585956 
L 147.662418 187.585956 
L 148.289972 186.449906 
L 149.54508 186.449906 
L 150.172634 185.313856 
L 151.427741 185.313856 
L 152.055295 184.177806 
L 153.310403 184.177806 
L 153.937957 183.041755 
L 155.193065 183.041755 
L 155.820619 181.905705 
L 157.075726 181.905705 
L 157.70328 180.769655 
L 158.330834 180.769655 
L 158.958388 179.633605 
L 160.213496 179.633605 
L 160.84105 178.497555 
L 162.096157 178.497555 
L 162.723711 177.361505 
L 163.978819 177.361505 
L 164.606373 176.225455 
L 165.861481 176.225455 
L 166.489035 175.089404 
L 167.744142 175.089404 
L 168.371696 173.953354 
L 169.626804 173.953354 
L 170.254358 172.817304 
L 170.881912 172.817304 
L 171.509466 171.681254 
L 172.764574 171.681254 
L 173.392127 170.545204 
L 174.647235 170.545204 
L 175.274789 169.409154 
L 176.529897 169.409154 
L 177.157451 168.273103 
L 178.412559 168.273103 
L 179.040112 167.137053 
L 180.29522 167.137053 
L 180.922774 166.001003 
L 181.550328 166.001003 
L 182.177882 164.864953 
L 183.43299 164.864953 
L 184.060544 163.728903 
L 185.315651 163.728903 
L 185.943205 162.592853 
L 187.198313 162.592853 
L 187.825867 161.456803 
L 189.080975 161.456803 
L 189.708529 160.320752 
L 190.336082 160.320752 
L 190.963636 159.184702 
L 192.218744 159.184702 
L 192.846298 158.048652 
L 194.101406 158.048652 
L 194.72896 156.912602 
L 195.984067 156.912602 
L 196.611621 155.776552 
L 197.866729 155.776552 
L 198.494283 154.640502 
L 199.749391 154.640502 
L 200.376945 153.504451 
L 201.004499 153.504451 
L 201.632052 152.368401 
L 202.88716 152.368401 
L 203.514714 151.232351 
L 204.769822 151.232351 
L 205.397376 150.096301 
L 206.652484 150.096301 
L 207.280037 148.960251 
L 208.535145 148.960251 
L 209.162699 147.824201 
L 209.790253 147.824201 
L 210.417807 146.68815 
L 211.672915 146.68815 
L 212.300469 145.5521 
L 213.555576 145.5521 
L 214.18313 144.41605 
L 215.438238 144.41605 
L 216.065792 143.28 
L 217.3209 143.28 
L 217.948454 142.14395 
L 218.576007 142.14395 
L 219.203561 141.0079 
L 220.458669 141.0079 
L 221.086223 139.87185 
L 222.341331 139.87185 
L 222.968885 138.735799 
L 224.223993 138.735799 
L 224.851546 137.599749 
L 226.106654 137.599749 
L 226.734208 136.463699 
L 227.361762 136.463699 
L 227.989316 135.327649 
L 229.244424 135.327649 
L 229.871978 134.191599 
L 231.127085 134.191599 
L 231.754639 133.055549 
L 233.009747 133.055549 
L 233.637301 131.919498 
L 234.264855 131.919498 
L 234.892409 130.783448 
L 236.147516 130.783448 
L 236.77507 129.647398 
L 238.030178 129.647398 
L 238.657732 128.511348 
L 239.91284 128.511348 
L 240.540394 127.375298 
L 241.167948 127.375298 
L 241.795501 126.239248 
L 243.050609 126.239248 
L 243.678163 125.103197 
L 244.933271 125.103197 
L 245.560825 123.967147 
L 246.815933 123.967147 
L 247.443486 122.831097 
L 248.07104 122.831097 
L 248.698594 121.695047 
L 249.953702 121.695047 
L 250.581256 120.558997 
L 251.836364 120.558997 
L 252.463918 119.422947 
L 253.719025 119.422947 
L 254.346579 118.286897 
L 254.974133 118.286897 
L 255.601687 117.150846 
L 256.856795 117.150846 
L 257.484349 116.014796 
L 258.739456 116.014796 
L 259.36701 114.878746 
L 260.622118 114.878746 
L 261.249672 113.742696 
L 261.877226 113.742696 
L 262.50478 112.606646 
L 263.759888 112.606646 
L 264.387441 111.470596 
L 265.642549 111.470596 
L 266.270103 110.334545 
L 266.897657 110.334545 
L 267.525211 109.198495 
L 268.780319 109.198495 
L 269.407873 108.062445 
L 270.66298 108.062445 
L 271.290534 106.926395 
L 272.545642 106.926395 
L 273.173196 105.790345 
L 274.428304 105.790345 
L 275.055858 104.654295 
L 276.310965 104.654295 
L 276.938519 103.518245 
L 278.193627 103.518245 
L 278.821181 102.382194 
L 280.076289 102.382194 
L 280.703843 101.246144 
L 281.95895 101.246144 
L 282.586504 100.110094 
L 283.214058 100.110094 
L 283.841612 98.974044 
L 285.09672 98.974044 
L 285.724274 97.837994 
L 286.979381 97.837994 
L 287.606935 96.701944 
L 288.862043 96.701944 
L 289.489597 95.565893 
L 290.744705 95.565893 
L 291.372259 94.429843 
L 291.999813 94.429843 
L 292.627366 93.293793 
L 293.882474 93.293793 
L 294.510028 92.157743 
L 295.137582 92.157743 
L 295.765136 91.021693 
L 296.39269 93.293793 
L 297.020244 93.293793 
L 297.647798 94.429843 
L 298.275351 94.429843 
L 298.902905 95.565893 
L 300.158013 95.565893 
L 300.785567 94.429843 
L 302.040675 94.429843 
L 303.295783 96.701944 
L 303.923336 96.701944 
L 304.55089 97.837994 
L 305.805998 97.837994 
L 306.433552 98.974044 
L 307.061106 97.837994 
L 308.316214 97.837994 
L 308.943768 96.701944 
L 309.571321 96.701944 
L 310.198875 98.974044 
L 310.826429 100.110094 
L 312.081537 100.110094 
L 312.709091 98.974044 
L 313.336645 98.974044 
L 313.964199 97.837994 
L 314.591753 100.110094 
L 315.219306 101.246144 
L 318.357076 101.246144 
L 318.98463 100.110094 
L 319.612184 100.110094 
L 321.494845 103.518245 
L 322.749953 103.518245 
L 323.377507 104.654295 
L 324.005061 104.654295 
L 324.632615 105.790345 
L 325.260169 105.790345 
L 325.887723 104.654295 
L 327.14283 104.654295 
L 327.770384 103.518245 
L 328.397938 103.518245 
L 329.653046 105.790345 
L 330.2806 105.790345 
L 330.908154 106.926395 
L 331.535708 106.926395 
L 332.163261 108.062445 
L 333.418369 108.062445 
L 334.673477 110.334545 
L 337.183693 110.334545 
L 337.811246 109.198495 
L 339.066354 109.198495 
L 340.321462 111.470596 
L 340.949016 111.470596 
L 341.57657 112.606646 
L 342.204124 112.606646 
L 342.831678 111.470596 
L 344.714339 111.470596 
L 345.341893 112.606646 
L 345.969447 112.606646 
L 346.597001 113.742696 
L 347.224555 113.742696 
L 347.852109 114.878746 
L 349.107216 114.878746 
L 349.73477 113.742696 
L 351.617432 113.742696 
L 352.87254 116.014796 
L 354.127648 116.014796 
L 354.755201 117.150846 
L 355.382755 116.014796 
L 356.010309 116.014796 
L 356.637863 117.150846 
L 357.265417 117.150846 
L 357.892971 118.286897 
L 358.520525 117.150846 
L 359.148079 117.150846 
L 359.775633 116.014796 
L 361.03074 116.014796 
L 361.658294 117.150846 
L 362.285848 117.150846 
L 362.913402 118.286897 
L 363.540956 118.286897 
L 364.16851 119.422947 
L 365.423618 119.422947 
L 366.051172 118.286897 
L 367.306279 118.286897 
L 367.933833 117.150846 
L 369.188941 117.150846 
L 369.816495 116.014796 
L 370.444049 116.014796 
L 371.071603 242.116364 
L 373.581818 242.116364 
L 373.581818 242.116364 
" style="fill:none;stroke:#ff7f0e;stroke-linecap:square;stroke-width:1.5;"/>
   </g>
   <g id="patch_3">
    <path d="M 54 252 
L 54 34.56 
" style="fill:none;stroke:#000000;stroke-linecap:square;stroke-linejoin:miter;stroke-width:0.8;"/>
   </g>
   <g id="patch_4">
    <path d="M 388.8 252 
L 388.8 34.56 
" style="fill:none;stroke:#000000;stroke-linecap:square;stroke-linejoin:miter;stroke-width:0.8;"/>
   </g>
   <g id="patch_5">
    <path d="M 54 252 
L 388.8 252 
" style="fill:none;stroke:#000000;stroke-linecap:square;stroke-linejoin:miter;stroke-width:0.8;"/>
   </g>
   <g id="patch_6">
    <path d="M 54 34.56 
L 388.8 34.56 
" style="fill:none;stroke:#000000;stroke-linecap:square;stroke-linejoin:miter;stroke-width:0.8;"/>
   </g>
   <g id="legend_1">
    <g id="patch_7">
     <path d="M 61 71.91625 
L 115.121875 71.91625 
Q 117.121875 71.91625 117.121875 69.91625 
L 117.121875 41.56 
Q 117.121875 39.56 115.121875 39.56 
L 61 39.56 
Q 59 39.56 59 41.56 
L 59 69.91625 
Q 59 71.91625 61 71.91625 
z
" style="fill:#ffffff;opacity:0.8;stroke:#cccccc;stroke-linejoin:miter;"/>
    </g>
    <g id="line2d_17">
     <path d="M 63 47.658437 
L 83 47.658437 
" style="fill:none;stroke:#1f77b4;stroke-linecap:square;stroke-width:1.5;"/>
    </g>
    <g id="line2d_18"/>
    <g id="text_16">
     <!-- VIRT -->
     <g transform="translate(91 51.158437)scale(0.1 -0.1)">
      <defs>
       <path d="M 28.609375 0 
L 0.78125 72.90625 
L 11.078125 72.90625 
L 34.1875 11.53125 
L 57.328125 72.90625 
L 67.578125 72.90625 
L 39.796875 0 
z
" id="DejaVuSans-86"/>
       <path d="M 9.8125 72.90625 
L 19.671875 72.90625 
L 19.671875 0 
L 9.8125 0 
z
" id="DejaVuSans-73"/>
       <path d="M 44.390625 34.1875 
Q 47.5625 33.109375 50.5625 29.59375 
Q 53.5625 26.078125 56.59375 19.921875 
L 66.609375 0 
L 56 0 
L 46.6875 18.703125 
Q 43.0625 26.03125 39.671875 28.421875 
Q 36.28125 30.8125 30.421875 30.8125 
L 19.671875 30.8125 
L 19.671875 0 
L 9.8125 0 
L 9.8125 72.90625 
L 32.078125 72.90625 
Q 44.578125 72.90625 50.734375 67.671875 
Q 56.890625 62.453125 56.890625 51.90625 
Q 56.890625 45.015625 53.6875 40.46875 
Q 50.484375 35.9375 44.390625 34.1875 
z
M 19.671875 64.796875 
L 19.671875 38.921875 
L 32.078125 38.921875 
Q 39.203125 38.921875 42.84375 42.21875 
Q 46.484375 45.515625 46.484375 51.90625 
Q 46.484375 58.296875 42.84375 61.546875 
Q 39.203125 64.796875 32.078125 64.796875 
z
" id="DejaVuSans-82"/>
       <path d="M -0.296875 72.90625 
L 61.375 72.90625 
L 61.375 64.59375 
L 35.5 64.59375 
L 35.5 0 
L 25.59375 0 
L 25.59375 64.59375 
L -0.296875 64.59375 
z
" id="DejaVuSans-84"/>
      </defs>
      <use xlink:href="#DejaVuSans-86"/>
      <use x="68.408203" xlink:href="#DejaVuSans-73"/>
      <use x="97.900391" xlink:href="#DejaVuSans-82"/>
      <use x="160.132812" xlink:href="#DejaVuSans-84"/>
     </g>
    </g>
    <g id="line2d_19">
     <path d="M 63 62.336562 
L 83 62.336562 
" style="fill:none;stroke:#ff7f0e;stroke-linecap:square;stroke-width:1.5;"/>
    </g>
    <g id="line2d_20"/>
    <g id="text_17">
     <!-- RES -->
     <g transform="translate(91 65.836562)scale(0.1 -0.1)">
      <defs>
       <path d="M 9.8125 72.90625 
L 55.90625 72.90625 
L 55.90625 64.59375 
L 19.671875 64.59375 
L 19.671875 43.015625 
L 54.390625 43.015625 
L 54.390625 34.71875 
L 19.671875 34.71875 
L 19.671875 8.296875 
L 56.78125 8.296875 
L 56.78125 0 
L 9.8125 0 
z
" id="DejaVuSans-69"/>
       <path d="M 53.515625 70.515625 
L 53.515625 60.890625 
Q 47.90625 63.578125 42.921875 64.890625 
Q 37.9375 66.21875 33.296875 66.21875 
Q 25.25 66.21875 20.875 63.09375 
Q 16.5 59.96875 16.5 54.203125 
Q 16.5 49.359375 19.40625 46.890625 
Q 22.3125 44.4375 30.421875 42.921875 
L 36.375 41.703125 
Q 47.40625 39.59375 52.65625 34.296875 
Q 57.90625 29 57.90625 20.125 
Q 57.90625 9.515625 50.796875 4.046875 
Q 43.703125 -1.421875 29.984375 -1.421875 
Q 24.8125 -1.421875 18.96875 -0.25 
Q 13.140625 0.921875 6.890625 3.21875 
L 6.890625 13.375 
Q 12.890625 10.015625 18.65625 8.296875 
Q 24.421875 6.59375 29.984375 6.59375 
Q 38.421875 6.59375 43.015625 9.90625 
Q 47.609375 13.234375 47.609375 19.390625 
Q 47.609375 24.75 44.3125 27.78125 
Q 41.015625 30.8125 33.5 32.328125 
L 27.484375 33.5 
Q 16.453125 35.6875 11.515625 40.375 
Q 6.59375 45.0625 6.59375 53.421875 
Q 6.59375 63.09375 13.40625 68.65625 
Q 20.21875 74.21875 32.171875 74.21875 
Q 37.3125 74.21875 42.625 73.28125 
Q 47.953125 72.359375 53.515625 70.515625 
z
" id="DejaVuSans-83"/>
      </defs>
      <use xlink:href="#DejaVuSans-82"/>
      <use x="69.482422" xlink:href="#DejaVuSans-69"/>
      <use x="132.666016" xlink:href="#DejaVuSans-83"/>
     </g>
    </g>
   </g>
  </g>
 </g>
 <defs>
  <clipPath id="p0f6e6ecf09">
   <rect height="217.44" width="334.8" x="54" y="34.56"/>
  </clipPath>
 </defs>
</svg>
