<?xml version="1.0" encoding="utf-8" standalone="no"?>
<!DOCTYPE svg PUBLIC "-//W3C//DTD SVG 1.1//EN"
  "http://www.w3.org/Graphics/SVG/1.1/DTD/svg11.dtd">
<!-- Created with matplotlib (https://matplotlib.org/) -->
<svg height="288pt" version="1.1" viewBox="0 0 432 288" width="432pt" xmlns="http://www.w3.org/2000/svg" xmlns:xlink="http://www.w3.org/1999/xlink">
 <metadata>
  <rdf:RDF xmlns:cc="http://creativecommons.org/ns#" xmlns:dc="http://purl.org/dc/elements/1.1/" xmlns:rdf="http://www.w3.org/1999/02/22-rdf-syntax-ns#">
   <cc:Work>
    <dc:type rdf:resource="http://purl.org/dc/dcmitype/StillImage"/>
    <dc:date>2020-11-23T19:35:21.330786</dc:date>
    <dc:format>image/svg+xml</dc:format>
    <dc:creator>
     <cc:Agent>
      <dc:title>Matplotlib v3.3.0, https://matplotlib.org/</dc:title>
     </cc:Agent>
    </dc:creator>
   </cc:Work>
  </rdf:RDF>
 </metadata>
 <defs>
  <style type="text/css">*{stroke-linecap:butt;stroke-linejoin:round;}</style>
 </defs>
 <g id="figure_1">
  <g id="patch_1">
   <path d="M 0 288 
L 432 288 
L 432 0 
L 0 0 
z
" style="fill:none;"/>
  </g>
  <g id="axes_1">
   <g id="patch_2">
    <path d="M 54 252 
L 388.8 252 
L 388.8 34.56 
L 54 34.56 
z
" style="fill:#ffffff;"/>
   </g>
   <g id="matplotlib.axis_1">
    <g id="xtick_1">
     <g id="line2d_1">
      <defs>
       <path d="M 0 0 
L 0 3.5 
" id="ma2268beace" style="stroke:#000000;stroke-width:0.8;"/>
      </defs>
      <g>
       <use style="stroke:#000000;stroke-width:0.8;" x="69.218182" xlink:href="#ma2268beace" y="252"/>
      </g>
     </g>
     <g id="text_1">
      <!-- 0 -->
      <g transform="translate(66.036932 266.598437)scale(0.1 -0.1)">
       <defs>
        <path d="M 31.78125 66.40625 
Q 24.171875 66.40625 20.328125 58.90625 
Q 16.5 51.421875 16.5 36.375 
Q 16.5 21.390625 20.328125 13.890625 
Q 24.171875 6.390625 31.78125 6.390625 
Q 39.453125 6.390625 43.28125 13.890625 
Q 47.125 21.390625 47.125 36.375 
Q 47.125 51.421875 43.28125 58.90625 
Q 39.453125 66.40625 31.78125 66.40625 
z
M 31.78125 74.21875 
Q 44.046875 74.21875 50.515625 64.515625 
Q 56.984375 54.828125 56.984375 36.375 
Q 56.984375 17.96875 50.515625 8.265625 
Q 44.046875 -1.421875 31.78125 -1.421875 
Q 19.53125 -1.421875 13.0625 8.265625 
Q 6.59375 17.96875 6.59375 36.375 
Q 6.59375 54.828125 13.0625 64.515625 
Q 19.53125 74.21875 31.78125 74.21875 
z
" id="DejaVuSans-48"/>
       </defs>
       <use xlink:href="#DejaVuSans-48"/>
      </g>
     </g>
    </g>
    <g id="xtick_2">
     <g id="line2d_2">
      <g>
       <use style="stroke:#000000;stroke-width:0.8;" x="130.705785" xlink:href="#ma2268beace" y="252"/>
      </g>
     </g>
     <g id="text_2">
      <!-- 100 -->
      <g transform="translate(121.162035 266.598437)scale(0.1 -0.1)">
       <defs>
        <path d="M 12.40625 8.296875 
L 28.515625 8.296875 
L 28.515625 63.921875 
L 10.984375 60.40625 
L 10.984375 69.390625 
L 28.421875 72.90625 
L 38.28125 72.90625 
L 38.28125 8.296875 
L 54.390625 8.296875 
L 54.390625 0 
L 12.40625 0 
z
" id="DejaVuSans-49"/>
       </defs>
       <use xlink:href="#DejaVuSans-49"/>
       <use x="63.623047" xlink:href="#DejaVuSans-48"/>
       <use x="127.246094" xlink:href="#DejaVuSans-48"/>
      </g>
     </g>
    </g>
    <g id="xtick_3">
     <g id="line2d_3">
      <g>
       <use style="stroke:#000000;stroke-width:0.8;" x="192.193388" xlink:href="#ma2268beace" y="252"/>
      </g>
     </g>
     <g id="text_3">
      <!-- 200 -->
      <g transform="translate(182.649638 266.598437)scale(0.1 -0.1)">
       <defs>
        <path d="M 19.1875 8.296875 
L 53.609375 8.296875 
L 53.609375 0 
L 7.328125 0 
L 7.328125 8.296875 
Q 12.9375 14.109375 22.625 23.890625 
Q 32.328125 33.6875 34.8125 36.53125 
Q 39.546875 41.84375 41.421875 45.53125 
Q 43.3125 49.21875 43.3125 52.78125 
Q 43.3125 58.59375 39.234375 62.25 
Q 35.15625 65.921875 28.609375 65.921875 
Q 23.96875 65.921875 18.8125 64.3125 
Q 13.671875 62.703125 7.8125 59.421875 
L 7.8125 69.390625 
Q 13.765625 71.78125 18.9375 73 
Q 24.125 74.21875 28.421875 74.21875 
Q 39.75 74.21875 46.484375 68.546875 
Q 53.21875 62.890625 53.21875 53.421875 
Q 53.21875 48.921875 51.53125 44.890625 
Q 49.859375 40.875 45.40625 35.40625 
Q 44.1875 33.984375 37.640625 27.21875 
Q 31.109375 20.453125 19.1875 8.296875 
z
" id="DejaVuSans-50"/>
       </defs>
       <use xlink:href="#DejaVuSans-50"/>
       <use x="63.623047" xlink:href="#DejaVuSans-48"/>
       <use x="127.246094" xlink:href="#DejaVuSans-48"/>
      </g>
     </g>
    </g>
    <g id="xtick_4">
     <g id="line2d_4">
      <g>
       <use style="stroke:#000000;stroke-width:0.8;" x="253.680992" xlink:href="#ma2268beace" y="252"/>
      </g>
     </g>
     <g id="text_4">
      <!-- 300 -->
      <g transform="translate(244.137242 266.598437)scale(0.1 -0.1)">
       <defs>
        <path d="M 40.578125 39.3125 
Q 47.65625 37.796875 51.625 33 
Q 55.609375 28.21875 55.609375 21.1875 
Q 55.609375 10.40625 48.1875 4.484375 
Q 40.765625 -1.421875 27.09375 -1.421875 
Q 22.515625 -1.421875 17.65625 -0.515625 
Q 12.796875 0.390625 7.625 2.203125 
L 7.625 11.71875 
Q 11.71875 9.328125 16.59375 8.109375 
Q 21.484375 6.890625 26.8125 6.890625 
Q 36.078125 6.890625 40.9375 10.546875 
Q 45.796875 14.203125 45.796875 21.1875 
Q 45.796875 27.640625 41.28125 31.265625 
Q 36.765625 34.90625 28.71875 34.90625 
L 20.21875 34.90625 
L 20.21875 43.015625 
L 29.109375 43.015625 
Q 36.375 43.015625 40.234375 45.921875 
Q 44.09375 48.828125 44.09375 54.296875 
Q 44.09375 59.90625 40.109375 62.90625 
Q 36.140625 65.921875 28.71875 65.921875 
Q 24.65625 65.921875 20.015625 65.03125 
Q 15.375 64.15625 9.8125 62.3125 
L 9.8125 71.09375 
Q 15.4375 72.65625 20.34375 73.4375 
Q 25.25 74.21875 29.59375 74.21875 
Q 40.828125 74.21875 47.359375 69.109375 
Q 53.90625 64.015625 53.90625 55.328125 
Q 53.90625 49.265625 50.4375 45.09375 
Q 46.96875 40.921875 40.578125 39.3125 
z
" id="DejaVuSans-51"/>
       </defs>
       <use xlink:href="#DejaVuSans-51"/>
       <use x="63.623047" xlink:href="#DejaVuSans-48"/>
       <use x="127.246094" xlink:href="#DejaVuSans-48"/>
      </g>
     </g>
    </g>
    <g id="xtick_5">
     <g id="line2d_5">
      <g>
       <use style="stroke:#000000;stroke-width:0.8;" x="315.168595" xlink:href="#ma2268beace" y="252"/>
      </g>
     </g>
     <g id="text_5">
      <!-- 400 -->
      <g transform="translate(305.624845 266.598437)scale(0.1 -0.1)">
       <defs>
        <path d="M 37.796875 64.3125 
L 12.890625 25.390625 
L 37.796875 25.390625 
z
M 35.203125 72.90625 
L 47.609375 72.90625 
L 47.609375 25.390625 
L 58.015625 25.390625 
L 58.015625 17.1875 
L 47.609375 17.1875 
L 47.609375 0 
L 37.796875 0 
L 37.796875 17.1875 
L 4.890625 17.1875 
L 4.890625 26.703125 
z
" id="DejaVuSans-52"/>
       </defs>
       <use xlink:href="#DejaVuSans-52"/>
       <use x="63.623047" xlink:href="#DejaVuSans-48"/>
       <use x="127.246094" xlink:href="#DejaVuSans-48"/>
      </g>
     </g>
    </g>
    <g id="xtick_6">
     <g id="line2d_6">
      <g>
       <use style="stroke:#000000;stroke-width:0.8;" x="376.656198" xlink:href="#ma2268beace" y="252"/>
      </g>
     </g>
     <g id="text_6">
      <!-- 500 -->
      <g transform="translate(367.112448 266.598437)scale(0.1 -0.1)">
       <defs>
        <path d="M 10.796875 72.90625 
L 49.515625 72.90625 
L 49.515625 64.59375 
L 19.828125 64.59375 
L 19.828125 46.734375 
Q 21.96875 47.46875 24.109375 47.828125 
Q 26.265625 48.1875 28.421875 48.1875 
Q 40.625 48.1875 47.75 41.5 
Q 54.890625 34.8125 54.890625 23.390625 
Q 54.890625 11.625 47.5625 5.09375 
Q 40.234375 -1.421875 26.90625 -1.421875 
Q 22.3125 -1.421875 17.546875 -0.640625 
Q 12.796875 0.140625 7.71875 1.703125 
L 7.71875 11.625 
Q 12.109375 9.234375 16.796875 8.0625 
Q 21.484375 6.890625 26.703125 6.890625 
Q 35.15625 6.890625 40.078125 11.328125 
Q 45.015625 15.765625 45.015625 23.390625 
Q 45.015625 31 40.078125 35.4375 
Q 35.15625 39.890625 26.703125 39.890625 
Q 22.75 39.890625 18.8125 39.015625 
Q 14.890625 38.140625 10.796875 36.28125 
z
" id="DejaVuSans-53"/>
       </defs>
       <use xlink:href="#DejaVuSans-53"/>
       <use x="63.623047" xlink:href="#DejaVuSans-48"/>
       <use x="127.246094" xlink:href="#DejaVuSans-48"/>
      </g>
     </g>
    </g>
   </g>
   <g id="matplotlib.axis_2">
    <g id="ytick_1">
     <g id="line2d_7">
      <defs>
       <path d="M 0 0 
L -3.5 0 
" id="m5b84cb0c9c" style="stroke:#000000;stroke-width:0.8;"/>
      </defs>
      <g>
       <use style="stroke:#000000;stroke-width:0.8;" x="54" xlink:href="#m5b84cb0c9c" y="242.116364"/>
      </g>
     </g>
     <g id="text_7">
      <!-- 0 -->
      <g transform="translate(40.6375 245.915582)scale(0.1 -0.1)">
       <use xlink:href="#DejaVuSans-48"/>
      </g>
     </g>
    </g>
    <g id="ytick_2">
     <g id="line2d_8">
      <g>
       <use style="stroke:#000000;stroke-width:0.8;" x="54" xlink:href="#m5b84cb0c9c" y="195.931147"/>
      </g>
     </g>
     <g id="text_8">
      <!-- 20 -->
      <g transform="translate(34.275 199.730366)scale(0.1 -0.1)">
       <use xlink:href="#DejaVuSans-50"/>
       <use x="63.623047" xlink:href="#DejaVuSans-48"/>
      </g>
     </g>
    </g>
    <g id="ytick_3">
     <g id="line2d_9">
      <g>
       <use style="stroke:#000000;stroke-width:0.8;" x="54" xlink:href="#m5b84cb0c9c" y="149.74593"/>
      </g>
     </g>
     <g id="text_9">
      <!-- 40 -->
      <g transform="translate(34.275 153.545149)scale(0.1 -0.1)">
       <use xlink:href="#DejaVuSans-52"/>
       <use x="63.623047" xlink:href="#DejaVuSans-48"/>
      </g>
     </g>
    </g>
    <g id="ytick_4">
     <g id="line2d_10">
      <g>
       <use style="stroke:#000000;stroke-width:0.8;" x="54" xlink:href="#m5b84cb0c9c" y="103.560714"/>
      </g>
     </g>
     <g id="text_10">
      <!-- 60 -->
      <g transform="translate(34.275 107.359932)scale(0.1 -0.1)">
       <defs>
        <path d="M 33.015625 40.375 
Q 26.375 40.375 22.484375 35.828125 
Q 18.609375 31.296875 18.609375 23.390625 
Q 18.609375 15.53125 22.484375 10.953125 
Q 26.375 6.390625 33.015625 6.390625 
Q 39.65625 6.390625 43.53125 10.953125 
Q 47.40625 15.53125 47.40625 23.390625 
Q 47.40625 31.296875 43.53125 35.828125 
Q 39.65625 40.375 33.015625 40.375 
z
M 52.59375 71.296875 
L 52.59375 62.3125 
Q 48.875 64.0625 45.09375 64.984375 
Q 41.3125 65.921875 37.59375 65.921875 
Q 27.828125 65.921875 22.671875 59.328125 
Q 17.53125 52.734375 16.796875 39.40625 
Q 19.671875 43.65625 24.015625 45.921875 
Q 28.375 48.1875 33.59375 48.1875 
Q 44.578125 48.1875 50.953125 41.515625 
Q 57.328125 34.859375 57.328125 23.390625 
Q 57.328125 12.15625 50.6875 5.359375 
Q 44.046875 -1.421875 33.015625 -1.421875 
Q 20.359375 -1.421875 13.671875 8.265625 
Q 6.984375 17.96875 6.984375 36.375 
Q 6.984375 53.65625 15.1875 63.9375 
Q 23.390625 74.21875 37.203125 74.21875 
Q 40.921875 74.21875 44.703125 73.484375 
Q 48.484375 72.75 52.59375 71.296875 
z
" id="DejaVuSans-54"/>
       </defs>
       <use xlink:href="#DejaVuSans-54"/>
       <use x="63.623047" xlink:href="#DejaVuSans-48"/>
      </g>
     </g>
    </g>
    <g id="ytick_5">
     <g id="line2d_11">
      <g>
       <use style="stroke:#000000;stroke-width:0.8;" x="54" xlink:href="#m5b84cb0c9c" y="57.375497"/>
      </g>
     </g>
     <g id="text_11">
      <!-- 80 -->
      <g transform="translate(34.275 61.174716)scale(0.1 -0.1)">
       <defs>
        <path d="M 31.78125 34.625 
Q 24.75 34.625 20.71875 30.859375 
Q 16.703125 27.09375 16.703125 20.515625 
Q 16.703125 13.921875 20.71875 10.15625 
Q 24.75 6.390625 31.78125 6.390625 
Q 38.8125 6.390625 42.859375 10.171875 
Q 46.921875 13.96875 46.921875 20.515625 
Q 46.921875 27.09375 42.890625 30.859375 
Q 38.875 34.625 31.78125 34.625 
z
M 21.921875 38.8125 
Q 15.578125 40.375 12.03125 44.71875 
Q 8.5 49.078125 8.5 55.328125 
Q 8.5 64.0625 14.71875 69.140625 
Q 20.953125 74.21875 31.78125 74.21875 
Q 42.671875 74.21875 48.875 69.140625 
Q 55.078125 64.0625 55.078125 55.328125 
Q 55.078125 49.078125 51.53125 44.71875 
Q 48 40.375 41.703125 38.8125 
Q 48.828125 37.15625 52.796875 32.3125 
Q 56.78125 27.484375 56.78125 20.515625 
Q 56.78125 9.90625 50.3125 4.234375 
Q 43.84375 -1.421875 31.78125 -1.421875 
Q 19.734375 -1.421875 13.25 4.234375 
Q 6.78125 9.90625 6.78125 20.515625 
Q 6.78125 27.484375 10.78125 32.3125 
Q 14.796875 37.15625 21.921875 38.8125 
z
M 18.3125 54.390625 
Q 18.3125 48.734375 21.84375 45.5625 
Q 25.390625 42.390625 31.78125 42.390625 
Q 38.140625 42.390625 41.71875 45.5625 
Q 45.3125 48.734375 45.3125 54.390625 
Q 45.3125 60.0625 41.71875 63.234375 
Q 38.140625 66.40625 31.78125 66.40625 
Q 25.390625 66.40625 21.84375 63.234375 
Q 18.3125 60.0625 18.3125 54.390625 
z
" id="DejaVuSans-56"/>
       </defs>
       <use xlink:href="#DejaVuSans-56"/>
       <use x="63.623047" xlink:href="#DejaVuSans-48"/>
      </g>
     </g>
    </g>
   </g>
   <g id="line2d_12">
    <path clip-path="url(#pb988adabbe)" d="M 69.218182 240.730807 
L 69.833058 240.268955 
L 71.677686 238.19062 
L 72.292562 237.728768 
L 73.522314 236.343212 
L 74.13719 235.881359 
L 75.366942 234.495803 
L 75.981818 234.033951 
L 77.21157 232.648394 
L 77.826446 232.186542 
L 78.441322 231.493764 
L 79.056198 231.031912 
L 80.28595 229.646355 
L 80.900826 229.184503 
L 82.130579 227.798946 
L 82.745455 227.337094 
L 83.360331 226.644316 
L 83.975207 226.182464 
L 85.204959 224.796907 
L 85.819835 224.335055 
L 86.434711 223.642277 
L 87.049587 223.180425 
L 88.279339 221.794868 
L 88.894215 221.333016 
L 89.509091 220.640238 
L 90.123967 220.178386 
L 91.353719 218.792829 
L 91.968595 218.330977 
L 92.583471 217.638199 
L 93.198347 217.176347 
L 93.813223 216.483568 
L 94.428099 216.021716 
L 95.657851 214.63616 
L 96.272727 214.174308 
L 96.887603 213.481529 
L 97.502479 213.019677 
L 98.732231 211.634121 
L 99.347107 211.172268 
L 99.961983 210.47949 
L 100.57686 210.017638 
L 101.806612 208.632082 
L 102.421488 208.170229 
L 103.036364 207.477451 
L 103.65124 207.015599 
L 104.266116 206.322821 
L 104.880992 205.860969 
L 106.110744 204.475412 
L 106.72562 204.01356 
L 107.340496 203.320782 
L 107.955372 202.858929 
L 108.570248 202.166151 
L 109.185124 201.704299 
L 110.414876 200.318743 
L 111.029752 199.85689 
L 111.644628 199.164112 
L 112.259504 198.70226 
L 112.87438 198.009482 
L 113.489256 197.54763 
L 114.719008 196.162073 
L 115.333884 195.700221 
L 115.94876 195.007443 
L 116.563636 194.54559 
L 117.793388 193.160034 
L 118.408264 192.698182 
L 119.02314 192.005404 
L 119.638017 191.543551 
L 120.252893 190.850773 
L 127.016529 185.770399 
L 127.631405 185.077621 
L 133.780165 180.459099 
L 134.395041 179.766321 
L 136.854545 177.918912 
L 137.469421 177.226134 
L 139.31405 175.840578 
L 139.928926 175.147799 
L 141.773554 173.762243 
L 142.38843 173.069465 
L 144.233058 171.683908 
L 144.847934 170.99113 
L 146.692562 169.605573 
L 147.307438 168.912795 
L 149.152066 167.527239 
L 149.766942 166.83446 
L 151.61157 165.448904 
L 152.226446 164.756126 
L 155.300826 162.446865 
L 155.915702 161.754087 
L 157.145455 160.830382 
L 157.760331 160.137604 
L 160.219835 158.290195 
L 160.834711 157.597417 
L 162.679339 156.211861 
L 163.294215 155.519082 
L 164.523967 154.595378 
L 165.138843 153.9026 
L 166.983471 152.517043 
L 167.598347 151.824265 
L 169.442975 150.438709 
L 170.057851 149.74593 
L 171.287603 148.822226 
L 171.902479 148.129448 
L 173.747107 146.743891 
L 174.361983 146.051113 
L 175.591736 145.127409 
L 176.206612 144.43463 
L 178.05124 143.049074 
L 178.666116 142.356296 
L 179.895868 141.432591 
L 180.510744 140.739813 
L 182.355372 139.354257 
L 182.970248 138.661478 
L 184.2 137.737774 
L 184.814876 137.044996 
L 186.044628 136.121291 
L 186.659504 135.428513 
L 188.504132 134.042957 
L 189.119008 133.350178 
L 190.34876 132.426474 
L 190.963636 131.733696 
L 192.808264 130.348139 
L 193.42314 129.655361 
L 194.652893 128.731657 
L 195.267769 128.038879 
L 197.112397 126.653322 
L 197.727273 125.960544 
L 198.957025 125.036839 
L 199.571901 124.344061 
L 200.801653 123.420357 
L 201.416529 122.727579 
L 203.261157 121.342022 
L 203.876033 120.649244 
L 205.105785 119.72554 
L 205.720661 119.032761 
L 206.950413 118.109057 
L 207.565289 117.416279 
L 209.409917 116.030722 
L 210.024793 115.337944 
L 211.254545 114.41424 
L 211.869421 113.721461 
L 213.099174 112.797757 
L 213.71405 112.104979 
L 214.943802 111.181274 
L 215.558678 110.488496 
L 217.403306 109.10294 
L 218.018182 108.410161 
L 219.247934 107.486457 
L 219.86281 106.793679 
L 221.092562 105.869975 
L 221.707438 105.177196 
L 222.93719 104.253492 
L 223.552066 103.560714 
L 224.781818 102.637009 
L 225.396694 101.944231 
L 226.626446 101.020527 
L 227.241322 100.327749 
L 228.471074 99.404044 
L 229.08595 98.711266 
L 230.315702 97.787562 
L 230.930579 97.094783 
L 232.160331 96.171079 
L 232.775207 95.478301 
L 234.004959 94.554596 
L 234.619835 93.861818 
L 235.849587 92.938114 
L 236.464463 92.245336 
L 237.694215 91.321631 
L 238.309091 90.628853 
L 239.538843 89.705149 
L 240.153719 89.01237 
L 241.383471 88.088666 
L 241.998347 87.395888 
L 243.228099 86.472184 
L 243.842975 85.779405 
L 245.072727 84.855701 
L 245.687603 84.162923 
L 246.302479 83.701071 
L 246.917355 83.008292 
L 248.147107 82.084588 
L 248.761983 81.39181 
L 249.991736 80.468105 
L 250.606612 79.775327 
L 251.836364 78.851623 
L 252.45124 78.158845 
L 253.680992 77.23514 
L 254.295868 76.542362 
L 255.52562 75.618658 
L 256.140496 74.925879 
L 256.755372 74.464027 
L 257.370248 73.771249 
L 258.6 72.847545 
L 259.214876 72.154766 
L 259.829752 71.692914 
L 260.444628 71.000136 
L 261.059504 70.538284 
L 261.67438 69.845506 
L 262.289256 69.383653 
L 262.904132 68.690875 
L 265.978512 66.381614 
L 266.593388 65.688836 
L 268.438017 64.30328 
L 269.052893 63.610501 
L 270.897521 62.224945 
L 271.512397 61.532167 
L 272.742149 60.608462 
L 273.357025 59.915684 
L 277.046281 57.144571 
L 277.661157 56.451793 
L 278.890909 55.528088 
L 279.505785 54.83531 
L 280.735537 53.911606 
L 281.350413 53.218828 
L 281.965289 52.756975 
L 282.580165 52.064197 
L 284.424793 50.678641 
L 285.039669 49.985862 
L 286.269421 49.062158 
L 286.884298 48.36938 
L 287.499174 48.138454 
L 290.573554 44.674562 
L 291.18843 44.443636 
L 291.803306 46.752897 
L 292.418182 47.214749 
L 293.033058 47.907528 
L 293.647934 48.36938 
L 294.877686 49.754936 
L 296.107438 48.831232 
L 296.722314 48.138454 
L 297.33719 47.676602 
L 297.952066 50.447715 
L 298.566942 50.909567 
L 299.181818 51.602345 
L 299.796694 52.064197 
L 301.026446 53.449754 
L 301.641322 53.911606 
L 302.256198 53.218828 
L 302.871074 52.756975 
L 303.48595 52.064197 
L 304.100826 51.602345 
L 304.715702 51.833271 
L 305.330579 54.373458 
L 305.945455 55.066236 
L 306.560331 55.297162 
L 307.175207 55.297162 
L 307.790083 54.604384 
L 308.404959 54.142532 
L 309.019835 53.449754 
L 309.634711 56.220867 
L 310.249587 56.913645 
L 311.479339 57.837349 
L 312.094215 57.606423 
L 312.709091 57.144571 
L 313.323967 56.451793 
L 313.938843 55.989941 
L 314.553719 56.220867 
L 315.168595 57.606423 
L 316.398347 59.453832 
L 317.628099 60.839388 
L 318.242975 61.30124 
L 318.857851 61.994019 
L 320.087603 62.917723 
L 320.702479 62.224945 
L 321.932231 61.30124 
L 322.547107 60.608462 
L 323.161983 60.608462 
L 323.77686 61.30124 
L 325.006612 63.841427 
L 325.621488 64.534206 
L 326.236364 64.996058 
L 326.85124 65.688836 
L 327.466116 66.150688 
L 328.080992 66.843466 
L 328.695868 67.305319 
L 329.310744 68.459949 
L 329.92562 68.921801 
L 330.540496 69.614579 
L 331.155372 69.614579 
L 333 67.536245 
L 333.614876 67.998097 
L 334.229752 68.921801 
L 334.844628 70.076432 
L 336.07438 71.461988 
L 336.689256 71.692914 
L 337.304132 71.000136 
L 337.919008 70.538284 
L 338.533884 69.845506 
L 339.14876 70.538284 
L 340.993388 73.309397 
L 342.838017 74.694953 
L 343.452893 74.464027 
L 344.067769 73.771249 
L 344.682645 73.309397 
L 345.297521 73.078471 
L 345.912397 74.002175 
L 346.527273 75.156805 
L 347.757025 76.542362 
L 348.371901 77.004214 
L 348.986777 77.696992 
L 349.601653 77.23514 
L 350.216529 77.23514 
L 350.831405 77.696992 
L 351.446281 78.389771 
L 352.061157 78.851623 
L 352.676033 78.389771 
L 353.290909 77.696992 
L 354.520661 76.773288 
L 355.135537 76.542362 
L 355.750413 77.23514 
L 356.980165 79.082549 
L 358.209917 80.468105 
L 359.439669 80.468105 
L 360.054545 80.237179 
L 360.669421 79.544401 
L 361.284298 79.082549 
L 361.899174 78.389771 
L 363.743802 77.004214 
L 364.358678 76.311436 
L 364.973554 242.116364 
L 373.581818 242.116364 
L 373.581818 242.116364 
" style="fill:none;stroke:#1f77b4;stroke-linecap:square;stroke-width:1.5;"/>
   </g>
   <g id="patch_3">
    <path d="M 54 252 
L 54 34.56 
" style="fill:none;stroke:#000000;stroke-linecap:square;stroke-linejoin:miter;stroke-width:0.8;"/>
   </g>
   <g id="patch_4">
    <path d="M 388.8 252 
L 388.8 34.56 
" style="fill:none;stroke:#000000;stroke-linecap:square;stroke-linejoin:miter;stroke-width:0.8;"/>
   </g>
   <g id="patch_5">
    <path d="M 54 252 
L 388.8 252 
" style="fill:none;stroke:#000000;stroke-linecap:square;stroke-linejoin:miter;stroke-width:0.8;"/>
   </g>
   <g id="patch_6">
    <path d="M 54 34.56 
L 388.8 34.56 
" style="fill:none;stroke:#000000;stroke-linecap:square;stroke-linejoin:miter;stroke-width:0.8;"/>
   </g>
  </g>
 </g>
 <defs>
  <clipPath id="pb988adabbe">
   <rect height="217.44" width="334.8" x="54" y="34.56"/>
  </clipPath>
 </defs>
</svg>
