<?xml version="1.0" encoding="utf-8" standalone="no"?>
<!DOCTYPE svg PUBLIC "-//W3C//DTD SVG 1.1//EN"
  "http://www.w3.org/Graphics/SVG/1.1/DTD/svg11.dtd">
<!-- Created with matplotlib (https://matplotlib.org/) -->
<svg height="288pt" version="1.1" viewBox="0 0 432 288" width="432pt" xmlns="http://www.w3.org/2000/svg" xmlns:xlink="http://www.w3.org/1999/xlink">
 <metadata>
  <rdf:RDF xmlns:cc="http://creativecommons.org/ns#" xmlns:dc="http://purl.org/dc/elements/1.1/" xmlns:rdf="http://www.w3.org/1999/02/22-rdf-syntax-ns#">
   <cc:Work>
    <dc:type rdf:resource="http://purl.org/dc/dcmitype/StillImage"/>
    <dc:date>2020-11-23T23:48:40.394011</dc:date>
    <dc:format>image/svg+xml</dc:format>
    <dc:creator>
     <cc:Agent>
      <dc:title>Matplotlib v3.3.0, https://matplotlib.org/</dc:title>
     </cc:Agent>
    </dc:creator>
   </cc:Work>
  </rdf:RDF>
 </metadata>
 <defs>
  <style type="text/css">*{stroke-linecap:butt;stroke-linejoin:round;}</style>
 </defs>
 <g id="figure_1">
  <g id="patch_1">
   <path d="M 0 288 
L 432 288 
L 432 0 
L 0 0 
z
" style="fill:none;"/>
  </g>
  <g id="axes_1">
   <g id="patch_2">
    <path d="M 54 252 
L 388.8 252 
L 388.8 34.56 
L 54 34.56 
z
" style="fill:#ffffff;"/>
   </g>
   <g id="matplotlib.axis_1">
    <g id="xtick_1">
     <g id="line2d_1">
      <defs>
       <path d="M 0 0 
L 0 3.5 
" id="meef3a2aeb2" style="stroke:#000000;stroke-width:0.8;"/>
      </defs>
      <g>
       <use style="stroke:#000000;stroke-width:0.8;" x="69.218182" xlink:href="#meef3a2aeb2" y="252"/>
      </g>
     </g>
     <g id="text_1">
      <!-- 0 -->
      <g transform="translate(66.036932 266.598437)scale(0.1 -0.1)">
       <defs>
        <path d="M 31.78125 66.40625 
Q 24.171875 66.40625 20.328125 58.90625 
Q 16.5 51.421875 16.5 36.375 
Q 16.5 21.390625 20.328125 13.890625 
Q 24.171875 6.390625 31.78125 6.390625 
Q 39.453125 6.390625 43.28125 13.890625 
Q 47.125 21.390625 47.125 36.375 
Q 47.125 51.421875 43.28125 58.90625 
Q 39.453125 66.40625 31.78125 66.40625 
z
M 31.78125 74.21875 
Q 44.046875 74.21875 50.515625 64.515625 
Q 56.984375 54.828125 56.984375 36.375 
Q 56.984375 17.96875 50.515625 8.265625 
Q 44.046875 -1.421875 31.78125 -1.421875 
Q 19.53125 -1.421875 13.0625 8.265625 
Q 6.59375 17.96875 6.59375 36.375 
Q 6.59375 54.828125 13.0625 64.515625 
Q 19.53125 74.21875 31.78125 74.21875 
z
" id="DejaVuSans-48"/>
       </defs>
       <use xlink:href="#DejaVuSans-48"/>
      </g>
     </g>
    </g>
    <g id="xtick_2">
     <g id="line2d_2">
      <g>
       <use style="stroke:#000000;stroke-width:0.8;" x="115.756964" xlink:href="#meef3a2aeb2" y="252"/>
      </g>
     </g>
     <g id="text_2">
      <!-- 50 -->
      <g transform="translate(109.394464 266.598437)scale(0.1 -0.1)">
       <defs>
        <path d="M 10.796875 72.90625 
L 49.515625 72.90625 
L 49.515625 64.59375 
L 19.828125 64.59375 
L 19.828125 46.734375 
Q 21.96875 47.46875 24.109375 47.828125 
Q 26.265625 48.1875 28.421875 48.1875 
Q 40.625 48.1875 47.75 41.5 
Q 54.890625 34.8125 54.890625 23.390625 
Q 54.890625 11.625 47.5625 5.09375 
Q 40.234375 -1.421875 26.90625 -1.421875 
Q 22.3125 -1.421875 17.546875 -0.640625 
Q 12.796875 0.140625 7.71875 1.703125 
L 7.71875 11.625 
Q 12.109375 9.234375 16.796875 8.0625 
Q 21.484375 6.890625 26.703125 6.890625 
Q 35.15625 6.890625 40.078125 11.328125 
Q 45.015625 15.765625 45.015625 23.390625 
Q 45.015625 31 40.078125 35.4375 
Q 35.15625 39.890625 26.703125 39.890625 
Q 22.75 39.890625 18.8125 39.015625 
Q 14.890625 38.140625 10.796875 36.28125 
z
" id="DejaVuSans-53"/>
       </defs>
       <use xlink:href="#DejaVuSans-53"/>
       <use x="63.623047" xlink:href="#DejaVuSans-48"/>
      </g>
     </g>
    </g>
    <g id="xtick_3">
     <g id="line2d_3">
      <g>
       <use style="stroke:#000000;stroke-width:0.8;" x="162.295746" xlink:href="#meef3a2aeb2" y="252"/>
      </g>
     </g>
     <g id="text_3">
      <!-- 100 -->
      <g transform="translate(152.751996 266.598437)scale(0.1 -0.1)">
       <defs>
        <path d="M 12.40625 8.296875 
L 28.515625 8.296875 
L 28.515625 63.921875 
L 10.984375 60.40625 
L 10.984375 69.390625 
L 28.421875 72.90625 
L 38.28125 72.90625 
L 38.28125 8.296875 
L 54.390625 8.296875 
L 54.390625 0 
L 12.40625 0 
z
" id="DejaVuSans-49"/>
       </defs>
       <use xlink:href="#DejaVuSans-49"/>
       <use x="63.623047" xlink:href="#DejaVuSans-48"/>
       <use x="127.246094" xlink:href="#DejaVuSans-48"/>
      </g>
     </g>
    </g>
    <g id="xtick_4">
     <g id="line2d_4">
      <g>
       <use style="stroke:#000000;stroke-width:0.8;" x="208.834529" xlink:href="#meef3a2aeb2" y="252"/>
      </g>
     </g>
     <g id="text_4">
      <!-- 150 -->
      <g transform="translate(199.290779 266.598437)scale(0.1 -0.1)">
       <use xlink:href="#DejaVuSans-49"/>
       <use x="63.623047" xlink:href="#DejaVuSans-53"/>
       <use x="127.246094" xlink:href="#DejaVuSans-48"/>
      </g>
     </g>
    </g>
    <g id="xtick_5">
     <g id="line2d_5">
      <g>
       <use style="stroke:#000000;stroke-width:0.8;" x="255.373311" xlink:href="#meef3a2aeb2" y="252"/>
      </g>
     </g>
     <g id="text_5">
      <!-- 200 -->
      <g transform="translate(245.829561 266.598437)scale(0.1 -0.1)">
       <defs>
        <path d="M 19.1875 8.296875 
L 53.609375 8.296875 
L 53.609375 0 
L 7.328125 0 
L 7.328125 8.296875 
Q 12.9375 14.109375 22.625 23.890625 
Q 32.328125 33.6875 34.8125 36.53125 
Q 39.546875 41.84375 41.421875 45.53125 
Q 43.3125 49.21875 43.3125 52.78125 
Q 43.3125 58.59375 39.234375 62.25 
Q 35.15625 65.921875 28.609375 65.921875 
Q 23.96875 65.921875 18.8125 64.3125 
Q 13.671875 62.703125 7.8125 59.421875 
L 7.8125 69.390625 
Q 13.765625 71.78125 18.9375 73 
Q 24.125 74.21875 28.421875 74.21875 
Q 39.75 74.21875 46.484375 68.546875 
Q 53.21875 62.890625 53.21875 53.421875 
Q 53.21875 48.921875 51.53125 44.890625 
Q 49.859375 40.875 45.40625 35.40625 
Q 44.1875 33.984375 37.640625 27.21875 
Q 31.109375 20.453125 19.1875 8.296875 
z
" id="DejaVuSans-50"/>
       </defs>
       <use xlink:href="#DejaVuSans-50"/>
       <use x="63.623047" xlink:href="#DejaVuSans-48"/>
       <use x="127.246094" xlink:href="#DejaVuSans-48"/>
      </g>
     </g>
    </g>
    <g id="xtick_6">
     <g id="line2d_6">
      <g>
       <use style="stroke:#000000;stroke-width:0.8;" x="301.912093" xlink:href="#meef3a2aeb2" y="252"/>
      </g>
     </g>
     <g id="text_6">
      <!-- 250 -->
      <g transform="translate(292.368343 266.598437)scale(0.1 -0.1)">
       <use xlink:href="#DejaVuSans-50"/>
       <use x="63.623047" xlink:href="#DejaVuSans-53"/>
       <use x="127.246094" xlink:href="#DejaVuSans-48"/>
      </g>
     </g>
    </g>
    <g id="xtick_7">
     <g id="line2d_7">
      <g>
       <use style="stroke:#000000;stroke-width:0.8;" x="348.450876" xlink:href="#meef3a2aeb2" y="252"/>
      </g>
     </g>
     <g id="text_7">
      <!-- 300 -->
      <g transform="translate(338.907126 266.598437)scale(0.1 -0.1)">
       <defs>
        <path d="M 40.578125 39.3125 
Q 47.65625 37.796875 51.625 33 
Q 55.609375 28.21875 55.609375 21.1875 
Q 55.609375 10.40625 48.1875 4.484375 
Q 40.765625 -1.421875 27.09375 -1.421875 
Q 22.515625 -1.421875 17.65625 -0.515625 
Q 12.796875 0.390625 7.625 2.203125 
L 7.625 11.71875 
Q 11.71875 9.328125 16.59375 8.109375 
Q 21.484375 6.890625 26.8125 6.890625 
Q 36.078125 6.890625 40.9375 10.546875 
Q 45.796875 14.203125 45.796875 21.1875 
Q 45.796875 27.640625 41.28125 31.265625 
Q 36.765625 34.90625 28.71875 34.90625 
L 20.21875 34.90625 
L 20.21875 43.015625 
L 29.109375 43.015625 
Q 36.375 43.015625 40.234375 45.921875 
Q 44.09375 48.828125 44.09375 54.296875 
Q 44.09375 59.90625 40.109375 62.90625 
Q 36.140625 65.921875 28.71875 65.921875 
Q 24.65625 65.921875 20.015625 65.03125 
Q 15.375 64.15625 9.8125 62.3125 
L 9.8125 71.09375 
Q 15.4375 72.65625 20.34375 73.4375 
Q 25.25 74.21875 29.59375 74.21875 
Q 40.828125 74.21875 47.359375 69.109375 
Q 53.90625 64.015625 53.90625 55.328125 
Q 53.90625 49.265625 50.4375 45.09375 
Q 46.96875 40.921875 40.578125 39.3125 
z
" id="DejaVuSans-51"/>
       </defs>
       <use xlink:href="#DejaVuSans-51"/>
       <use x="63.623047" xlink:href="#DejaVuSans-48"/>
       <use x="127.246094" xlink:href="#DejaVuSans-48"/>
      </g>
     </g>
    </g>
   </g>
   <g id="matplotlib.axis_2">
    <g id="ytick_1">
     <g id="line2d_8">
      <defs>
       <path d="M 0 0 
L -3.5 0 
" id="mfc8aee3368" style="stroke:#000000;stroke-width:0.8;"/>
      </defs>
      <g>
       <use style="stroke:#000000;stroke-width:0.8;" x="54" xlink:href="#mfc8aee3368" y="242.116364"/>
      </g>
     </g>
     <g id="text_8">
      <!-- 0 -->
      <g transform="translate(40.6375 245.915582)scale(0.1 -0.1)">
       <use xlink:href="#DejaVuSans-48"/>
      </g>
     </g>
    </g>
    <g id="ytick_2">
     <g id="line2d_9">
      <g>
       <use style="stroke:#000000;stroke-width:0.8;" x="54" xlink:href="#mfc8aee3368" y="202.581818"/>
      </g>
     </g>
     <g id="text_9">
      <!-- 20 -->
      <g transform="translate(34.275 206.381037)scale(0.1 -0.1)">
       <use xlink:href="#DejaVuSans-50"/>
       <use x="63.623047" xlink:href="#DejaVuSans-48"/>
      </g>
     </g>
    </g>
    <g id="ytick_3">
     <g id="line2d_10">
      <g>
       <use style="stroke:#000000;stroke-width:0.8;" x="54" xlink:href="#mfc8aee3368" y="163.047273"/>
      </g>
     </g>
     <g id="text_10">
      <!-- 40 -->
      <g transform="translate(34.275 166.846491)scale(0.1 -0.1)">
       <defs>
        <path d="M 37.796875 64.3125 
L 12.890625 25.390625 
L 37.796875 25.390625 
z
M 35.203125 72.90625 
L 47.609375 72.90625 
L 47.609375 25.390625 
L 58.015625 25.390625 
L 58.015625 17.1875 
L 47.609375 17.1875 
L 47.609375 0 
L 37.796875 0 
L 37.796875 17.1875 
L 4.890625 17.1875 
L 4.890625 26.703125 
z
" id="DejaVuSans-52"/>
       </defs>
       <use xlink:href="#DejaVuSans-52"/>
       <use x="63.623047" xlink:href="#DejaVuSans-48"/>
      </g>
     </g>
    </g>
    <g id="ytick_4">
     <g id="line2d_11">
      <g>
       <use style="stroke:#000000;stroke-width:0.8;" x="54" xlink:href="#mfc8aee3368" y="123.512727"/>
      </g>
     </g>
     <g id="text_11">
      <!-- 60 -->
      <g transform="translate(34.275 127.311946)scale(0.1 -0.1)">
       <defs>
        <path d="M 33.015625 40.375 
Q 26.375 40.375 22.484375 35.828125 
Q 18.609375 31.296875 18.609375 23.390625 
Q 18.609375 15.53125 22.484375 10.953125 
Q 26.375 6.390625 33.015625 6.390625 
Q 39.65625 6.390625 43.53125 10.953125 
Q 47.40625 15.53125 47.40625 23.390625 
Q 47.40625 31.296875 43.53125 35.828125 
Q 39.65625 40.375 33.015625 40.375 
z
M 52.59375 71.296875 
L 52.59375 62.3125 
Q 48.875 64.0625 45.09375 64.984375 
Q 41.3125 65.921875 37.59375 65.921875 
Q 27.828125 65.921875 22.671875 59.328125 
Q 17.53125 52.734375 16.796875 39.40625 
Q 19.671875 43.65625 24.015625 45.921875 
Q 28.375 48.1875 33.59375 48.1875 
Q 44.578125 48.1875 50.953125 41.515625 
Q 57.328125 34.859375 57.328125 23.390625 
Q 57.328125 12.15625 50.6875 5.359375 
Q 44.046875 -1.421875 33.015625 -1.421875 
Q 20.359375 -1.421875 13.671875 8.265625 
Q 6.984375 17.96875 6.984375 36.375 
Q 6.984375 53.65625 15.1875 63.9375 
Q 23.390625 74.21875 37.203125 74.21875 
Q 40.921875 74.21875 44.703125 73.484375 
Q 48.484375 72.75 52.59375 71.296875 
z
" id="DejaVuSans-54"/>
       </defs>
       <use xlink:href="#DejaVuSans-54"/>
       <use x="63.623047" xlink:href="#DejaVuSans-48"/>
      </g>
     </g>
    </g>
    <g id="ytick_5">
     <g id="line2d_12">
      <g>
       <use style="stroke:#000000;stroke-width:0.8;" x="54" xlink:href="#mfc8aee3368" y="83.978182"/>
      </g>
     </g>
     <g id="text_12">
      <!-- 80 -->
      <g transform="translate(34.275 87.777401)scale(0.1 -0.1)">
       <defs>
        <path d="M 31.78125 34.625 
Q 24.75 34.625 20.71875 30.859375 
Q 16.703125 27.09375 16.703125 20.515625 
Q 16.703125 13.921875 20.71875 10.15625 
Q 24.75 6.390625 31.78125 6.390625 
Q 38.8125 6.390625 42.859375 10.171875 
Q 46.921875 13.96875 46.921875 20.515625 
Q 46.921875 27.09375 42.890625 30.859375 
Q 38.875 34.625 31.78125 34.625 
z
M 21.921875 38.8125 
Q 15.578125 40.375 12.03125 44.71875 
Q 8.5 49.078125 8.5 55.328125 
Q 8.5 64.0625 14.71875 69.140625 
Q 20.953125 74.21875 31.78125 74.21875 
Q 42.671875 74.21875 48.875 69.140625 
Q 55.078125 64.0625 55.078125 55.328125 
Q 55.078125 49.078125 51.53125 44.71875 
Q 48 40.375 41.703125 38.8125 
Q 48.828125 37.15625 52.796875 32.3125 
Q 56.78125 27.484375 56.78125 20.515625 
Q 56.78125 9.90625 50.3125 4.234375 
Q 43.84375 -1.421875 31.78125 -1.421875 
Q 19.734375 -1.421875 13.25 4.234375 
Q 6.78125 9.90625 6.78125 20.515625 
Q 6.78125 27.484375 10.78125 32.3125 
Q 14.796875 37.15625 21.921875 38.8125 
z
M 18.3125 54.390625 
Q 18.3125 48.734375 21.84375 45.5625 
Q 25.390625 42.390625 31.78125 42.390625 
Q 38.140625 42.390625 41.71875 45.5625 
Q 45.3125 48.734375 45.3125 54.390625 
Q 45.3125 60.0625 41.71875 63.234375 
Q 38.140625 66.40625 31.78125 66.40625 
Q 25.390625 66.40625 21.84375 63.234375 
Q 18.3125 60.0625 18.3125 54.390625 
z
" id="DejaVuSans-56"/>
       </defs>
       <use xlink:href="#DejaVuSans-56"/>
       <use x="63.623047" xlink:href="#DejaVuSans-48"/>
      </g>
     </g>
    </g>
    <g id="ytick_6">
     <g id="line2d_13">
      <g>
       <use style="stroke:#000000;stroke-width:0.8;" x="54" xlink:href="#mfc8aee3368" y="44.443636"/>
      </g>
     </g>
     <g id="text_13">
      <!-- 100 -->
      <g transform="translate(27.9125 48.242855)scale(0.1 -0.1)">
       <use xlink:href="#DejaVuSans-49"/>
       <use x="63.623047" xlink:href="#DejaVuSans-48"/>
       <use x="127.246094" xlink:href="#DejaVuSans-48"/>
      </g>
     </g>
    </g>
   </g>
   <g id="line2d_14">
    <path clip-path="url(#p3108c89bd8)" d="M 69.218182 240.534982 
L 70.148957 239.941964 
L 71.079733 239.151273 
L 72.010509 238.558255 
L 72.941284 237.767564 
L 73.87206 237.174545 
L 75.733611 235.593164 
L 76.664387 235.000145 
L 77.595163 234.209455 
L 78.525938 233.616436 
L 79.456714 232.825745 
L 80.38749 232.232727 
L 81.318265 231.442036 
L 82.249041 230.849018 
L 83.179817 230.058327 
L 84.110592 229.465309 
L 85.041368 228.674618 
L 85.972143 228.0816 
L 86.902919 227.290909 
L 87.833695 226.697891 
L 88.76447 225.9072 
L 89.695246 225.314182 
L 90.626022 224.523491 
L 92.487573 223.337455 
L 93.418349 222.546764 
L 94.349124 221.953745 
L 95.2799 221.163055 
L 96.210676 220.570036 
L 97.141451 219.779345 
L 98.072227 219.186327 
L 99.003003 218.395636 
L 99.933778 217.802618 
L 100.864554 217.011927 
L 102.726105 215.825891 
L 103.656881 215.0352 
L 104.587656 214.442182 
L 105.518432 213.651491 
L 106.449208 213.058473 
L 107.379983 212.267782 
L 108.310759 211.674764 
L 109.241535 210.884073 
L 110.17231 210.291055 
L 111.103086 209.500364 
L 112.964637 208.314327 
L 113.895413 207.523636 
L 114.826188 206.930618 
L 115.756964 206.139927 
L 116.68774 205.546909 
L 117.618515 204.756218 
L 118.549291 204.1632 
L 119.480067 203.372509 
L 120.410842 202.779491 
L 121.341618 201.9888 
L 123.203169 200.802764 
L 124.133945 200.012073 
L 125.064721 199.419055 
L 125.995496 198.628364 
L 126.926272 198.035345 
L 127.857048 197.244655 
L 128.787823 196.651636 
L 129.718599 195.860945 
L 131.58015 194.674909 
L 132.510926 193.884218 
L 133.441701 193.2912 
L 134.372477 192.500509 
L 135.303253 191.907491 
L 136.234028 191.1168 
L 137.164804 190.523782 
L 138.09558 189.733091 
L 139.957131 188.547055 
L 140.887907 187.756364 
L 142.749458 186.570327 
L 143.680234 185.779636 
L 144.611009 185.186618 
L 145.541785 184.395927 
L 147.403336 183.209891 
L 148.334112 182.4192 
L 149.264887 181.826182 
L 150.195663 181.035491 
L 152.057214 179.849455 
L 152.98799 179.058764 
L 155.780317 177.279709 
L 156.711093 176.489018 
L 159.50342 174.709964 
L 160.434195 173.919273 
L 164.157298 171.5472 
L 165.088073 170.756509 
L 167.8804 168.977455 
L 168.811176 168.186764 
L 171.603503 166.407709 
L 172.534279 165.617018 
L 174.39583 164.430982 
L 175.326606 163.640291 
L 176.257381 163.047273 
L 177.188157 162.256582 
L 178.118932 161.663564 
L 179.049708 160.872873 
L 179.980484 160.279855 
L 180.911259 159.489164 
L 185.565138 156.524073 
L 186.495913 157.710109 
L 187.426689 158.105455 
L 188.357465 158.303127 
L 191.149791 159.489164 
L 192.080567 159.686836 
L 193.011343 160.082182 
L 194.872894 160.477527 
L 195.80367 160.872873 
L 196.734445 161.070545 
L 197.665221 161.465891 
L 200.457548 162.058909 
L 201.388324 162.454255 
L 203.249875 162.8496 
L 204.180651 163.442618 
L 205.111426 163.837964 
L 206.042202 164.430982 
L 207.903753 164.826327 
L 208.834529 165.221673 
L 209.765304 165.419345 
L 210.69608 165.419345 
L 211.626856 165.617018 
L 212.557631 166.012364 
L 213.488407 166.210036 
L 214.419183 166.605382 
L 217.21151 167.1984 
L 218.142285 167.593745 
L 219.073061 167.791418 
L 220.003837 168.186764 
L 223.726939 168.977455 
L 224.657715 169.3728 
L 227.450042 169.965818 
L 228.380817 170.361164 
L 229.311593 170.558836 
L 230.242369 170.163491 
L 231.173144 209.500364 
L 233.034696 208.314327 
L 235.827023 205.942255 
L 236.757798 205.349236 
L 239.550125 202.977164 
L 240.480901 202.384145 
L 246.065555 197.64 
L 246.99633 197.046982 
L 251.650209 193.093527 
L 252.580984 192.500509 
L 258.165638 187.756364 
L 259.096414 187.163345 
L 264.681068 182.4192 
L 265.611843 181.826182 
L 267.473394 180.2448 
L 268.40417 179.651782 
L 271.196497 177.279709 
L 272.127273 176.686691 
L 273.988824 175.105309 
L 274.9196 174.512291 
L 280.504254 169.768145 
L 281.435029 169.175127 
L 287.019683 164.430982 
L 287.950459 163.837964 
L 290.742786 161.465891 
L 291.673561 160.872873 
L 297.258215 156.128727 
L 298.188991 155.535709 
L 301.912093 152.372945 
L 302.842869 151.779927 
L 309.358299 146.245091 
L 310.289074 145.652073 
L 314.012177 142.489309 
L 314.942952 141.896291 
L 318.666055 138.733527 
L 319.596831 138.140509 
L 325.181485 133.396364 
L 326.11226 132.803345 
L 330.766138 128.849891 
L 331.696914 128.256873 
L 336.350792 124.303418 
L 337.281568 123.7104 
L 341.935446 119.756945 
L 342.866222 119.163927 
L 347.5201 115.210473 
L 348.450876 114.617455 
L 352.173978 111.454691 
L 353.104754 110.861673 
L 357.758632 106.908218 
L 358.689408 106.3152 
L 363.343286 102.361745 
L 364.274062 101.768727 
L 367.066389 99.396655 
L 367.997164 98.803636 
L 370.789491 98.803636 
L 371.720267 242.116364 
L 373.581818 242.116364 
L 373.581818 242.116364 
" style="fill:none;stroke:#1f77b4;stroke-linecap:square;stroke-width:1.5;"/>
   </g>
   <g id="line2d_15">
    <path clip-path="url(#p3108c89bd8)" d="M 69.218182 240.337309 
L 70.148957 239.546618 
L 71.079733 238.9536 
L 72.941284 237.372218 
L 73.87206 236.7792 
L 74.802836 235.988509 
L 75.733611 235.395491 
L 77.595163 233.814109 
L 78.525938 233.221091 
L 79.456714 232.4304 
L 80.38749 231.837382 
L 81.318265 231.046691 
L 82.249041 230.453673 
L 83.179817 229.662982 
L 84.110592 229.069964 
L 85.041368 228.279273 
L 85.972143 227.686255 
L 86.902919 226.895564 
L 87.833695 226.302545 
L 88.76447 225.511855 
L 89.695246 224.918836 
L 90.626022 224.128145 
L 91.556797 223.535127 
L 92.487573 222.744436 
L 93.418349 222.151418 
L 94.349124 221.360727 
L 95.2799 220.767709 
L 96.210676 219.977018 
L 97.141451 219.384 
L 98.072227 218.593309 
L 99.003003 218.000291 
L 99.933778 217.2096 
L 100.864554 216.616582 
L 101.795329 215.825891 
L 102.726105 215.232873 
L 104.587656 213.651491 
L 106.449208 212.465455 
L 107.379983 211.674764 
L 108.310759 211.081745 
L 109.241535 210.291055 
L 110.17231 209.698036 
L 111.103086 208.907345 
L 112.033862 208.314327 
L 112.964637 207.523636 
L 113.895413 206.930618 
L 115.756964 205.349236 
L 116.68774 204.756218 
L 117.618515 203.965527 
L 118.549291 203.372509 
L 119.480067 202.581818 
L 120.410842 201.9888 
L 121.341618 201.198109 
L 122.272394 200.605091 
L 123.203169 199.8144 
L 124.133945 199.221382 
L 125.064721 198.430691 
L 125.995496 197.837673 
L 126.926272 197.046982 
L 127.857048 196.453964 
L 128.787823 195.663273 
L 129.718599 195.070255 
L 130.649374 194.279564 
L 131.58015 193.686545 
L 132.510926 192.895855 
L 133.441701 192.302836 
L 134.372477 191.512145 
L 135.303253 190.919127 
L 136.234028 190.128436 
L 137.164804 189.535418 
L 138.09558 188.744727 
L 139.026355 188.151709 
L 139.957131 187.361018 
L 140.887907 186.768 
L 141.818682 185.977309 
L 142.749458 185.384291 
L 143.680234 184.5936 
L 144.611009 184.000582 
L 145.541785 183.209891 
L 146.47256 182.616873 
L 147.403336 181.826182 
L 148.334112 181.233164 
L 149.264887 180.442473 
L 150.195663 179.849455 
L 151.126439 179.058764 
L 152.98799 177.872727 
L 153.918766 177.082036 
L 155.780317 175.896 
L 156.711093 175.105309 
L 158.572644 173.919273 
L 159.50342 173.128582 
L 161.364971 171.942545 
L 162.295746 171.151855 
L 164.157298 169.965818 
L 165.088073 169.175127 
L 167.8804 167.396073 
L 168.811176 166.605382 
L 169.741952 166.012364 
L 170.672727 165.221673 
L 172.534279 164.035636 
L 173.465054 163.244945 
L 174.39583 162.651927 
L 175.326606 161.861236 
L 176.257381 161.268218 
L 177.188157 160.477527 
L 178.118932 159.884509 
L 179.049708 159.093818 
L 179.980484 158.5008 
L 180.911259 157.710109 
L 181.842035 157.117091 
L 182.772811 156.3264 
L 184.634362 155.140364 
L 185.565138 155.931055 
L 187.426689 156.721745 
L 189.28824 157.117091 
L 190.219016 157.710109 
L 191.149791 157.907782 
L 192.080567 158.303127 
L 193.942118 158.698473 
L 194.872894 159.093818 
L 195.80367 159.291491 
L 196.734445 159.686836 
L 198.595997 160.082182 
L 199.526772 160.477527 
L 200.457548 160.6752 
L 201.388324 161.070545 
L 203.249875 161.465891 
L 205.111426 162.651927 
L 206.042202 163.047273 
L 206.972977 163.047273 
L 208.834529 163.837964 
L 209.765304 163.837964 
L 211.626856 164.233309 
L 212.557631 164.628655 
L 213.488407 164.826327 
L 214.419183 165.221673 
L 217.21151 165.814691 
L 218.142285 166.210036 
L 220.934612 166.803055 
L 221.865388 167.1984 
L 224.657715 167.791418 
L 225.58849 168.186764 
L 226.519266 168.384436 
L 227.450042 168.779782 
L 229.311593 169.175127 
L 230.242369 168.582109 
L 230.242369 168.582109 
" style="fill:none;stroke:#ff7f0e;stroke-linecap:square;stroke-width:1.5;"/>
   </g>
   <g id="line2d_16">
    <path clip-path="url(#p3108c89bd8)" d="M 69.218182 44.443636 
L 71.079733 44.443636 
L 72.010509 56.699345 
L 72.941284 44.443636 
L 73.87206 56.699345 
L 74.802836 44.443636 
L 75.733611 56.699345 
L 76.664387 56.699345 
L 77.595163 44.443636 
L 78.525938 56.699345 
L 79.456714 44.443636 
L 82.249041 44.443636 
L 83.179817 56.699345 
L 84.110592 56.699345 
L 85.041368 44.443636 
L 85.972143 56.699345 
L 86.902919 44.443636 
L 87.833695 56.699345 
L 88.76447 56.699345 
L 89.695246 44.443636 
L 90.626022 56.699345 
L 91.556797 44.443636 
L 92.487573 44.443636 
L 93.418349 56.699345 
L 94.349124 44.443636 
L 95.2799 56.699345 
L 96.210676 56.699345 
L 97.141451 44.443636 
L 98.072227 56.699345 
L 99.003003 44.443636 
L 99.933778 56.699345 
L 100.864554 44.443636 
L 104.587656 44.443636 
L 105.518432 56.699345 
L 106.449208 44.443636 
L 107.379983 56.699345 
L 108.310759 44.443636 
L 112.033862 44.443636 
L 112.964637 56.699345 
L 113.895413 44.443636 
L 114.826188 56.699345 
L 115.756964 56.699345 
L 116.68774 44.443636 
L 118.549291 44.443636 
L 119.480067 56.699345 
L 120.410842 44.443636 
L 125.995496 44.443636 
L 126.926272 56.699345 
L 127.857048 56.699345 
L 128.787823 44.443636 
L 129.718599 56.699345 
L 130.649374 44.443636 
L 131.58015 44.443636 
L 132.510926 56.699345 
L 133.441701 44.443636 
L 134.372477 44.443636 
L 135.303253 56.699345 
L 136.234028 44.443636 
L 139.026355 44.443636 
L 139.957131 56.699345 
L 140.887907 44.443636 
L 145.541785 44.443636 
L 146.47256 56.699345 
L 147.403336 44.443636 
L 148.334112 56.699345 
L 149.264887 44.443636 
L 152.057214 44.443636 
L 152.98799 56.699345 
L 153.918766 44.443636 
L 154.849541 56.699345 
L 155.780317 44.443636 
L 159.50342 44.443636 
L 160.434195 56.699345 
L 162.295746 56.699345 
L 163.226522 44.443636 
L 168.811176 44.443636 
L 169.741952 56.699345 
L 170.672727 44.443636 
L 171.603503 44.443636 
L 172.534279 56.699345 
L 173.465054 56.699345 
L 174.39583 44.443636 
L 175.326606 44.443636 
L 176.257381 56.699345 
L 177.188157 44.443636 
L 181.842035 44.443636 
L 182.772811 56.106327 
L 183.703586 56.106327 
L 184.634362 56.699345 
L 185.565138 56.699345 
L 186.495913 44.443636 
L 192.080567 44.443636 
L 193.011343 56.106327 
L 193.942118 44.443636 
L 194.872894 56.106327 
L 195.80367 44.443636 
L 196.734445 56.106327 
L 197.665221 56.699345 
L 198.595997 67.769018 
L 199.526772 56.106327 
L 200.457548 69.152727 
L 201.388324 56.106327 
L 202.319099 56.699345 
L 203.249875 56.699345 
L 204.180651 77.454982 
L 205.111426 44.443636 
L 206.042202 56.699345 
L 206.972977 44.443636 
L 208.834529 67.769018 
L 209.765304 44.443636 
L 210.69608 44.443636 
L 212.557631 67.769018 
L 214.419183 44.443636 
L 216.280734 67.769018 
L 217.21151 44.443636 
L 218.142285 56.106327 
L 219.073061 44.443636 
L 220.003837 66.385309 
L 220.934612 56.699345 
L 221.865388 56.106327 
L 222.796163 56.699345 
L 223.726939 56.699345 
L 224.657715 44.443636 
L 226.519266 44.443636 
L 228.380817 67.769018 
L 229.311593 77.454982 
L 230.242369 44.443636 
L 232.10392 44.443636 
L 233.034696 56.699345 
L 233.965471 44.443636 
L 234.896247 44.443636 
L 235.827023 56.699345 
L 236.757798 44.443636 
L 239.550125 44.443636 
L 240.480901 56.699345 
L 241.411676 44.443636 
L 246.065555 44.443636 
L 246.99633 56.699345 
L 247.927106 44.443636 
L 250.719433 44.443636 
L 251.650209 56.699345 
L 252.580984 56.699345 
L 253.51176 44.443636 
L 255.373311 44.443636 
L 256.304087 56.699345 
L 258.165638 56.699345 
L 259.096414 44.443636 
L 260.027189 44.443636 
L 260.957965 56.699345 
L 261.888741 44.443636 
L 262.819516 56.699345 
L 263.750292 56.699345 
L 264.681068 44.443636 
L 266.542619 44.443636 
L 267.473394 69.152727 
L 268.40417 44.443636 
L 269.334946 44.443636 
L 270.265721 56.699345 
L 271.196497 56.699345 
L 272.127273 44.443636 
L 273.058048 44.443636 
L 273.988824 56.699345 
L 274.9196 56.699345 
L 275.850375 44.443636 
L 276.781151 44.443636 
L 277.711927 56.699345 
L 278.642702 56.699345 
L 279.573478 44.443636 
L 281.435029 44.443636 
L 282.365805 56.699345 
L 283.29658 44.443636 
L 284.227356 56.699345 
L 285.158132 44.443636 
L 286.088907 44.443636 
L 287.950459 69.152727 
L 288.881234 44.443636 
L 289.81201 44.443636 
L 290.742786 56.699345 
L 291.673561 44.443636 
L 293.535113 44.443636 
L 294.465888 56.699345 
L 295.396664 56.699345 
L 296.32744 44.443636 
L 297.258215 44.443636 
L 298.188991 56.699345 
L 299.119766 44.443636 
L 300.050542 44.443636 
L 300.981318 56.699345 
L 301.912093 56.699345 
L 302.842869 44.443636 
L 303.773645 44.443636 
L 304.70442 56.699345 
L 305.635196 44.443636 
L 309.358299 44.443636 
L 310.289074 56.699345 
L 311.21985 44.443636 
L 313.081401 44.443636 
L 314.012177 56.699345 
L 315.873728 56.699345 
L 316.804504 44.443636 
L 318.666055 44.443636 
L 319.596831 56.699345 
L 320.527606 44.443636 
L 324.250709 44.443636 
L 325.181485 56.699345 
L 326.11226 44.443636 
L 328.904587 44.443636 
L 329.835363 56.699345 
L 330.766138 44.443636 
L 332.62769 44.443636 
L 333.558465 56.699345 
L 334.489241 44.443636 
L 336.350792 44.443636 
L 337.281568 56.699345 
L 338.212344 44.443636 
L 341.004671 44.443636 
L 341.935446 56.699345 
L 342.866222 56.699345 
L 343.796997 44.443636 
L 344.727773 44.443636 
L 345.658549 56.699345 
L 346.589324 56.699345 
L 347.5201 44.443636 
L 350.312427 44.443636 
L 351.243203 56.699345 
L 352.173978 44.443636 
L 353.104754 44.443636 
L 354.03553 56.699345 
L 354.966305 44.443636 
L 357.758632 44.443636 
L 358.689408 56.699345 
L 359.620183 44.443636 
L 360.550959 56.699345 
L 361.481735 44.443636 
L 362.41251 56.699345 
L 363.343286 56.699345 
L 364.274062 44.443636 
L 365.204837 44.443636 
L 366.135613 56.699345 
L 367.066389 44.443636 
L 370.789491 44.443636 
L 371.720267 110.268655 
L 372.651043 44.443636 
L 373.581818 44.443636 
L 373.581818 44.443636 
" style="fill:none;stroke:#2ca02c;stroke-linecap:square;stroke-width:1.5;"/>
   </g>
   <g id="line2d_17">
    <path clip-path="url(#p3108c89bd8)" d="M 69.218182 44.443636 
L 71.079733 44.443636 
L 72.010509 56.699345 
L 72.941284 44.443636 
L 75.733611 44.443636 
L 76.664387 56.699345 
L 77.595163 44.443636 
L 80.38749 44.443636 
L 81.318265 56.699345 
L 82.249041 44.443636 
L 83.179817 44.443636 
L 84.110592 56.699345 
L 85.041368 44.443636 
L 90.626022 44.443636 
L 91.556797 56.699345 
L 92.487573 44.443636 
L 93.418349 44.443636 
L 94.349124 56.699345 
L 95.2799 44.443636 
L 103.656881 44.443636 
L 104.587656 56.699345 
L 105.518432 44.443636 
L 106.449208 56.699345 
L 107.379983 44.443636 
L 108.310759 56.699345 
L 109.241535 44.443636 
L 112.964637 44.443636 
L 113.895413 56.699345 
L 114.826188 44.443636 
L 115.756964 44.443636 
L 116.68774 69.152727 
L 117.618515 44.443636 
L 118.549291 44.443636 
L 119.480067 56.699345 
L 120.410842 56.699345 
L 121.341618 44.443636 
L 122.272394 44.443636 
L 123.203169 56.699345 
L 124.133945 44.443636 
L 125.064721 56.699345 
L 125.995496 44.443636 
L 126.926272 44.443636 
L 127.857048 56.699345 
L 128.787823 44.443636 
L 129.718599 44.443636 
L 130.649374 56.699345 
L 131.58015 44.443636 
L 132.510926 56.699345 
L 133.441701 56.699345 
L 134.372477 44.443636 
L 135.303253 56.699345 
L 136.234028 44.443636 
L 140.887907 44.443636 
L 141.818682 56.699345 
L 142.749458 44.443636 
L 153.918766 44.443636 
L 154.849541 56.699345 
L 155.780317 44.443636 
L 156.711093 56.699345 
L 157.641868 56.699345 
L 158.572644 44.443636 
L 160.434195 44.443636 
L 161.364971 56.699345 
L 162.295746 56.699345 
L 163.226522 44.443636 
L 164.157298 56.699345 
L 165.088073 56.699345 
L 166.018849 44.443636 
L 166.949625 44.443636 
L 167.8804 56.699345 
L 168.811176 44.443636 
L 177.188157 44.443636 
L 178.118932 56.699345 
L 179.980484 56.699345 
L 180.911259 44.443636 
L 181.842035 56.699345 
L 182.772811 44.443636 
L 183.703586 44.443636 
L 184.634362 69.152727 
L 185.565138 44.443636 
L 191.149791 44.443636 
L 192.080567 56.699345 
L 193.011343 44.443636 
L 193.942118 56.699345 
L 194.872894 44.443636 
L 198.595997 44.443636 
L 199.526772 57.687709 
L 200.457548 44.443636 
L 201.388324 44.443636 
L 203.249875 69.152727 
L 204.180651 56.699345 
L 205.111426 56.699345 
L 206.042202 44.443636 
L 208.834529 44.443636 
L 209.765304 56.699345 
L 210.69608 56.699345 
L 211.626856 44.443636 
L 212.557631 44.443636 
L 213.488407 56.699345 
L 214.419183 44.443636 
L 220.003837 44.443636 
L 220.934612 56.699345 
L 221.865388 44.443636 
L 222.796163 69.152727 
L 223.726939 56.699345 
L 224.657715 56.699345 
L 225.58849 44.443636 
L 226.519266 56.699345 
L 227.450042 56.699345 
L 228.380817 44.443636 
L 229.311593 106.908218 
L 230.242369 44.443636 
L 230.242369 44.443636 
" style="fill:none;stroke:#d62728;stroke-linecap:square;stroke-width:1.5;"/>
   </g>
   <g id="patch_3">
    <path d="M 54 252 
L 54 34.56 
" style="fill:none;stroke:#000000;stroke-linecap:square;stroke-linejoin:miter;stroke-width:0.8;"/>
   </g>
   <g id="patch_4">
    <path d="M 388.8 252 
L 388.8 34.56 
" style="fill:none;stroke:#000000;stroke-linecap:square;stroke-linejoin:miter;stroke-width:0.8;"/>
   </g>
   <g id="patch_5">
    <path d="M 54 252 
L 388.8 252 
" style="fill:none;stroke:#000000;stroke-linecap:square;stroke-linejoin:miter;stroke-width:0.8;"/>
   </g>
   <g id="patch_6">
    <path d="M 54 34.56 
L 388.8 34.56 
" style="fill:none;stroke:#000000;stroke-linecap:square;stroke-linejoin:miter;stroke-width:0.8;"/>
   </g>
   <g id="legend_1">
    <g id="patch_7">
     <path d="M 260.670313 247 
L 381.8 247 
Q 383.8 247 383.8 245 
L 383.8 187.2875 
Q 383.8 185.2875 381.8 185.2875 
L 260.670313 185.2875 
Q 258.670313 185.2875 258.670313 187.2875 
L 258.670313 245 
Q 258.670313 247 260.670313 247 
z
" style="fill:#ffffff;opacity:0.8;stroke:#cccccc;stroke-linejoin:miter;"/>
    </g>
    <g id="line2d_18">
     <path d="M 262.670313 193.385938 
L 282.670313 193.385938 
" style="fill:none;stroke:#1f77b4;stroke-linecap:square;stroke-width:1.5;"/>
    </g>
    <g id="line2d_19"/>
    <g id="text_14">
     <!-- MEM, mem.bash -->
     <g transform="translate(290.670313 196.885938)scale(0.1 -0.1)">
      <defs>
       <path d="M 9.8125 72.90625 
L 24.515625 72.90625 
L 43.109375 23.296875 
L 61.8125 72.90625 
L 76.515625 72.90625 
L 76.515625 0 
L 66.890625 0 
L 66.890625 64.015625 
L 48.09375 14.015625 
L 38.1875 14.015625 
L 19.390625 64.015625 
L 19.390625 0 
L 9.8125 0 
z
" id="DejaVuSans-77"/>
       <path d="M 9.8125 72.90625 
L 55.90625 72.90625 
L 55.90625 64.59375 
L 19.671875 64.59375 
L 19.671875 43.015625 
L 54.390625 43.015625 
L 54.390625 34.71875 
L 19.671875 34.71875 
L 19.671875 8.296875 
L 56.78125 8.296875 
L 56.78125 0 
L 9.8125 0 
z
" id="DejaVuSans-69"/>
       <path d="M 11.71875 12.40625 
L 22.015625 12.40625 
L 22.015625 4 
L 14.015625 -11.625 
L 7.71875 -11.625 
L 11.71875 4 
z
" id="DejaVuSans-44"/>
       <path id="DejaVuSans-32"/>
       <path d="M 52 44.1875 
Q 55.375 50.25 60.0625 53.125 
Q 64.75 56 71.09375 56 
Q 79.640625 56 84.28125 50.015625 
Q 88.921875 44.046875 88.921875 33.015625 
L 88.921875 0 
L 79.890625 0 
L 79.890625 32.71875 
Q 79.890625 40.578125 77.09375 44.375 
Q 74.3125 48.1875 68.609375 48.1875 
Q 61.625 48.1875 57.5625 43.546875 
Q 53.515625 38.921875 53.515625 30.90625 
L 53.515625 0 
L 44.484375 0 
L 44.484375 32.71875 
Q 44.484375 40.625 41.703125 44.40625 
Q 38.921875 48.1875 33.109375 48.1875 
Q 26.21875 48.1875 22.15625 43.53125 
Q 18.109375 38.875 18.109375 30.90625 
L 18.109375 0 
L 9.078125 0 
L 9.078125 54.6875 
L 18.109375 54.6875 
L 18.109375 46.1875 
Q 21.1875 51.21875 25.484375 53.609375 
Q 29.78125 56 35.6875 56 
Q 41.65625 56 45.828125 52.96875 
Q 50 49.953125 52 44.1875 
z
" id="DejaVuSans-109"/>
       <path d="M 56.203125 29.59375 
L 56.203125 25.203125 
L 14.890625 25.203125 
Q 15.484375 15.921875 20.484375 11.0625 
Q 25.484375 6.203125 34.421875 6.203125 
Q 39.59375 6.203125 44.453125 7.46875 
Q 49.3125 8.734375 54.109375 11.28125 
L 54.109375 2.78125 
Q 49.265625 0.734375 44.1875 -0.34375 
Q 39.109375 -1.421875 33.890625 -1.421875 
Q 20.796875 -1.421875 13.15625 6.1875 
Q 5.515625 13.8125 5.515625 26.8125 
Q 5.515625 40.234375 12.765625 48.109375 
Q 20.015625 56 32.328125 56 
Q 43.359375 56 49.78125 48.890625 
Q 56.203125 41.796875 56.203125 29.59375 
z
M 47.21875 32.234375 
Q 47.125 39.59375 43.09375 43.984375 
Q 39.0625 48.390625 32.421875 48.390625 
Q 24.90625 48.390625 20.390625 44.140625 
Q 15.875 39.890625 15.1875 32.171875 
z
" id="DejaVuSans-101"/>
       <path d="M 10.6875 12.40625 
L 21 12.40625 
L 21 0 
L 10.6875 0 
z
" id="DejaVuSans-46"/>
       <path d="M 48.6875 27.296875 
Q 48.6875 37.203125 44.609375 42.84375 
Q 40.53125 48.484375 33.40625 48.484375 
Q 26.265625 48.484375 22.1875 42.84375 
Q 18.109375 37.203125 18.109375 27.296875 
Q 18.109375 17.390625 22.1875 11.75 
Q 26.265625 6.109375 33.40625 6.109375 
Q 40.53125 6.109375 44.609375 11.75 
Q 48.6875 17.390625 48.6875 27.296875 
z
M 18.109375 46.390625 
Q 20.953125 51.265625 25.265625 53.625 
Q 29.59375 56 35.59375 56 
Q 45.5625 56 51.78125 48.09375 
Q 58.015625 40.1875 58.015625 27.296875 
Q 58.015625 14.40625 51.78125 6.484375 
Q 45.5625 -1.421875 35.59375 -1.421875 
Q 29.59375 -1.421875 25.265625 0.953125 
Q 20.953125 3.328125 18.109375 8.203125 
L 18.109375 0 
L 9.078125 0 
L 9.078125 75.984375 
L 18.109375 75.984375 
z
" id="DejaVuSans-98"/>
       <path d="M 34.28125 27.484375 
Q 23.390625 27.484375 19.1875 25 
Q 14.984375 22.515625 14.984375 16.5 
Q 14.984375 11.71875 18.140625 8.90625 
Q 21.296875 6.109375 26.703125 6.109375 
Q 34.1875 6.109375 38.703125 11.40625 
Q 43.21875 16.703125 43.21875 25.484375 
L 43.21875 27.484375 
z
M 52.203125 31.203125 
L 52.203125 0 
L 43.21875 0 
L 43.21875 8.296875 
Q 40.140625 3.328125 35.546875 0.953125 
Q 30.953125 -1.421875 24.3125 -1.421875 
Q 15.921875 -1.421875 10.953125 3.296875 
Q 6 8.015625 6 15.921875 
Q 6 25.140625 12.171875 29.828125 
Q 18.359375 34.515625 30.609375 34.515625 
L 43.21875 34.515625 
L 43.21875 35.40625 
Q 43.21875 41.609375 39.140625 45 
Q 35.0625 48.390625 27.6875 48.390625 
Q 23 48.390625 18.546875 47.265625 
Q 14.109375 46.140625 10.015625 43.890625 
L 10.015625 52.203125 
Q 14.9375 54.109375 19.578125 55.046875 
Q 24.21875 56 28.609375 56 
Q 40.484375 56 46.34375 49.84375 
Q 52.203125 43.703125 52.203125 31.203125 
z
" id="DejaVuSans-97"/>
       <path d="M 44.28125 53.078125 
L 44.28125 44.578125 
Q 40.484375 46.53125 36.375 47.5 
Q 32.28125 48.484375 27.875 48.484375 
Q 21.1875 48.484375 17.84375 46.4375 
Q 14.5 44.390625 14.5 40.28125 
Q 14.5 37.15625 16.890625 35.375 
Q 19.28125 33.59375 26.515625 31.984375 
L 29.59375 31.296875 
Q 39.15625 29.25 43.1875 25.515625 
Q 47.21875 21.78125 47.21875 15.09375 
Q 47.21875 7.46875 41.1875 3.015625 
Q 35.15625 -1.421875 24.609375 -1.421875 
Q 20.21875 -1.421875 15.453125 -0.5625 
Q 10.6875 0.296875 5.421875 2 
L 5.421875 11.28125 
Q 10.40625 8.6875 15.234375 7.390625 
Q 20.0625 6.109375 24.8125 6.109375 
Q 31.15625 6.109375 34.5625 8.28125 
Q 37.984375 10.453125 37.984375 14.40625 
Q 37.984375 18.0625 35.515625 20.015625 
Q 33.0625 21.96875 24.703125 23.78125 
L 21.578125 24.515625 
Q 13.234375 26.265625 9.515625 29.90625 
Q 5.8125 33.546875 5.8125 39.890625 
Q 5.8125 47.609375 11.28125 51.796875 
Q 16.75 56 26.8125 56 
Q 31.78125 56 36.171875 55.265625 
Q 40.578125 54.546875 44.28125 53.078125 
z
" id="DejaVuSans-115"/>
       <path d="M 54.890625 33.015625 
L 54.890625 0 
L 45.90625 0 
L 45.90625 32.71875 
Q 45.90625 40.484375 42.875 44.328125 
Q 39.84375 48.1875 33.796875 48.1875 
Q 26.515625 48.1875 22.3125 43.546875 
Q 18.109375 38.921875 18.109375 30.90625 
L 18.109375 0 
L 9.078125 0 
L 9.078125 75.984375 
L 18.109375 75.984375 
L 18.109375 46.1875 
Q 21.34375 51.125 25.703125 53.5625 
Q 30.078125 56 35.796875 56 
Q 45.21875 56 50.046875 50.171875 
Q 54.890625 44.34375 54.890625 33.015625 
z
" id="DejaVuSans-104"/>
      </defs>
      <use xlink:href="#DejaVuSans-77"/>
      <use x="86.279297" xlink:href="#DejaVuSans-69"/>
      <use x="149.462891" xlink:href="#DejaVuSans-77"/>
      <use x="235.742188" xlink:href="#DejaVuSans-44"/>
      <use x="267.529297" xlink:href="#DejaVuSans-32"/>
      <use x="299.316406" xlink:href="#DejaVuSans-109"/>
      <use x="396.728516" xlink:href="#DejaVuSans-101"/>
      <use x="458.251953" xlink:href="#DejaVuSans-109"/>
      <use x="555.664062" xlink:href="#DejaVuSans-46"/>
      <use x="587.451172" xlink:href="#DejaVuSans-98"/>
      <use x="650.927734" xlink:href="#DejaVuSans-97"/>
      <use x="712.207031" xlink:href="#DejaVuSans-115"/>
      <use x="764.306641" xlink:href="#DejaVuSans-104"/>
     </g>
    </g>
    <g id="line2d_20">
     <path d="M 262.670313 208.064063 
L 282.670313 208.064063 
" style="fill:none;stroke:#ff7f0e;stroke-linecap:square;stroke-width:1.5;"/>
    </g>
    <g id="line2d_21"/>
    <g id="text_15">
     <!-- MEM, mem2.bash -->
     <g transform="translate(290.670313 211.564063)scale(0.1 -0.1)">
      <use xlink:href="#DejaVuSans-77"/>
      <use x="86.279297" xlink:href="#DejaVuSans-69"/>
      <use x="149.462891" xlink:href="#DejaVuSans-77"/>
      <use x="235.742188" xlink:href="#DejaVuSans-44"/>
      <use x="267.529297" xlink:href="#DejaVuSans-32"/>
      <use x="299.316406" xlink:href="#DejaVuSans-109"/>
      <use x="396.728516" xlink:href="#DejaVuSans-101"/>
      <use x="458.251953" xlink:href="#DejaVuSans-109"/>
      <use x="555.664062" xlink:href="#DejaVuSans-50"/>
      <use x="619.287109" xlink:href="#DejaVuSans-46"/>
      <use x="651.074219" xlink:href="#DejaVuSans-98"/>
      <use x="714.550781" xlink:href="#DejaVuSans-97"/>
      <use x="775.830078" xlink:href="#DejaVuSans-115"/>
      <use x="827.929688" xlink:href="#DejaVuSans-104"/>
     </g>
    </g>
    <g id="line2d_22">
     <path d="M 262.670313 222.742188 
L 282.670313 222.742188 
" style="fill:none;stroke:#2ca02c;stroke-linecap:square;stroke-width:1.5;"/>
    </g>
    <g id="line2d_23"/>
    <g id="text_16">
     <!-- CPU, mem.bash -->
     <g transform="translate(290.670313 226.242188)scale(0.1 -0.1)">
      <defs>
       <path d="M 64.40625 67.28125 
L 64.40625 56.890625 
Q 59.421875 61.53125 53.78125 63.8125 
Q 48.140625 66.109375 41.796875 66.109375 
Q 29.296875 66.109375 22.65625 58.46875 
Q 16.015625 50.828125 16.015625 36.375 
Q 16.015625 21.96875 22.65625 14.328125 
Q 29.296875 6.6875 41.796875 6.6875 
Q 48.140625 6.6875 53.78125 8.984375 
Q 59.421875 11.28125 64.40625 15.921875 
L 64.40625 5.609375 
Q 59.234375 2.09375 53.4375 0.328125 
Q 47.65625 -1.421875 41.21875 -1.421875 
Q 24.65625 -1.421875 15.125 8.703125 
Q 5.609375 18.84375 5.609375 36.375 
Q 5.609375 53.953125 15.125 64.078125 
Q 24.65625 74.21875 41.21875 74.21875 
Q 47.75 74.21875 53.53125 72.484375 
Q 59.328125 70.75 64.40625 67.28125 
z
" id="DejaVuSans-67"/>
       <path d="M 19.671875 64.796875 
L 19.671875 37.40625 
L 32.078125 37.40625 
Q 38.96875 37.40625 42.71875 40.96875 
Q 46.484375 44.53125 46.484375 51.125 
Q 46.484375 57.671875 42.71875 61.234375 
Q 38.96875 64.796875 32.078125 64.796875 
z
M 9.8125 72.90625 
L 32.078125 72.90625 
Q 44.34375 72.90625 50.609375 67.359375 
Q 56.890625 61.8125 56.890625 51.125 
Q 56.890625 40.328125 50.609375 34.8125 
Q 44.34375 29.296875 32.078125 29.296875 
L 19.671875 29.296875 
L 19.671875 0 
L 9.8125 0 
z
" id="DejaVuSans-80"/>
       <path d="M 8.6875 72.90625 
L 18.609375 72.90625 
L 18.609375 28.609375 
Q 18.609375 16.890625 22.84375 11.734375 
Q 27.09375 6.59375 36.625 6.59375 
Q 46.09375 6.59375 50.34375 11.734375 
Q 54.59375 16.890625 54.59375 28.609375 
L 54.59375 72.90625 
L 64.5 72.90625 
L 64.5 27.390625 
Q 64.5 13.140625 57.4375 5.859375 
Q 50.390625 -1.421875 36.625 -1.421875 
Q 22.796875 -1.421875 15.734375 5.859375 
Q 8.6875 13.140625 8.6875 27.390625 
z
" id="DejaVuSans-85"/>
      </defs>
      <use xlink:href="#DejaVuSans-67"/>
      <use x="69.824219" xlink:href="#DejaVuSans-80"/>
      <use x="130.126953" xlink:href="#DejaVuSans-85"/>
      <use x="203.320312" xlink:href="#DejaVuSans-44"/>
      <use x="235.107422" xlink:href="#DejaVuSans-32"/>
      <use x="266.894531" xlink:href="#DejaVuSans-109"/>
      <use x="364.306641" xlink:href="#DejaVuSans-101"/>
      <use x="425.830078" xlink:href="#DejaVuSans-109"/>
      <use x="523.242188" xlink:href="#DejaVuSans-46"/>
      <use x="555.029297" xlink:href="#DejaVuSans-98"/>
      <use x="618.505859" xlink:href="#DejaVuSans-97"/>
      <use x="679.785156" xlink:href="#DejaVuSans-115"/>
      <use x="731.884766" xlink:href="#DejaVuSans-104"/>
     </g>
    </g>
    <g id="line2d_24">
     <path d="M 262.670313 237.420312 
L 282.670313 237.420312 
" style="fill:none;stroke:#d62728;stroke-linecap:square;stroke-width:1.5;"/>
    </g>
    <g id="line2d_25"/>
    <g id="text_17">
     <!-- CPU, mem2.bash -->
     <g transform="translate(290.670313 240.920312)scale(0.1 -0.1)">
      <use xlink:href="#DejaVuSans-67"/>
      <use x="69.824219" xlink:href="#DejaVuSans-80"/>
      <use x="130.126953" xlink:href="#DejaVuSans-85"/>
      <use x="203.320312" xlink:href="#DejaVuSans-44"/>
      <use x="235.107422" xlink:href="#DejaVuSans-32"/>
      <use x="266.894531" xlink:href="#DejaVuSans-109"/>
      <use x="364.306641" xlink:href="#DejaVuSans-101"/>
      <use x="425.830078" xlink:href="#DejaVuSans-109"/>
      <use x="523.242188" xlink:href="#DejaVuSans-50"/>
      <use x="586.865234" xlink:href="#DejaVuSans-46"/>
      <use x="618.652344" xlink:href="#DejaVuSans-98"/>
      <use x="682.128906" xlink:href="#DejaVuSans-97"/>
      <use x="743.408203" xlink:href="#DejaVuSans-115"/>
      <use x="795.507812" xlink:href="#DejaVuSans-104"/>
     </g>
    </g>
   </g>
  </g>
 </g>
 <defs>
  <clipPath id="p3108c89bd8">
   <rect height="217.44" width="334.8" x="54" y="34.56"/>
  </clipPath>
 </defs>
</svg>
