<?xml version="1.0" encoding="utf-8" standalone="no"?>
<!DOCTYPE svg PUBLIC "-//W3C//DTD SVG 1.1//EN"
  "http://www.w3.org/Graphics/SVG/1.1/DTD/svg11.dtd">
<!-- Created with matplotlib (https://matplotlib.org/) -->
<svg height="288pt" version="1.1" viewBox="0 0 432 288" width="432pt" xmlns="http://www.w3.org/2000/svg" xmlns:xlink="http://www.w3.org/1999/xlink">
 <metadata>
  <rdf:RDF xmlns:cc="http://creativecommons.org/ns#" xmlns:dc="http://purl.org/dc/elements/1.1/" xmlns:rdf="http://www.w3.org/1999/02/22-rdf-syntax-ns#">
   <cc:Work>
    <dc:type rdf:resource="http://purl.org/dc/dcmitype/StillImage"/>
    <dc:date>2020-11-23T23:51:43.621660</dc:date>
    <dc:format>image/svg+xml</dc:format>
    <dc:creator>
     <cc:Agent>
      <dc:title>Matplotlib v3.3.0, https://matplotlib.org/</dc:title>
     </cc:Agent>
    </dc:creator>
   </cc:Work>
  </rdf:RDF>
 </metadata>
 <defs>
  <style type="text/css">*{stroke-linecap:butt;stroke-linejoin:round;}</style>
 </defs>
 <g id="figure_1">
  <g id="patch_1">
   <path d="M 0 288 
L 432 288 
L 432 0 
L 0 0 
z
" style="fill:none;"/>
  </g>
  <g id="axes_1">
   <g id="patch_2">
    <path d="M 54 252 
L 388.8 252 
L 388.8 34.56 
L 54 34.56 
z
" style="fill:#ffffff;"/>
   </g>
   <g id="matplotlib.axis_1">
    <g id="xtick_1">
     <g id="line2d_1">
      <defs>
       <path d="M 0 0 
L 0 3.5 
" id="mfe584a2f3a" style="stroke:#000000;stroke-width:0.8;"/>
      </defs>
      <g>
       <use style="stroke:#000000;stroke-width:0.8;" x="69.218182" xlink:href="#mfe584a2f3a" y="252"/>
      </g>
     </g>
     <g id="text_1">
      <!-- 0 -->
      <g transform="translate(66.036932 266.598437)scale(0.1 -0.1)">
       <defs>
        <path d="M 31.78125 66.40625 
Q 24.171875 66.40625 20.328125 58.90625 
Q 16.5 51.421875 16.5 36.375 
Q 16.5 21.390625 20.328125 13.890625 
Q 24.171875 6.390625 31.78125 6.390625 
Q 39.453125 6.390625 43.28125 13.890625 
Q 47.125 21.390625 47.125 36.375 
Q 47.125 51.421875 43.28125 58.90625 
Q 39.453125 66.40625 31.78125 66.40625 
z
M 31.78125 74.21875 
Q 44.046875 74.21875 50.515625 64.515625 
Q 56.984375 54.828125 56.984375 36.375 
Q 56.984375 17.96875 50.515625 8.265625 
Q 44.046875 -1.421875 31.78125 -1.421875 
Q 19.53125 -1.421875 13.0625 8.265625 
Q 6.59375 17.96875 6.59375 36.375 
Q 6.59375 54.828125 13.0625 64.515625 
Q 19.53125 74.21875 31.78125 74.21875 
z
" id="DejaVuSans-48"/>
       </defs>
       <use xlink:href="#DejaVuSans-48"/>
      </g>
     </g>
    </g>
    <g id="xtick_2">
     <g id="line2d_2">
      <g>
       <use style="stroke:#000000;stroke-width:0.8;" x="115.756964" xlink:href="#mfe584a2f3a" y="252"/>
      </g>
     </g>
     <g id="text_2">
      <!-- 50 -->
      <g transform="translate(109.394464 266.598437)scale(0.1 -0.1)">
       <defs>
        <path d="M 10.796875 72.90625 
L 49.515625 72.90625 
L 49.515625 64.59375 
L 19.828125 64.59375 
L 19.828125 46.734375 
Q 21.96875 47.46875 24.109375 47.828125 
Q 26.265625 48.1875 28.421875 48.1875 
Q 40.625 48.1875 47.75 41.5 
Q 54.890625 34.8125 54.890625 23.390625 
Q 54.890625 11.625 47.5625 5.09375 
Q 40.234375 -1.421875 26.90625 -1.421875 
Q 22.3125 -1.421875 17.546875 -0.640625 
Q 12.796875 0.140625 7.71875 1.703125 
L 7.71875 11.625 
Q 12.109375 9.234375 16.796875 8.0625 
Q 21.484375 6.890625 26.703125 6.890625 
Q 35.15625 6.890625 40.078125 11.328125 
Q 45.015625 15.765625 45.015625 23.390625 
Q 45.015625 31 40.078125 35.4375 
Q 35.15625 39.890625 26.703125 39.890625 
Q 22.75 39.890625 18.8125 39.015625 
Q 14.890625 38.140625 10.796875 36.28125 
z
" id="DejaVuSans-53"/>
       </defs>
       <use xlink:href="#DejaVuSans-53"/>
       <use x="63.623047" xlink:href="#DejaVuSans-48"/>
      </g>
     </g>
    </g>
    <g id="xtick_3">
     <g id="line2d_3">
      <g>
       <use style="stroke:#000000;stroke-width:0.8;" x="162.295746" xlink:href="#mfe584a2f3a" y="252"/>
      </g>
     </g>
     <g id="text_3">
      <!-- 100 -->
      <g transform="translate(152.751996 266.598437)scale(0.1 -0.1)">
       <defs>
        <path d="M 12.40625 8.296875 
L 28.515625 8.296875 
L 28.515625 63.921875 
L 10.984375 60.40625 
L 10.984375 69.390625 
L 28.421875 72.90625 
L 38.28125 72.90625 
L 38.28125 8.296875 
L 54.390625 8.296875 
L 54.390625 0 
L 12.40625 0 
z
" id="DejaVuSans-49"/>
       </defs>
       <use xlink:href="#DejaVuSans-49"/>
       <use x="63.623047" xlink:href="#DejaVuSans-48"/>
       <use x="127.246094" xlink:href="#DejaVuSans-48"/>
      </g>
     </g>
    </g>
    <g id="xtick_4">
     <g id="line2d_4">
      <g>
       <use style="stroke:#000000;stroke-width:0.8;" x="208.834529" xlink:href="#mfe584a2f3a" y="252"/>
      </g>
     </g>
     <g id="text_4">
      <!-- 150 -->
      <g transform="translate(199.290779 266.598437)scale(0.1 -0.1)">
       <use xlink:href="#DejaVuSans-49"/>
       <use x="63.623047" xlink:href="#DejaVuSans-53"/>
       <use x="127.246094" xlink:href="#DejaVuSans-48"/>
      </g>
     </g>
    </g>
    <g id="xtick_5">
     <g id="line2d_5">
      <g>
       <use style="stroke:#000000;stroke-width:0.8;" x="255.373311" xlink:href="#mfe584a2f3a" y="252"/>
      </g>
     </g>
     <g id="text_5">
      <!-- 200 -->
      <g transform="translate(245.829561 266.598437)scale(0.1 -0.1)">
       <defs>
        <path d="M 19.1875 8.296875 
L 53.609375 8.296875 
L 53.609375 0 
L 7.328125 0 
L 7.328125 8.296875 
Q 12.9375 14.109375 22.625 23.890625 
Q 32.328125 33.6875 34.8125 36.53125 
Q 39.546875 41.84375 41.421875 45.53125 
Q 43.3125 49.21875 43.3125 52.78125 
Q 43.3125 58.59375 39.234375 62.25 
Q 35.15625 65.921875 28.609375 65.921875 
Q 23.96875 65.921875 18.8125 64.3125 
Q 13.671875 62.703125 7.8125 59.421875 
L 7.8125 69.390625 
Q 13.765625 71.78125 18.9375 73 
Q 24.125 74.21875 28.421875 74.21875 
Q 39.75 74.21875 46.484375 68.546875 
Q 53.21875 62.890625 53.21875 53.421875 
Q 53.21875 48.921875 51.53125 44.890625 
Q 49.859375 40.875 45.40625 35.40625 
Q 44.1875 33.984375 37.640625 27.21875 
Q 31.109375 20.453125 19.1875 8.296875 
z
" id="DejaVuSans-50"/>
       </defs>
       <use xlink:href="#DejaVuSans-50"/>
       <use x="63.623047" xlink:href="#DejaVuSans-48"/>
       <use x="127.246094" xlink:href="#DejaVuSans-48"/>
      </g>
     </g>
    </g>
    <g id="xtick_6">
     <g id="line2d_6">
      <g>
       <use style="stroke:#000000;stroke-width:0.8;" x="301.912093" xlink:href="#mfe584a2f3a" y="252"/>
      </g>
     </g>
     <g id="text_6">
      <!-- 250 -->
      <g transform="translate(292.368343 266.598437)scale(0.1 -0.1)">
       <use xlink:href="#DejaVuSans-50"/>
       <use x="63.623047" xlink:href="#DejaVuSans-53"/>
       <use x="127.246094" xlink:href="#DejaVuSans-48"/>
      </g>
     </g>
    </g>
    <g id="xtick_7">
     <g id="line2d_7">
      <g>
       <use style="stroke:#000000;stroke-width:0.8;" x="348.450876" xlink:href="#mfe584a2f3a" y="252"/>
      </g>
     </g>
     <g id="text_7">
      <!-- 300 -->
      <g transform="translate(338.907126 266.598437)scale(0.1 -0.1)">
       <defs>
        <path d="M 40.578125 39.3125 
Q 47.65625 37.796875 51.625 33 
Q 55.609375 28.21875 55.609375 21.1875 
Q 55.609375 10.40625 48.1875 4.484375 
Q 40.765625 -1.421875 27.09375 -1.421875 
Q 22.515625 -1.421875 17.65625 -0.515625 
Q 12.796875 0.390625 7.625 2.203125 
L 7.625 11.71875 
Q 11.71875 9.328125 16.59375 8.109375 
Q 21.484375 6.890625 26.8125 6.890625 
Q 36.078125 6.890625 40.9375 10.546875 
Q 45.796875 14.203125 45.796875 21.1875 
Q 45.796875 27.640625 41.28125 31.265625 
Q 36.765625 34.90625 28.71875 34.90625 
L 20.21875 34.90625 
L 20.21875 43.015625 
L 29.109375 43.015625 
Q 36.375 43.015625 40.234375 45.921875 
Q 44.09375 48.828125 44.09375 54.296875 
Q 44.09375 59.90625 40.109375 62.90625 
Q 36.140625 65.921875 28.71875 65.921875 
Q 24.65625 65.921875 20.015625 65.03125 
Q 15.375 64.15625 9.8125 62.3125 
L 9.8125 71.09375 
Q 15.4375 72.65625 20.34375 73.4375 
Q 25.25 74.21875 29.59375 74.21875 
Q 40.828125 74.21875 47.359375 69.109375 
Q 53.90625 64.015625 53.90625 55.328125 
Q 53.90625 49.265625 50.4375 45.09375 
Q 46.96875 40.921875 40.578125 39.3125 
z
" id="DejaVuSans-51"/>
       </defs>
       <use xlink:href="#DejaVuSans-51"/>
       <use x="63.623047" xlink:href="#DejaVuSans-48"/>
       <use x="127.246094" xlink:href="#DejaVuSans-48"/>
      </g>
     </g>
    </g>
   </g>
   <g id="matplotlib.axis_2">
    <g id="ytick_1">
     <g id="line2d_8">
      <defs>
       <path d="M 0 0 
L -3.5 0 
" id="m8988542cf1" style="stroke:#000000;stroke-width:0.8;"/>
      </defs>
      <g>
       <use style="stroke:#000000;stroke-width:0.8;" x="54" xlink:href="#m8988542cf1" y="242.116364"/>
      </g>
     </g>
     <g id="text_8">
      <!-- 0.00 -->
      <g transform="translate(24.734375 245.915582)scale(0.1 -0.1)">
       <defs>
        <path d="M 10.6875 12.40625 
L 21 12.40625 
L 21 0 
L 10.6875 0 
z
" id="DejaVuSans-46"/>
       </defs>
       <use xlink:href="#DejaVuSans-48"/>
       <use x="63.623047" xlink:href="#DejaVuSans-46"/>
       <use x="95.410156" xlink:href="#DejaVuSans-48"/>
       <use x="159.033203" xlink:href="#DejaVuSans-48"/>
      </g>
     </g>
    </g>
    <g id="ytick_2">
     <g id="line2d_9">
      <g>
       <use style="stroke:#000000;stroke-width:0.8;" x="54" xlink:href="#m8988542cf1" y="214.196487"/>
      </g>
     </g>
     <g id="text_9">
      <!-- 0.25 -->
      <g transform="translate(24.734375 217.995706)scale(0.1 -0.1)">
       <use xlink:href="#DejaVuSans-48"/>
       <use x="63.623047" xlink:href="#DejaVuSans-46"/>
       <use x="95.410156" xlink:href="#DejaVuSans-50"/>
       <use x="159.033203" xlink:href="#DejaVuSans-53"/>
      </g>
     </g>
    </g>
    <g id="ytick_3">
     <g id="line2d_10">
      <g>
       <use style="stroke:#000000;stroke-width:0.8;" x="54" xlink:href="#m8988542cf1" y="186.27661"/>
      </g>
     </g>
     <g id="text_10">
      <!-- 0.50 -->
      <g transform="translate(24.734375 190.075829)scale(0.1 -0.1)">
       <use xlink:href="#DejaVuSans-48"/>
       <use x="63.623047" xlink:href="#DejaVuSans-46"/>
       <use x="95.410156" xlink:href="#DejaVuSans-53"/>
       <use x="159.033203" xlink:href="#DejaVuSans-48"/>
      </g>
     </g>
    </g>
    <g id="ytick_4">
     <g id="line2d_11">
      <g>
       <use style="stroke:#000000;stroke-width:0.8;" x="54" xlink:href="#m8988542cf1" y="158.356733"/>
      </g>
     </g>
     <g id="text_11">
      <!-- 0.75 -->
      <g transform="translate(24.734375 162.155952)scale(0.1 -0.1)">
       <defs>
        <path d="M 8.203125 72.90625 
L 55.078125 72.90625 
L 55.078125 68.703125 
L 28.609375 0 
L 18.3125 0 
L 43.21875 64.59375 
L 8.203125 64.59375 
z
" id="DejaVuSans-55"/>
       </defs>
       <use xlink:href="#DejaVuSans-48"/>
       <use x="63.623047" xlink:href="#DejaVuSans-46"/>
       <use x="95.410156" xlink:href="#DejaVuSans-55"/>
       <use x="159.033203" xlink:href="#DejaVuSans-53"/>
      </g>
     </g>
    </g>
    <g id="ytick_5">
     <g id="line2d_12">
      <g>
       <use style="stroke:#000000;stroke-width:0.8;" x="54" xlink:href="#m8988542cf1" y="130.436857"/>
      </g>
     </g>
     <g id="text_12">
      <!-- 1.00 -->
      <g transform="translate(24.734375 134.236075)scale(0.1 -0.1)">
       <use xlink:href="#DejaVuSans-49"/>
       <use x="63.623047" xlink:href="#DejaVuSans-46"/>
       <use x="95.410156" xlink:href="#DejaVuSans-48"/>
       <use x="159.033203" xlink:href="#DejaVuSans-48"/>
      </g>
     </g>
    </g>
    <g id="ytick_6">
     <g id="line2d_13">
      <g>
       <use style="stroke:#000000;stroke-width:0.8;" x="54" xlink:href="#m8988542cf1" y="102.51698"/>
      </g>
     </g>
     <g id="text_13">
      <!-- 1.25 -->
      <g transform="translate(24.734375 106.316199)scale(0.1 -0.1)">
       <use xlink:href="#DejaVuSans-49"/>
       <use x="63.623047" xlink:href="#DejaVuSans-46"/>
       <use x="95.410156" xlink:href="#DejaVuSans-50"/>
       <use x="159.033203" xlink:href="#DejaVuSans-53"/>
      </g>
     </g>
    </g>
    <g id="ytick_7">
     <g id="line2d_14">
      <g>
       <use style="stroke:#000000;stroke-width:0.8;" x="54" xlink:href="#m8988542cf1" y="74.597103"/>
      </g>
     </g>
     <g id="text_14">
      <!-- 1.50 -->
      <g transform="translate(24.734375 78.396322)scale(0.1 -0.1)">
       <use xlink:href="#DejaVuSans-49"/>
       <use x="63.623047" xlink:href="#DejaVuSans-46"/>
       <use x="95.410156" xlink:href="#DejaVuSans-53"/>
       <use x="159.033203" xlink:href="#DejaVuSans-48"/>
      </g>
     </g>
    </g>
    <g id="ytick_8">
     <g id="line2d_15">
      <g>
       <use style="stroke:#000000;stroke-width:0.8;" x="54" xlink:href="#m8988542cf1" y="46.677227"/>
      </g>
     </g>
     <g id="text_15">
      <!-- 1.75 -->
      <g transform="translate(24.734375 50.476445)scale(0.1 -0.1)">
       <use xlink:href="#DejaVuSans-49"/>
       <use x="63.623047" xlink:href="#DejaVuSans-46"/>
       <use x="95.410156" xlink:href="#DejaVuSans-55"/>
       <use x="159.033203" xlink:href="#DejaVuSans-53"/>
      </g>
     </g>
    </g>
    <g id="text_16">
     <!-- 1e7 -->
     <g transform="translate(54 31.56)scale(0.1 -0.1)">
      <defs>
       <path d="M 56.203125 29.59375 
L 56.203125 25.203125 
L 14.890625 25.203125 
Q 15.484375 15.921875 20.484375 11.0625 
Q 25.484375 6.203125 34.421875 6.203125 
Q 39.59375 6.203125 44.453125 7.46875 
Q 49.3125 8.734375 54.109375 11.28125 
L 54.109375 2.78125 
Q 49.265625 0.734375 44.1875 -0.34375 
Q 39.109375 -1.421875 33.890625 -1.421875 
Q 20.796875 -1.421875 13.15625 6.1875 
Q 5.515625 13.8125 5.515625 26.8125 
Q 5.515625 40.234375 12.765625 48.109375 
Q 20.015625 56 32.328125 56 
Q 43.359375 56 49.78125 48.890625 
Q 56.203125 41.796875 56.203125 29.59375 
z
M 47.21875 32.234375 
Q 47.125 39.59375 43.09375 43.984375 
Q 39.0625 48.390625 32.421875 48.390625 
Q 24.90625 48.390625 20.390625 44.140625 
Q 15.875 39.890625 15.1875 32.171875 
z
" id="DejaVuSans-101"/>
      </defs>
      <use xlink:href="#DejaVuSans-49"/>
      <use x="63.623047" xlink:href="#DejaVuSans-101"/>
      <use x="125.146484" xlink:href="#DejaVuSans-55"/>
     </g>
    </g>
   </g>
   <g id="line2d_16">
    <path clip-path="url(#p507fce0744)" d="M 69.218182 240.687223 
L 86.902919 228.55186 
L 110.17231 212.872593 
L 145.541785 189.19006 
L 154.849541 183.132698 
L 173.465054 171.3703 
L 182.772811 165.13014 
L 187.426689 162.407349 
L 192.080567 159.621169 
L 204.180651 153.218851 
L 206.972977 151.825761 
L 230.242369 139.501704 
L 231.173144 138.62015 
L 233.034696 137.359735 
L 242.342452 130.50927 
L 243.273228 132.445971 
L 245.134779 131.084598 
L 246.065555 132.670447 
L 246.99633 132.670447 
L 247.927106 131.553652 
L 248.857882 131.553652 
L 250.719433 129.320062 
L 251.650209 129.320062 
L 252.580984 128.203267 
L 253.51176 128.203267 
L 255.373311 125.969676 
L 256.304087 125.969676 
L 257.234862 124.852881 
L 258.165638 124.852881 
L 260.027189 122.619291 
L 260.957965 122.619291 
L 261.888741 121.502496 
L 262.819516 121.502496 
L 264.681068 119.268906 
L 265.611843 119.268906 
L 266.542619 118.152111 
L 267.473394 118.152111 
L 268.40417 117.035316 
L 269.334946 117.035316 
L 271.196497 114.801726 
L 272.127273 114.801726 
L 273.058048 113.684931 
L 273.988824 113.684931 
L 275.850375 111.451341 
L 276.781151 111.451341 
L 277.711927 110.334545 
L 278.642702 110.334545 
L 280.504254 108.100955 
L 281.435029 108.100955 
L 282.365805 106.98416 
L 283.29658 106.98416 
L 285.158132 104.75057 
L 286.088907 104.75057 
L 287.019683 103.633775 
L 287.950459 103.633775 
L 288.881234 102.51698 
L 289.81201 102.51698 
L 291.673561 100.28339 
L 292.604337 100.28339 
L 293.535113 99.166595 
L 294.465888 99.166595 
L 296.32744 96.933005 
L 297.258215 96.933005 
L 298.188991 95.81621 
L 299.119766 95.81621 
L 300.981318 93.582619 
L 301.912093 93.582619 
L 302.842869 92.465824 
L 303.773645 92.465824 
L 305.635196 90.232234 
L 306.565972 90.232234 
L 307.496747 89.115439 
L 308.427523 89.115439 
L 310.289074 86.881849 
L 311.21985 86.881849 
L 312.150626 85.765054 
L 313.081401 85.765054 
L 314.012177 84.648259 
L 314.942952 84.648259 
L 316.804504 82.414669 
L 317.735279 82.414669 
L 318.666055 81.297874 
L 319.596831 81.297874 
L 321.458382 79.064284 
L 322.389158 79.064284 
L 323.319933 77.947488 
L 324.250709 77.947488 
L 326.11226 75.713898 
L 327.043036 75.713898 
L 327.973812 74.597103 
L 328.904587 74.597103 
L 330.766138 72.363513 
L 331.696914 72.363513 
L 332.62769 71.246718 
L 333.558465 71.246718 
L 335.420017 69.013128 
L 336.350792 69.013128 
L 337.281568 67.896333 
L 338.212344 67.896333 
L 339.143119 66.779538 
L 340.073895 66.779538 
L 341.935446 64.545948 
L 342.866222 64.545948 
L 343.796997 63.429153 
L 344.727773 63.429153 
L 346.589324 61.195562 
L 347.5201 61.195562 
L 348.450876 60.078767 
L 349.381651 60.078767 
L 351.243203 57.845177 
L 352.173978 57.845177 
L 353.104754 56.728382 
L 354.03553 56.728382 
L 355.897081 54.494792 
L 356.827857 54.494792 
L 357.758632 53.377997 
L 358.689408 53.377997 
L 360.550959 51.144407 
L 361.481735 51.144407 
L 362.41251 50.027612 
L 363.343286 50.027612 
L 365.204837 47.794022 
L 366.135613 47.794022 
L 367.066389 46.677227 
L 367.997164 46.677227 
L 368.92794 45.560431 
L 369.858716 45.560431 
L 370.789491 44.443636 
L 371.720267 242.116364 
L 373.581818 242.116364 
L 373.581818 242.116364 
" style="fill:none;stroke:#1f77b4;stroke-linecap:square;stroke-width:1.5;"/>
   </g>
   <g id="line2d_17">
    <path clip-path="url(#p507fce0744)" d="M 69.218182 240.426295 
L 82.249041 231.324773 
L 132.510926 196.989891 
L 152.98799 183.07668 
L 173.465054 169.78999 
L 182.772811 163.454009 
L 188.357465 160.100274 
L 190.219016 158.919464 
L 204.180651 151.448373 
L 206.972977 149.985997 
L 230.242369 137.465876 
L 230.242369 137.465876 
" style="fill:none;stroke:#ff7f0e;stroke-linecap:square;stroke-width:1.5;"/>
   </g>
   <g id="line2d_18">
    <path clip-path="url(#p507fce0744)" d="M 69.218182 240.729036 
L 83.179817 231.123348 
L 84.110592 230.948413 
L 85.041368 230.948413 
L 86.902919 228.714823 
L 87.833695 228.714823 
L 88.76447 227.598028 
L 89.695246 227.598028 
L 90.626022 226.481233 
L 91.556797 226.481233 
L 92.487573 225.364438 
L 93.418349 225.364438 
L 94.349124 224.247643 
L 95.2799 224.247643 
L 96.210676 223.130847 
L 97.141451 223.130847 
L 99.003003 220.897257 
L 99.933778 220.897257 
L 100.864554 219.780462 
L 101.795329 219.780462 
L 102.726105 218.663667 
L 103.656881 218.663667 
L 104.587656 217.546872 
L 105.518432 217.546872 
L 106.449208 216.430077 
L 107.379983 216.430077 
L 108.310759 215.313282 
L 109.241535 215.313282 
L 110.17231 214.196487 
L 111.103086 214.196487 
L 112.964637 211.962897 
L 113.895413 211.962897 
L 114.826188 210.846102 
L 115.756964 210.846102 
L 116.68774 209.729307 
L 117.618515 209.729307 
L 118.549291 208.612512 
L 119.480067 208.612512 
L 120.410842 207.495716 
L 121.341618 207.495716 
L 122.272394 206.378921 
L 123.203169 206.378921 
L 124.133945 205.262126 
L 125.064721 205.262126 
L 126.926272 203.028536 
L 127.857048 203.028536 
L 128.787823 201.911741 
L 129.718599 201.911741 
L 130.649374 200.794946 
L 131.58015 200.794946 
L 132.510926 199.678151 
L 133.441701 199.678151 
L 134.372477 198.561356 
L 135.303253 198.561356 
L 136.234028 197.444561 
L 137.164804 197.444561 
L 138.09558 196.327766 
L 139.026355 196.327766 
L 140.887907 194.094176 
L 141.818682 194.094176 
L 142.749458 192.977381 
L 143.680234 192.977381 
L 144.611009 191.860586 
L 145.541785 191.860586 
L 146.47256 190.74379 
L 147.403336 190.74379 
L 148.334112 189.626995 
L 149.264887 189.626995 
L 150.195663 188.5102 
L 151.126439 188.5102 
L 152.057214 187.393405 
L 152.98799 187.393405 
L 153.918766 186.27661 
L 154.849541 186.27661 
L 155.780317 185.159815 
L 156.711093 185.159815 
L 157.641868 184.04302 
L 158.572644 184.04302 
L 159.50342 182.926225 
L 160.434195 182.926225 
L 161.364971 181.80943 
L 162.295746 181.80943 
L 163.226522 180.692635 
L 164.157298 180.692635 
L 165.088073 179.57584 
L 166.018849 179.57584 
L 166.949625 178.459045 
L 167.8804 178.459045 
L 168.811176 177.34225 
L 169.741952 177.34225 
L 170.672727 176.225455 
L 171.603503 176.225455 
L 172.534279 175.108659 
L 173.465054 175.108659 
L 174.39583 173.991864 
L 175.326606 173.991864 
L 177.188157 171.758274 
L 178.118932 171.758274 
L 179.049708 170.641479 
L 179.980484 170.641479 
L 180.911259 169.524684 
L 181.842035 169.524684 
L 182.772811 168.407889 
L 183.703586 168.407889 
L 184.634362 167.291094 
L 185.565138 167.291094 
L 186.495913 168.407889 
L 188.357465 168.407889 
L 189.28824 169.524684 
L 192.080567 169.524684 
L 193.011343 170.641479 
L 195.80367 170.641479 
L 196.734445 171.758274 
L 200.457548 171.758274 
L 201.388324 172.875069 
L 204.180651 172.875069 
L 205.111426 173.991864 
L 207.903753 173.991864 
L 208.834529 175.108659 
L 212.557631 175.108659 
L 213.488407 176.225455 
L 217.21151 176.225455 
L 218.142285 177.34225 
L 221.865388 177.34225 
L 222.796163 178.459045 
L 226.519266 178.459045 
L 227.450042 179.57584 
L 230.242369 179.57584 
L 231.173144 213.079692 
L 232.10392 213.079692 
L 233.034696 211.962897 
L 233.965471 211.962897 
L 234.896247 210.846102 
L 235.827023 210.846102 
L 236.757798 209.729307 
L 237.688574 209.729307 
L 239.550125 207.495716 
L 240.480901 207.495716 
L 241.411676 206.378921 
L 242.342452 206.378921 
L 244.204003 204.145331 
L 245.134779 204.145331 
L 246.065555 203.028536 
L 246.99633 203.028536 
L 248.857882 200.794946 
L 249.788657 200.794946 
L 250.719433 199.678151 
L 251.650209 199.678151 
L 253.51176 197.444561 
L 254.442535 197.444561 
L 255.373311 196.327766 
L 256.304087 196.327766 
L 258.165638 194.094176 
L 259.096414 194.094176 
L 260.027189 192.977381 
L 260.957965 192.977381 
L 261.888741 191.860586 
L 262.819516 191.860586 
L 264.681068 189.626995 
L 265.611843 189.626995 
L 266.542619 188.5102 
L 267.473394 188.5102 
L 269.334946 186.27661 
L 270.265721 186.27661 
L 271.196497 185.159815 
L 272.127273 185.159815 
L 273.058048 184.04302 
L 273.988824 184.04302 
L 275.850375 181.80943 
L 276.781151 181.80943 
L 277.711927 180.692635 
L 278.642702 180.692635 
L 280.504254 178.459045 
L 281.435029 178.459045 
L 282.365805 177.34225 
L 283.29658 177.34225 
L 285.158132 175.108659 
L 286.088907 175.108659 
L 287.019683 173.991864 
L 287.950459 173.991864 
L 288.881234 172.875069 
L 289.81201 172.875069 
L 291.673561 170.641479 
L 292.604337 170.641479 
L 293.535113 169.524684 
L 294.465888 169.524684 
L 296.32744 167.291094 
L 297.258215 167.291094 
L 298.188991 166.174299 
L 299.119766 166.174299 
L 300.981318 163.940709 
L 301.912093 163.940709 
L 302.842869 162.823914 
L 303.773645 162.823914 
L 305.635196 160.590324 
L 306.565972 160.590324 
L 307.496747 159.473529 
L 308.427523 159.473529 
L 310.289074 157.239938 
L 311.21985 157.239938 
L 312.150626 156.123143 
L 313.081401 156.123143 
L 314.942952 153.889553 
L 315.873728 153.889553 
L 316.804504 152.772758 
L 317.735279 152.772758 
L 319.596831 150.539168 
L 320.527606 150.539168 
L 321.458382 149.422373 
L 322.389158 149.422373 
L 323.319933 148.305578 
L 324.250709 148.305578 
L 326.11226 146.071988 
L 327.043036 146.071988 
L 327.973812 144.955193 
L 328.904587 144.955193 
L 330.766138 142.721602 
L 331.696914 142.721602 
L 332.62769 141.604807 
L 333.558465 141.604807 
L 335.420017 139.371217 
L 336.350792 139.371217 
L 337.281568 138.254422 
L 338.212344 138.254422 
L 340.073895 136.020832 
L 341.004671 136.020832 
L 341.935446 134.904037 
L 342.866222 134.904037 
L 344.727773 132.670447 
L 345.658549 132.670447 
L 346.589324 131.553652 
L 347.5201 131.553652 
L 349.381651 129.320062 
L 350.312427 129.320062 
L 351.243203 128.203267 
L 352.173978 128.203267 
L 353.104754 127.086471 
L 354.03553 127.086471 
L 355.897081 124.852881 
L 356.827857 124.852881 
L 357.758632 123.736086 
L 358.689408 123.736086 
L 360.550959 121.502496 
L 361.481735 121.502496 
L 362.41251 120.385701 
L 363.343286 120.385701 
L 365.204837 118.152111 
L 366.135613 118.152111 
L 367.066389 117.035316 
L 370.789491 117.035316 
L 371.720267 242.116364 
L 373.581818 242.116364 
L 373.581818 242.116364 
" style="fill:none;stroke:#2ca02c;stroke-linecap:square;stroke-width:1.5;"/>
   </g>
   <g id="line2d_19">
    <path clip-path="url(#p507fce0744)" d="M 69.218182 240.470744 
L 82.249041 231.369221 
L 83.179817 230.996435 
L 84.110592 230.948413 
L 85.041368 229.831618 
L 85.972143 229.831618 
L 86.902919 228.714823 
L 87.833695 228.714823 
L 89.695246 226.481233 
L 90.626022 226.481233 
L 91.556797 225.364438 
L 92.487573 225.364438 
L 93.418349 224.247643 
L 94.349124 224.247643 
L 95.2799 223.130847 
L 96.210676 223.130847 
L 97.141451 222.014052 
L 98.072227 222.014052 
L 99.933778 219.780462 
L 100.864554 219.780462 
L 101.795329 218.663667 
L 102.726105 218.663667 
L 103.656881 217.546872 
L 104.587656 217.546872 
L 105.518432 216.430077 
L 106.449208 216.430077 
L 107.379983 215.313282 
L 108.310759 215.313282 
L 109.241535 214.196487 
L 110.17231 214.196487 
L 112.033862 211.962897 
L 112.964637 211.962897 
L 113.895413 210.846102 
L 114.826188 210.846102 
L 115.756964 209.729307 
L 116.68774 209.729307 
L 117.618515 208.612512 
L 118.549291 208.612512 
L 119.480067 207.495716 
L 120.410842 207.495716 
L 122.272394 205.262126 
L 123.203169 205.262126 
L 124.133945 204.145331 
L 125.064721 204.145331 
L 125.995496 203.028536 
L 126.926272 203.028536 
L 127.857048 201.911741 
L 128.787823 201.911741 
L 129.718599 200.794946 
L 130.649374 200.794946 
L 131.58015 199.678151 
L 132.510926 199.678151 
L 134.372477 197.444561 
L 135.303253 197.444561 
L 136.234028 196.327766 
L 137.164804 196.327766 
L 138.09558 195.210971 
L 139.026355 195.210971 
L 139.957131 194.094176 
L 140.887907 194.094176 
L 141.818682 192.977381 
L 142.749458 192.977381 
L 144.611009 190.74379 
L 145.541785 190.74379 
L 146.47256 189.626995 
L 147.403336 189.626995 
L 148.334112 188.5102 
L 149.264887 188.5102 
L 150.195663 187.393405 
L 151.126439 187.393405 
L 152.057214 186.27661 
L 152.98799 186.27661 
L 153.918766 185.159815 
L 154.849541 185.159815 
L 155.780317 184.04302 
L 156.711093 184.04302 
L 157.641868 182.926225 
L 158.572644 182.926225 
L 159.50342 181.80943 
L 160.434195 181.80943 
L 162.295746 179.57584 
L 163.226522 179.57584 
L 164.157298 178.459045 
L 165.088073 178.459045 
L 166.018849 177.34225 
L 166.949625 177.34225 
L 167.8804 176.225455 
L 168.811176 176.225455 
L 169.741952 175.108659 
L 170.672727 175.108659 
L 171.603503 173.991864 
L 172.534279 173.991864 
L 173.465054 172.875069 
L 174.39583 172.875069 
L 175.326606 171.758274 
L 176.257381 171.758274 
L 177.188157 170.641479 
L 178.118932 170.641479 
L 179.980484 168.407889 
L 180.911259 168.407889 
L 181.842035 167.291094 
L 182.772811 167.291094 
L 183.703586 166.174299 
L 185.565138 166.174299 
L 186.495913 167.291094 
L 188.357465 167.291094 
L 189.28824 168.407889 
L 192.080567 168.407889 
L 193.011343 169.524684 
L 196.734445 169.524684 
L 197.665221 170.641479 
L 201.388324 170.641479 
L 202.319099 171.758274 
L 204.180651 171.758274 
L 205.111426 172.875069 
L 207.903753 172.875069 
L 208.834529 173.991864 
L 213.488407 173.991864 
L 214.419183 175.108659 
L 218.142285 175.108659 
L 219.073061 176.225455 
L 222.796163 176.225455 
L 223.726939 177.34225 
L 226.519266 177.34225 
L 227.450042 178.459045 
L 229.311593 178.459045 
L 230.242369 177.34225 
L 230.242369 177.34225 
" style="fill:none;stroke:#d62728;stroke-linecap:square;stroke-width:1.5;"/>
   </g>
   <g id="patch_3">
    <path d="M 54 252 
L 54 34.56 
" style="fill:none;stroke:#000000;stroke-linecap:square;stroke-linejoin:miter;stroke-width:0.8;"/>
   </g>
   <g id="patch_4">
    <path d="M 388.8 252 
L 388.8 34.56 
" style="fill:none;stroke:#000000;stroke-linecap:square;stroke-linejoin:miter;stroke-width:0.8;"/>
   </g>
   <g id="patch_5">
    <path d="M 54 252 
L 388.8 252 
" style="fill:none;stroke:#000000;stroke-linecap:square;stroke-linejoin:miter;stroke-width:0.8;"/>
   </g>
   <g id="patch_6">
    <path d="M 54 34.56 
L 388.8 34.56 
" style="fill:none;stroke:#000000;stroke-linecap:square;stroke-linejoin:miter;stroke-width:0.8;"/>
   </g>
   <g id="legend_1">
    <g id="patch_7">
     <path d="M 61 101.2725 
L 180.676562 101.2725 
Q 182.676562 101.2725 182.676562 99.2725 
L 182.676562 41.56 
Q 182.676562 39.56 180.676562 39.56 
L 61 39.56 
Q 59 39.56 59 41.56 
L 59 99.2725 
Q 59 101.2725 61 101.2725 
z
" style="fill:#ffffff;opacity:0.8;stroke:#cccccc;stroke-linejoin:miter;"/>
    </g>
    <g id="line2d_20">
     <path d="M 63 47.658437 
L 83 47.658437 
" style="fill:none;stroke:#1f77b4;stroke-linecap:square;stroke-width:1.5;"/>
    </g>
    <g id="line2d_21"/>
    <g id="text_17">
     <!-- VIRT, mem.bash -->
     <g transform="translate(91 51.158437)scale(0.1 -0.1)">
      <defs>
       <path d="M 28.609375 0 
L 0.78125 72.90625 
L 11.078125 72.90625 
L 34.1875 11.53125 
L 57.328125 72.90625 
L 67.578125 72.90625 
L 39.796875 0 
z
" id="DejaVuSans-86"/>
       <path d="M 9.8125 72.90625 
L 19.671875 72.90625 
L 19.671875 0 
L 9.8125 0 
z
" id="DejaVuSans-73"/>
       <path d="M 44.390625 34.1875 
Q 47.5625 33.109375 50.5625 29.59375 
Q 53.5625 26.078125 56.59375 19.921875 
L 66.609375 0 
L 56 0 
L 46.6875 18.703125 
Q 43.0625 26.03125 39.671875 28.421875 
Q 36.28125 30.8125 30.421875 30.8125 
L 19.671875 30.8125 
L 19.671875 0 
L 9.8125 0 
L 9.8125 72.90625 
L 32.078125 72.90625 
Q 44.578125 72.90625 50.734375 67.671875 
Q 56.890625 62.453125 56.890625 51.90625 
Q 56.890625 45.015625 53.6875 40.46875 
Q 50.484375 35.9375 44.390625 34.1875 
z
M 19.671875 64.796875 
L 19.671875 38.921875 
L 32.078125 38.921875 
Q 39.203125 38.921875 42.84375 42.21875 
Q 46.484375 45.515625 46.484375 51.90625 
Q 46.484375 58.296875 42.84375 61.546875 
Q 39.203125 64.796875 32.078125 64.796875 
z
" id="DejaVuSans-82"/>
       <path d="M -0.296875 72.90625 
L 61.375 72.90625 
L 61.375 64.59375 
L 35.5 64.59375 
L 35.5 0 
L 25.59375 0 
L 25.59375 64.59375 
L -0.296875 64.59375 
z
" id="DejaVuSans-84"/>
       <path d="M 11.71875 12.40625 
L 22.015625 12.40625 
L 22.015625 4 
L 14.015625 -11.625 
L 7.71875 -11.625 
L 11.71875 4 
z
" id="DejaVuSans-44"/>
       <path id="DejaVuSans-32"/>
       <path d="M 52 44.1875 
Q 55.375 50.25 60.0625 53.125 
Q 64.75 56 71.09375 56 
Q 79.640625 56 84.28125 50.015625 
Q 88.921875 44.046875 88.921875 33.015625 
L 88.921875 0 
L 79.890625 0 
L 79.890625 32.71875 
Q 79.890625 40.578125 77.09375 44.375 
Q 74.3125 48.1875 68.609375 48.1875 
Q 61.625 48.1875 57.5625 43.546875 
Q 53.515625 38.921875 53.515625 30.90625 
L 53.515625 0 
L 44.484375 0 
L 44.484375 32.71875 
Q 44.484375 40.625 41.703125 44.40625 
Q 38.921875 48.1875 33.109375 48.1875 
Q 26.21875 48.1875 22.15625 43.53125 
Q 18.109375 38.875 18.109375 30.90625 
L 18.109375 0 
L 9.078125 0 
L 9.078125 54.6875 
L 18.109375 54.6875 
L 18.109375 46.1875 
Q 21.1875 51.21875 25.484375 53.609375 
Q 29.78125 56 35.6875 56 
Q 41.65625 56 45.828125 52.96875 
Q 50 49.953125 52 44.1875 
z
" id="DejaVuSans-109"/>
       <path d="M 48.6875 27.296875 
Q 48.6875 37.203125 44.609375 42.84375 
Q 40.53125 48.484375 33.40625 48.484375 
Q 26.265625 48.484375 22.1875 42.84375 
Q 18.109375 37.203125 18.109375 27.296875 
Q 18.109375 17.390625 22.1875 11.75 
Q 26.265625 6.109375 33.40625 6.109375 
Q 40.53125 6.109375 44.609375 11.75 
Q 48.6875 17.390625 48.6875 27.296875 
z
M 18.109375 46.390625 
Q 20.953125 51.265625 25.265625 53.625 
Q 29.59375 56 35.59375 56 
Q 45.5625 56 51.78125 48.09375 
Q 58.015625 40.1875 58.015625 27.296875 
Q 58.015625 14.40625 51.78125 6.484375 
Q 45.5625 -1.421875 35.59375 -1.421875 
Q 29.59375 -1.421875 25.265625 0.953125 
Q 20.953125 3.328125 18.109375 8.203125 
L 18.109375 0 
L 9.078125 0 
L 9.078125 75.984375 
L 18.109375 75.984375 
z
" id="DejaVuSans-98"/>
       <path d="M 34.28125 27.484375 
Q 23.390625 27.484375 19.1875 25 
Q 14.984375 22.515625 14.984375 16.5 
Q 14.984375 11.71875 18.140625 8.90625 
Q 21.296875 6.109375 26.703125 6.109375 
Q 34.1875 6.109375 38.703125 11.40625 
Q 43.21875 16.703125 43.21875 25.484375 
L 43.21875 27.484375 
z
M 52.203125 31.203125 
L 52.203125 0 
L 43.21875 0 
L 43.21875 8.296875 
Q 40.140625 3.328125 35.546875 0.953125 
Q 30.953125 -1.421875 24.3125 -1.421875 
Q 15.921875 -1.421875 10.953125 3.296875 
Q 6 8.015625 6 15.921875 
Q 6 25.140625 12.171875 29.828125 
Q 18.359375 34.515625 30.609375 34.515625 
L 43.21875 34.515625 
L 43.21875 35.40625 
Q 43.21875 41.609375 39.140625 45 
Q 35.0625 48.390625 27.6875 48.390625 
Q 23 48.390625 18.546875 47.265625 
Q 14.109375 46.140625 10.015625 43.890625 
L 10.015625 52.203125 
Q 14.9375 54.109375 19.578125 55.046875 
Q 24.21875 56 28.609375 56 
Q 40.484375 56 46.34375 49.84375 
Q 52.203125 43.703125 52.203125 31.203125 
z
" id="DejaVuSans-97"/>
       <path d="M 44.28125 53.078125 
L 44.28125 44.578125 
Q 40.484375 46.53125 36.375 47.5 
Q 32.28125 48.484375 27.875 48.484375 
Q 21.1875 48.484375 17.84375 46.4375 
Q 14.5 44.390625 14.5 40.28125 
Q 14.5 37.15625 16.890625 35.375 
Q 19.28125 33.59375 26.515625 31.984375 
L 29.59375 31.296875 
Q 39.15625 29.25 43.1875 25.515625 
Q 47.21875 21.78125 47.21875 15.09375 
Q 47.21875 7.46875 41.1875 3.015625 
Q 35.15625 -1.421875 24.609375 -1.421875 
Q 20.21875 -1.421875 15.453125 -0.5625 
Q 10.6875 0.296875 5.421875 2 
L 5.421875 11.28125 
Q 10.40625 8.6875 15.234375 7.390625 
Q 20.0625 6.109375 24.8125 6.109375 
Q 31.15625 6.109375 34.5625 8.28125 
Q 37.984375 10.453125 37.984375 14.40625 
Q 37.984375 18.0625 35.515625 20.015625 
Q 33.0625 21.96875 24.703125 23.78125 
L 21.578125 24.515625 
Q 13.234375 26.265625 9.515625 29.90625 
Q 5.8125 33.546875 5.8125 39.890625 
Q 5.8125 47.609375 11.28125 51.796875 
Q 16.75 56 26.8125 56 
Q 31.78125 56 36.171875 55.265625 
Q 40.578125 54.546875 44.28125 53.078125 
z
" id="DejaVuSans-115"/>
       <path d="M 54.890625 33.015625 
L 54.890625 0 
L 45.90625 0 
L 45.90625 32.71875 
Q 45.90625 40.484375 42.875 44.328125 
Q 39.84375 48.1875 33.796875 48.1875 
Q 26.515625 48.1875 22.3125 43.546875 
Q 18.109375 38.921875 18.109375 30.90625 
L 18.109375 0 
L 9.078125 0 
L 9.078125 75.984375 
L 18.109375 75.984375 
L 18.109375 46.1875 
Q 21.34375 51.125 25.703125 53.5625 
Q 30.078125 56 35.796875 56 
Q 45.21875 56 50.046875 50.171875 
Q 54.890625 44.34375 54.890625 33.015625 
z
" id="DejaVuSans-104"/>
      </defs>
      <use xlink:href="#DejaVuSans-86"/>
      <use x="68.408203" xlink:href="#DejaVuSans-73"/>
      <use x="97.900391" xlink:href="#DejaVuSans-82"/>
      <use x="160.132812" xlink:href="#DejaVuSans-84"/>
      <use x="221.216797" xlink:href="#DejaVuSans-44"/>
      <use x="253.003906" xlink:href="#DejaVuSans-32"/>
      <use x="284.791016" xlink:href="#DejaVuSans-109"/>
      <use x="382.203125" xlink:href="#DejaVuSans-101"/>
      <use x="443.726562" xlink:href="#DejaVuSans-109"/>
      <use x="541.138672" xlink:href="#DejaVuSans-46"/>
      <use x="572.925781" xlink:href="#DejaVuSans-98"/>
      <use x="636.402344" xlink:href="#DejaVuSans-97"/>
      <use x="697.681641" xlink:href="#DejaVuSans-115"/>
      <use x="749.78125" xlink:href="#DejaVuSans-104"/>
     </g>
    </g>
    <g id="line2d_22">
     <path d="M 63 62.336562 
L 83 62.336562 
" style="fill:none;stroke:#ff7f0e;stroke-linecap:square;stroke-width:1.5;"/>
    </g>
    <g id="line2d_23"/>
    <g id="text_18">
     <!-- VIRT, mem2.bash -->
     <g transform="translate(91 65.836562)scale(0.1 -0.1)">
      <use xlink:href="#DejaVuSans-86"/>
      <use x="68.408203" xlink:href="#DejaVuSans-73"/>
      <use x="97.900391" xlink:href="#DejaVuSans-82"/>
      <use x="160.132812" xlink:href="#DejaVuSans-84"/>
      <use x="221.216797" xlink:href="#DejaVuSans-44"/>
      <use x="253.003906" xlink:href="#DejaVuSans-32"/>
      <use x="284.791016" xlink:href="#DejaVuSans-109"/>
      <use x="382.203125" xlink:href="#DejaVuSans-101"/>
      <use x="443.726562" xlink:href="#DejaVuSans-109"/>
      <use x="541.138672" xlink:href="#DejaVuSans-50"/>
      <use x="604.761719" xlink:href="#DejaVuSans-46"/>
      <use x="636.548828" xlink:href="#DejaVuSans-98"/>
      <use x="700.025391" xlink:href="#DejaVuSans-97"/>
      <use x="761.304688" xlink:href="#DejaVuSans-115"/>
      <use x="813.404297" xlink:href="#DejaVuSans-104"/>
     </g>
    </g>
    <g id="line2d_24">
     <path d="M 63 77.014687 
L 83 77.014687 
" style="fill:none;stroke:#2ca02c;stroke-linecap:square;stroke-width:1.5;"/>
    </g>
    <g id="line2d_25"/>
    <g id="text_19">
     <!-- RES, mem.bash -->
     <g transform="translate(91 80.514687)scale(0.1 -0.1)">
      <defs>
       <path d="M 9.8125 72.90625 
L 55.90625 72.90625 
L 55.90625 64.59375 
L 19.671875 64.59375 
L 19.671875 43.015625 
L 54.390625 43.015625 
L 54.390625 34.71875 
L 19.671875 34.71875 
L 19.671875 8.296875 
L 56.78125 8.296875 
L 56.78125 0 
L 9.8125 0 
z
" id="DejaVuSans-69"/>
       <path d="M 53.515625 70.515625 
L 53.515625 60.890625 
Q 47.90625 63.578125 42.921875 64.890625 
Q 37.9375 66.21875 33.296875 66.21875 
Q 25.25 66.21875 20.875 63.09375 
Q 16.5 59.96875 16.5 54.203125 
Q 16.5 49.359375 19.40625 46.890625 
Q 22.3125 44.4375 30.421875 42.921875 
L 36.375 41.703125 
Q 47.40625 39.59375 52.65625 34.296875 
Q 57.90625 29 57.90625 20.125 
Q 57.90625 9.515625 50.796875 4.046875 
Q 43.703125 -1.421875 29.984375 -1.421875 
Q 24.8125 -1.421875 18.96875 -0.25 
Q 13.140625 0.921875 6.890625 3.21875 
L 6.890625 13.375 
Q 12.890625 10.015625 18.65625 8.296875 
Q 24.421875 6.59375 29.984375 6.59375 
Q 38.421875 6.59375 43.015625 9.90625 
Q 47.609375 13.234375 47.609375 19.390625 
Q 47.609375 24.75 44.3125 27.78125 
Q 41.015625 30.8125 33.5 32.328125 
L 27.484375 33.5 
Q 16.453125 35.6875 11.515625 40.375 
Q 6.59375 45.0625 6.59375 53.421875 
Q 6.59375 63.09375 13.40625 68.65625 
Q 20.21875 74.21875 32.171875 74.21875 
Q 37.3125 74.21875 42.625 73.28125 
Q 47.953125 72.359375 53.515625 70.515625 
z
" id="DejaVuSans-83"/>
      </defs>
      <use xlink:href="#DejaVuSans-82"/>
      <use x="69.482422" xlink:href="#DejaVuSans-69"/>
      <use x="132.666016" xlink:href="#DejaVuSans-83"/>
      <use x="196.142578" xlink:href="#DejaVuSans-44"/>
      <use x="227.929688" xlink:href="#DejaVuSans-32"/>
      <use x="259.716797" xlink:href="#DejaVuSans-109"/>
      <use x="357.128906" xlink:href="#DejaVuSans-101"/>
      <use x="418.652344" xlink:href="#DejaVuSans-109"/>
      <use x="516.064453" xlink:href="#DejaVuSans-46"/>
      <use x="547.851562" xlink:href="#DejaVuSans-98"/>
      <use x="611.328125" xlink:href="#DejaVuSans-97"/>
      <use x="672.607422" xlink:href="#DejaVuSans-115"/>
      <use x="724.707031" xlink:href="#DejaVuSans-104"/>
     </g>
    </g>
    <g id="line2d_26">
     <path d="M 63 91.692813 
L 83 91.692813 
" style="fill:none;stroke:#d62728;stroke-linecap:square;stroke-width:1.5;"/>
    </g>
    <g id="line2d_27"/>
    <g id="text_20">
     <!-- RES, mem2.bash -->
     <g transform="translate(91 95.192813)scale(0.1 -0.1)">
      <use xlink:href="#DejaVuSans-82"/>
      <use x="69.482422" xlink:href="#DejaVuSans-69"/>
      <use x="132.666016" xlink:href="#DejaVuSans-83"/>
      <use x="196.142578" xlink:href="#DejaVuSans-44"/>
      <use x="227.929688" xlink:href="#DejaVuSans-32"/>
      <use x="259.716797" xlink:href="#DejaVuSans-109"/>
      <use x="357.128906" xlink:href="#DejaVuSans-101"/>
      <use x="418.652344" xlink:href="#DejaVuSans-109"/>
      <use x="516.064453" xlink:href="#DejaVuSans-50"/>
      <use x="579.6875" xlink:href="#DejaVuSans-46"/>
      <use x="611.474609" xlink:href="#DejaVuSans-98"/>
      <use x="674.951172" xlink:href="#DejaVuSans-97"/>
      <use x="736.230469" xlink:href="#DejaVuSans-115"/>
      <use x="788.330078" xlink:href="#DejaVuSans-104"/>
     </g>
    </g>
   </g>
  </g>
 </g>
 <defs>
  <clipPath id="p507fce0744">
   <rect height="217.44" width="334.8" x="54" y="34.56"/>
  </clipPath>
 </defs>
</svg>
