<?xml version="1.0" encoding="UTF-8" standalone="no"?>
<!DOCTYPE svg PUBLIC "-//W3C//DTD SVG 1.1//EN"
 "http://www.w3.org/Graphics/SVG/1.1/DTD/svg11.dtd">
<!-- Generated by graphviz version 2.49.3 (0)
 -->
<!-- Title: G Pages: 1 -->
<svg width="637pt" height="548pt"
 viewBox="0.00 0.00 637.00 548.00" xmlns="http://www.w3.org/2000/svg" xmlns:xlink="http://www.w3.org/1999/xlink">
<g id="graph0" class="graph" transform="scale(1 1) rotate(0) translate(4 544)">
<title>G</title>
<polygon fill="white" stroke="transparent" points="-4,4 -4,-544 633,-544 633,4 -4,4"/>
<!-- 0 -->
<g id="node1" class="node">
<title>0</title>
<ellipse fill="none" stroke="black" cx="207" cy="-522" rx="27" ry="18"/>
<text text-anchor="middle" x="207" y="-518.3" font-family="Times,serif" font-size="14.00">H</text>
</g>
<!-- 1 -->
<g id="node2" class="node">
<title>1</title>
<ellipse fill="none" stroke="black" cx="27" cy="-450" rx="27" ry="18"/>
<text text-anchor="middle" x="27" y="-446.3" font-family="Times,serif" font-size="14.00">fun</text>
</g>
<!-- 0&#45;&gt;1 -->
<g id="edge1" class="edge">
<title>0&#45;&gt;1</title>
<path fill="none" stroke="black" d="M183.31,-513C154.56,-503.13 104.77,-485.51 63,-468 61.18,-467.24 59.32,-466.44 57.46,-465.61"/>
<polygon fill="black" stroke="black" points="58.73,-462.35 48.18,-461.38 55.83,-468.71 58.73,-462.35"/>
</g>
<!-- 2 -->
<g id="node3" class="node">
<title>2</title>
<ellipse fill="none" stroke="black" cx="99" cy="-450" rx="27" ry="18"/>
<text text-anchor="middle" x="99" y="-446.3" font-family="Times,serif" font-size="14.00">f</text>
</g>
<!-- 0&#45;&gt;2 -->
<g id="edge2" class="edge">
<title>0&#45;&gt;2</title>
<path fill="none" stroke="black" d="M188.19,-508.81C171,-497.67 145.38,-481.06 126.01,-468.5"/>
<polygon fill="black" stroke="black" points="127.89,-465.56 117.6,-463.05 124.08,-471.43 127.89,-465.56"/>
</g>
<!-- 3 -->
<g id="node4" class="node">
<title>3</title>
<ellipse fill="none" stroke="black" cx="171" cy="-450" rx="27" ry="18"/>
<text text-anchor="middle" x="171" y="-446.3" font-family="Times,serif" font-size="14.00">(</text>
</g>
<!-- 0&#45;&gt;3 -->
<g id="edge3" class="edge">
<title>0&#45;&gt;3</title>
<path fill="none" stroke="black" d="M198.65,-504.76C194.29,-496.28 188.85,-485.71 183.96,-476.2"/>
<polygon fill="black" stroke="black" points="186.99,-474.44 179.3,-467.15 180.77,-477.64 186.99,-474.44"/>
</g>
<!-- 4 -->
<g id="node5" class="node">
<title>4</title>
<ellipse fill="none" stroke="black" cx="243" cy="-450" rx="27" ry="18"/>
<text text-anchor="middle" x="243" y="-446.3" font-family="Times,serif" font-size="14.00">P</text>
</g>
<!-- 0&#45;&gt;4 -->
<g id="edge4" class="edge">
<title>0&#45;&gt;4</title>
<path fill="none" stroke="black" d="M215.35,-504.76C219.71,-496.28 225.15,-485.71 230.04,-476.2"/>
<polygon fill="black" stroke="black" points="233.23,-477.64 234.7,-467.15 227.01,-474.44 233.23,-477.64"/>
</g>
<!-- 24 -->
<g id="node25" class="node">
<title>24</title>
<ellipse fill="none" stroke="black" cx="315" cy="-450" rx="27" ry="18"/>
<text text-anchor="middle" x="315" y="-446.3" font-family="Times,serif" font-size="14.00">)</text>
</g>
<!-- 0&#45;&gt;24 -->
<g id="edge24" class="edge">
<title>0&#45;&gt;24</title>
<path fill="none" stroke="black" d="M225.81,-508.81C243,-497.67 268.62,-481.06 287.99,-468.5"/>
<polygon fill="black" stroke="black" points="289.92,-471.43 296.4,-463.05 286.11,-465.56 289.92,-471.43"/>
</g>
<!-- 25 -->
<g id="node26" class="node">
<title>25</title>
<ellipse fill="none" stroke="black" cx="405" cy="-450" rx="27" ry="18"/>
<text text-anchor="middle" x="405" y="-446.3" font-family="Times,serif" font-size="14.00">R</text>
</g>
<!-- 0&#45;&gt;25 -->
<g id="edge25" class="edge">
<title>0&#45;&gt;25</title>
<path fill="none" stroke="black" d="M230.49,-512.7C265.62,-500.28 331.98,-476.81 371.97,-462.68"/>
<polygon fill="black" stroke="black" points="373.28,-465.93 381.54,-459.29 370.95,-459.33 373.28,-465.93"/>
</g>
<!-- 5 -->
<g id="node6" class="node">
<title>5</title>
<ellipse fill="none" stroke="black" cx="153" cy="-378" rx="27" ry="18"/>
<text text-anchor="middle" x="153" y="-374.3" font-family="Times,serif" font-size="14.00">a</text>
</g>
<!-- 4&#45;&gt;5 -->
<g id="edge5" class="edge">
<title>4&#45;&gt;5</title>
<path fill="none" stroke="black" d="M226.07,-435.83C212.5,-425.27 193.24,-410.3 177.91,-398.37"/>
<polygon fill="black" stroke="black" points="179.89,-395.48 169.85,-392.11 175.6,-401.01 179.89,-395.48"/>
</g>
<!-- 6 -->
<g id="node7" class="node">
<title>6</title>
<ellipse fill="none" stroke="black" cx="225" cy="-378" rx="27" ry="18"/>
<text text-anchor="middle" x="225" y="-374.3" font-family="Times,serif" font-size="14.00">T</text>
</g>
<!-- 4&#45;&gt;6 -->
<g id="edge6" class="edge">
<title>4&#45;&gt;6</title>
<path fill="none" stroke="black" d="M238.64,-432.05C236.61,-424.14 234.14,-414.54 231.86,-405.69"/>
<polygon fill="black" stroke="black" points="235.2,-404.6 229.32,-395.79 228.42,-406.35 235.2,-404.6"/>
</g>
<!-- 9 -->
<g id="node10" class="node">
<title>9</title>
<ellipse fill="none" stroke="black" cx="297" cy="-378" rx="27" ry="18"/>
<text text-anchor="middle" x="297" y="-374.3" font-family="Times,serif" font-size="14.00">P&#39;</text>
</g>
<!-- 4&#45;&gt;9 -->
<g id="edge9" class="edge">
<title>4&#45;&gt;9</title>
<path fill="none" stroke="black" d="M254.98,-433.46C261.98,-424.4 270.94,-412.79 278.79,-402.61"/>
<polygon fill="black" stroke="black" points="281.71,-404.55 285.05,-394.49 276.17,-400.27 281.71,-404.55"/>
</g>
<!-- 7 -->
<g id="node8" class="node">
<title>7</title>
<ellipse fill="none" stroke="black" cx="153" cy="-306" rx="27" ry="18"/>
<text text-anchor="middle" x="153" y="-302.3" font-family="Times,serif" font-size="14.00">:</text>
</g>
<!-- 6&#45;&gt;7 -->
<g id="edge7" class="edge">
<title>6&#45;&gt;7</title>
<path fill="none" stroke="black" d="M210.43,-362.83C200.25,-352.94 186.48,-339.55 174.97,-328.36"/>
<polygon fill="black" stroke="black" points="177.41,-325.85 167.8,-321.38 172.53,-330.87 177.41,-325.85"/>
</g>
<!-- 8 -->
<g id="node9" class="node">
<title>8</title>
<ellipse fill="none" stroke="black" cx="225" cy="-306" rx="27" ry="18"/>
<text text-anchor="middle" x="225" y="-302.3" font-family="Times,serif" font-size="14.00">Int</text>
</g>
<!-- 6&#45;&gt;8 -->
<g id="edge8" class="edge">
<title>6&#45;&gt;8</title>
<path fill="none" stroke="black" d="M225,-359.7C225,-351.98 225,-342.71 225,-334.11"/>
<polygon fill="black" stroke="black" points="228.5,-334.1 225,-324.1 221.5,-334.1 228.5,-334.1"/>
</g>
<!-- 10 -->
<g id="node11" class="node">
<title>10</title>
<ellipse fill="none" stroke="black" cx="297" cy="-306" rx="27" ry="18"/>
<text text-anchor="middle" x="297" y="-302.3" font-family="Times,serif" font-size="14.00">,</text>
</g>
<!-- 9&#45;&gt;10 -->
<g id="edge10" class="edge">
<title>9&#45;&gt;10</title>
<path fill="none" stroke="black" d="M297,-359.7C297,-351.98 297,-342.71 297,-334.11"/>
<polygon fill="black" stroke="black" points="300.5,-334.1 297,-324.1 293.5,-334.1 300.5,-334.1"/>
</g>
<!-- 11 -->
<g id="node12" class="node">
<title>11</title>
<ellipse fill="none" stroke="black" cx="369" cy="-306" rx="27" ry="18"/>
<text text-anchor="middle" x="369" y="-302.3" font-family="Times,serif" font-size="14.00">P</text>
</g>
<!-- 9&#45;&gt;11 -->
<g id="edge11" class="edge">
<title>9&#45;&gt;11</title>
<path fill="none" stroke="black" d="M311.57,-362.83C321.75,-352.94 335.52,-339.55 347.03,-328.36"/>
<polygon fill="black" stroke="black" points="349.47,-330.87 354.2,-321.38 344.59,-325.85 349.47,-330.87"/>
</g>
<!-- 12 -->
<g id="node13" class="node">
<title>12</title>
<ellipse fill="none" stroke="black" cx="297" cy="-234" rx="27" ry="18"/>
<text text-anchor="middle" x="297" y="-230.3" font-family="Times,serif" font-size="14.00">b</text>
</g>
<!-- 11&#45;&gt;12 -->
<g id="edge12" class="edge">
<title>11&#45;&gt;12</title>
<path fill="none" stroke="black" d="M354.43,-290.83C344.25,-280.94 330.48,-267.55 318.97,-256.36"/>
<polygon fill="black" stroke="black" points="321.41,-253.85 311.8,-249.38 316.53,-258.87 321.41,-253.85"/>
</g>
<!-- 13 -->
<g id="node14" class="node">
<title>13</title>
<ellipse fill="none" stroke="black" cx="369" cy="-234" rx="27" ry="18"/>
<text text-anchor="middle" x="369" y="-230.3" font-family="Times,serif" font-size="14.00">T</text>
</g>
<!-- 11&#45;&gt;13 -->
<g id="edge13" class="edge">
<title>11&#45;&gt;13</title>
<path fill="none" stroke="black" d="M369,-287.7C369,-279.98 369,-270.71 369,-262.11"/>
<polygon fill="black" stroke="black" points="372.5,-262.1 369,-252.1 365.5,-262.1 372.5,-262.1"/>
</g>
<!-- 16 -->
<g id="node17" class="node">
<title>16</title>
<ellipse fill="none" stroke="black" cx="458" cy="-234" rx="27" ry="18"/>
<text text-anchor="middle" x="458" y="-230.3" font-family="Times,serif" font-size="14.00">P&#39;</text>
</g>
<!-- 11&#45;&gt;16 -->
<g id="edge16" class="edge">
<title>11&#45;&gt;16</title>
<path fill="none" stroke="black" d="M385.74,-291.83C399.08,-281.34 417.96,-266.49 433.08,-254.6"/>
<polygon fill="black" stroke="black" points="435.34,-257.28 441.03,-248.35 431.01,-251.78 435.34,-257.28"/>
</g>
<!-- 14 -->
<g id="node15" class="node">
<title>14</title>
<ellipse fill="none" stroke="black" cx="280" cy="-162" rx="27" ry="18"/>
<text text-anchor="middle" x="280" y="-158.3" font-family="Times,serif" font-size="14.00">:</text>
</g>
<!-- 13&#45;&gt;14 -->
<g id="edge14" class="edge">
<title>13&#45;&gt;14</title>
<path fill="none" stroke="black" d="M352.26,-219.83C338.92,-209.34 320.04,-194.49 304.92,-182.6"/>
<polygon fill="black" stroke="black" points="306.99,-179.78 296.97,-176.35 302.66,-185.28 306.99,-179.78"/>
</g>
<!-- 15 -->
<g id="node16" class="node">
<title>15</title>
<ellipse fill="none" stroke="black" cx="369" cy="-162" rx="43.59" ry="18"/>
<text text-anchor="middle" x="369" y="-158.3" font-family="Times,serif" font-size="14.00">Double</text>
</g>
<!-- 13&#45;&gt;15 -->
<g id="edge15" class="edge">
<title>13&#45;&gt;15</title>
<path fill="none" stroke="black" d="M369,-215.7C369,-207.98 369,-198.71 369,-190.11"/>
<polygon fill="black" stroke="black" points="372.5,-190.1 369,-180.1 365.5,-190.1 372.5,-190.1"/>
</g>
<!-- 17 -->
<g id="node18" class="node">
<title>17</title>
<ellipse fill="none" stroke="black" cx="458" cy="-162" rx="27" ry="18"/>
<text text-anchor="middle" x="458" y="-158.3" font-family="Times,serif" font-size="14.00">,</text>
</g>
<!-- 16&#45;&gt;17 -->
<g id="edge17" class="edge">
<title>16&#45;&gt;17</title>
<path fill="none" stroke="black" d="M458,-215.7C458,-207.98 458,-198.71 458,-190.11"/>
<polygon fill="black" stroke="black" points="461.5,-190.1 458,-180.1 454.5,-190.1 461.5,-190.1"/>
</g>
<!-- 18 -->
<g id="node19" class="node">
<title>18</title>
<ellipse fill="none" stroke="black" cx="530" cy="-162" rx="27" ry="18"/>
<text text-anchor="middle" x="530" y="-158.3" font-family="Times,serif" font-size="14.00">P</text>
</g>
<!-- 16&#45;&gt;18 -->
<g id="edge18" class="edge">
<title>16&#45;&gt;18</title>
<path fill="none" stroke="black" d="M472.57,-218.83C482.75,-208.94 496.52,-195.55 508.03,-184.36"/>
<polygon fill="black" stroke="black" points="510.47,-186.87 515.2,-177.38 505.59,-181.85 510.47,-186.87"/>
</g>
<!-- 19 -->
<g id="node20" class="node">
<title>19</title>
<ellipse fill="none" stroke="black" cx="415" cy="-90" rx="70.39" ry="18"/>
<text text-anchor="middle" x="415" y="-86.3" font-family="Times,serif" font-size="14.00">`._U@}&lt;3e`</text>
</g>
<!-- 18&#45;&gt;19 -->
<g id="edge19" class="edge">
<title>18&#45;&gt;19</title>
<path fill="none" stroke="black" d="M510.75,-149.28C494.15,-139.18 469.77,-124.34 449.77,-112.16"/>
<polygon fill="black" stroke="black" points="451.58,-109.17 441.21,-106.96 447.94,-115.15 451.58,-109.17"/>
</g>
<!-- 20 -->
<g id="node21" class="node">
<title>20</title>
<ellipse fill="none" stroke="black" cx="530" cy="-90" rx="27" ry="18"/>
<text text-anchor="middle" x="530" y="-86.3" font-family="Times,serif" font-size="14.00">T</text>
</g>
<!-- 18&#45;&gt;20 -->
<g id="edge20" class="edge">
<title>18&#45;&gt;20</title>
<path fill="none" stroke="black" d="M530,-143.7C530,-135.98 530,-126.71 530,-118.11"/>
<polygon fill="black" stroke="black" points="533.5,-118.1 530,-108.1 526.5,-118.1 533.5,-118.1"/>
</g>
<!-- 23 -->
<g id="node24" class="node">
<title>23</title>
<ellipse fill="none" stroke="black" cx="602" cy="-90" rx="27" ry="18"/>
<text text-anchor="middle" x="602" y="-86.3" font-family="Times,serif" font-size="14.00">P&#39;</text>
</g>
<!-- 18&#45;&gt;23 -->
<g id="edge23" class="edge">
<title>18&#45;&gt;23</title>
<path fill="none" stroke="black" d="M544.57,-146.83C554.75,-136.94 568.52,-123.55 580.03,-112.36"/>
<polygon fill="black" stroke="black" points="582.47,-114.87 587.2,-105.38 577.59,-109.85 582.47,-114.87"/>
</g>
<!-- 21 -->
<g id="node22" class="node">
<title>21</title>
<ellipse fill="none" stroke="black" cx="494" cy="-18" rx="27" ry="18"/>
<text text-anchor="middle" x="494" y="-14.3" font-family="Times,serif" font-size="14.00">:</text>
</g>
<!-- 20&#45;&gt;21 -->
<g id="edge21" class="edge">
<title>20&#45;&gt;21</title>
<path fill="none" stroke="black" d="M521.65,-72.76C517.29,-64.28 511.85,-53.71 506.96,-44.2"/>
<polygon fill="black" stroke="black" points="509.99,-42.44 502.3,-35.15 503.77,-45.64 509.99,-42.44"/>
</g>
<!-- 22 -->
<g id="node23" class="node">
<title>22</title>
<ellipse fill="none" stroke="black" cx="566" cy="-18" rx="27" ry="18"/>
<text text-anchor="middle" x="566" y="-14.3" font-family="Times,serif" font-size="14.00">Int</text>
</g>
<!-- 20&#45;&gt;22 -->
<g id="edge22" class="edge">
<title>20&#45;&gt;22</title>
<path fill="none" stroke="black" d="M538.35,-72.76C542.71,-64.28 548.15,-53.71 553.04,-44.2"/>
<polygon fill="black" stroke="black" points="556.23,-45.64 557.7,-35.15 550.01,-42.44 556.23,-45.64"/>
</g>
<!-- 26 -->
<g id="node27" class="node">
<title>26</title>
<ellipse fill="none" stroke="black" cx="441" cy="-378" rx="27" ry="18"/>
<text text-anchor="middle" x="441" y="-374.3" font-family="Times,serif" font-size="14.00">T</text>
</g>
<!-- 25&#45;&gt;26 -->
<g id="edge26" class="edge">
<title>25&#45;&gt;26</title>
<path fill="none" stroke="black" d="M413.35,-432.76C417.71,-424.28 423.15,-413.71 428.04,-404.2"/>
<polygon fill="black" stroke="black" points="431.23,-405.64 432.7,-395.15 425.01,-402.44 431.23,-405.64"/>
</g>
<!-- 27 -->
<g id="node28" class="node">
<title>27</title>
<ellipse fill="none" stroke="black" cx="441" cy="-306" rx="27" ry="18"/>
<text text-anchor="middle" x="441" y="-302.3" font-family="Times,serif" font-size="14.00">:</text>
</g>
<!-- 26&#45;&gt;27 -->
<g id="edge27" class="edge">
<title>26&#45;&gt;27</title>
<path fill="none" stroke="black" d="M441,-359.7C441,-351.98 441,-342.71 441,-334.11"/>
<polygon fill="black" stroke="black" points="444.5,-334.1 441,-324.1 437.5,-334.1 444.5,-334.1"/>
</g>
<!-- 28 -->
<g id="node29" class="node">
<title>28</title>
<ellipse fill="none" stroke="black" cx="530" cy="-306" rx="43.59" ry="18"/>
<text text-anchor="middle" x="530" y="-302.3" font-family="Times,serif" font-size="14.00">Double</text>
</g>
<!-- 26&#45;&gt;28 -->
<g id="edge28" class="edge">
<title>26&#45;&gt;28</title>
<path fill="none" stroke="black" d="M457.74,-363.83C470.28,-353.97 487.73,-340.25 502.33,-328.76"/>
<polygon fill="black" stroke="black" points="504.85,-331.23 510.55,-322.3 500.52,-325.73 504.85,-331.23"/>
</g>
</g>
</svg>
